<svg xmlns="http://www.w3.org/2000/svg" width="105" height="185" viewBox="0 0 105 185"><defs><style>.cls-1{fill:#ee796e;}.cls-2{fill:#b3b3b2;}.cls-3{fill:#a4a1a3;}.cls-4{fill:#ef817d;}.cls-5{fill:#a7a2a2;}.cls-6{fill:#e56f6a;}.cls-7{fill:#d0ced0;}.cls-8{fill:#2c2e33;}.cls-9{fill:#919191;}.cls-10{fill:#acaca0;}.cls-11{fill:#f0edf0;}.cls-12{fill:#ab4d48;}.cls-13{fill:#5a5656;}.cls-14{fill:#fbfaf9;}.cls-15{fill:#fff;}.cls-16{fill:#b24e49;}</style></defs><g id="Layer_3" data-name="Layer 3"><path class="cls-1" d="M103.21,49.82V153.54A29.48,29.48,0,0,1,73.73,183H31.48A29.44,29.44,0,0,1,2,153.54V49.82c0-.59,0-1.18.06-1.76v0A29,29,0,0,1,5.22,36.44a29.52,29.52,0,0,1,9-10.49h0a15.38,15.38,0,0,0,1.23,1c.22.17.45.34.7.5l.73.49.77.47.81.46c.56.32,1.14.62,1.75.91.3.15.62.29.93.43.64.27,1.29.55,2,.82s1.38.52,2.1.76,1.47.49,2.23.72l1.17.34c.44.13.9.24,1.35.36s.91.23,1.39.33c1.86.44,3.83.84,5.87,1.16l1.55.23,1.16.17,1.13.13,1.72.2,1.3.13c2,.17,4.11.3,6.25.36.44,0,.89,0,1.34,0l2.16,0c16.79,0,31.34-3.7,38.45-9.09a29.46,29.46,0,0,1,10.89,21.43C103.2,48.82,103.21,49.32,103.21,49.82Z"/><path class="cls-2" d="M95.91,23A10.86,10.86,0,0,1,95,24.36l-.27-.31A6.94,6.94,0,0,0,95.91,23Z"/><path class="cls-3" d="M39,31.72l-.15-.25c-9.81-2-15.92-4.8-15.48-7.85s1.52-7.85,6.53-8.72c0,0-.37,0-1,0h0a31.69,31.69,0,0,0-3.85.28h0c-2.5.32-5.29,1-6.67,2.52a36.19,36.19,0,0,1-2.66,2.46l0,0a10.5,10.5,0,0,0-1.41,1.43,3.79,3.79,0,0,0-.65,1.22h0c0,.06,0,.12,0,.19h0a.36.36,0,0,0,0,.1s0,0,0,0A4.15,4.15,0,0,0,14.19,26a5.42,5.42,0,0,0,2.31,1.76C23,31,40.18,33.64,40.18,33.64Z"/><path class="cls-4" d="M103.21,48.31V58.79a58.48,58.48,0,0,1-7.37,3c-8.1,2.78-22.65,6.5-42.52,6.5V63S13.9,60.13,2,51.09a1.53,1.53,0,0,1-.22-.16s.1-1.38.28-2.87v0a12.8,12.8,0,0,1,.71-3.31S16,56.17,53.48,56.17c18,0,30.15-1.81,37.94-3.69s11.31-3.88,11.74-4.14Z"/><path class="cls-5" d="M96.92,19.43a6.93,6.93,0,0,1-.69,3C96.08,21.56,78.81,7.31,37.34,13c0,0-17.45,1-21,5.67a31,31,0,0,0-2,2.94c-.28.48-.49.88-.65,1.22h0c-.06.13-.1.26-.16.36h0c-.36.95-.21,1.24-.21,1.24a3.79,3.79,0,0,1,.3-1.3s0,0,0,0,.07-.15.12-.23a7.33,7.33,0,0,1,1.6-2.22c2-2,5.89-4.31,13.67-5.82h0q2.67-.52,6-.89c21.92-2.4,41.55.44,47.33,2.19s13,6.31,12.43,7.84A120.32,120.32,0,0,1,39,31.72C23.61,30.13,14.19,26,14.19,26a14,14,0,0,1-1.48-1.52,7.83,7.83,0,0,1-2-5C10.7,10.29,30,2.87,53.82,2.87S96.92,10.29,96.92,19.43Z"/><path class="cls-6" d="M103.21,48.31V89.48c-.2-2.7-3.82-16.55-7.37-27.7-.45-1.44-.91-2.83-1.36-4.14a15.71,15.71,0,0,0-3.06-5.16C83.88,43.6,66.24,37.33,53.82,36l23.67-6.69,0,0,12.18-3.44h.06L95,24.36a15.1,15.1,0,0,1-2.7,2.55,29.46,29.46,0,0,1,10.89,21.43Z"/><path class="cls-7" d="M28.13,15.15c2.27-.23-14.07,6.29-12.07,8.68a15.73,15.73,0,0,1,2.49,3.69L14.19,26l-.65-2.76s-.57-1.27,2.17-3S25.14,15.45,28.13,15.15Z"/><path class="cls-8" d="M96.23,22.39v0h0c-.09.18-.18.34-.29.53,0,0,0,0,0,0a2.62,2.62,0,0,1-.22.25,8.24,8.24,0,0,1-1,.82c.55-1.53-6.65-6.11-12.43-7.84S56.86,11.62,34.94,14q-3.33.36-6,.89h0c-7.78,1.51-11.69,3.83-13.67,5.82A7.33,7.33,0,0,0,13.66,23c-.05.08-.08.16-.12.23s0,0,0,0a3.79,3.79,0,0,0-.3,1.3s-.15-.29.21-1.24h0c.06-.1.1-.23.16-.36h0c.16-.34.37-.74.65-1.22a31,31,0,0,1,2-2.94c3.59-4.69,21-5.67,21-5.67C78.81,7.31,96.08,21.56,96.23,22.39Z"/><path class="cls-9" d="M96.23,22.39v0h0a1.34,1.34,0,0,1-.29.53s0,0,0,0a2.62,2.62,0,0,1-.22.25,8.24,8.24,0,0,1-1,.82c.55-1.53-6.65-6.11-12.43-7.84S56.86,11.62,34.94,14q-3.33.36-6,.89h0c-7.78,1.51-11.69,3.83-13.67,5.82A7.33,7.33,0,0,0,13.66,23c-.05.08-.08.16-.12.23s0,0,0,0a3.79,3.79,0,0,0-.3,1.3s-.15-.29.21-1.24h0c.06-.1.1-.23.16-.36h0c.16-.34.37-.74.65-1.22a31,31,0,0,1,2-2.94c3.59-4.69,21-5.67,21-5.67C78.81,7.31,96.08,21.56,96.23,22.39Z"/><path class="cls-10" d="M95,24.36a15.1,15.1,0,0,1-2.7,2.55C85.16,32.3,70.61,36,53.82,36l-2.16,0-1.34,0c-2.14-.06-4.22-.19-6.25-.36l-1.3-.13-1.72-.2-1.13-.13L38.76,35l-1.55-.23c-2-.32-4-.72-5.87-1.16-.47-.1-.93-.22-1.39-.33S29,33,28.6,32.87l-1.17-.34c-.76-.23-1.5-.46-2.23-.72s-1.43-.49-2.1-.76-1.33-.55-2-.82c-.31-.14-.63-.28-.93-.43-.61-.29-1.19-.59-1.75-.91l-.81-.46L16.87,28l-.73-.49c-.25-.16-.48-.33-.7-.5a15.38,15.38,0,0,1-1.23-1A66.8,66.8,0,0,0,23,28.85l1.16.29c1.36.34,2.86.68,4.47,1l1.16.23,1.4.25c.75.14,1.53.27,2.33.38l1.32.2,1.35.19c.92.12,1.86.23,2.82.32s1.83.19,2.78.26c2.22.17,4.55.29,7,.33l2.06,0A119.55,119.55,0,0,0,77,29.43l.58-.14.84-.19c3.68-.87,7.47-1.94,11.34-3.25h.06c1.63-.56,3.28-1.15,4.93-1.79Z"/><path class="cls-7" d="M96.92,18.56a7,7,0,0,1-.69,3h0a1.31,1.31,0,0,1-.29.54s0,0,0,0l-.22.25a20.42,20.42,0,0,0-3-2.89c-3.16-2.64-9.81-4.25-19.18-6.55s-10.26-1.85-27.27-1.29a95,95,0,0,0-21.2,2.68,0,0,0,0,0,0,0,28.47,28.47,0,0,0-6.67,2.52,11.09,11.09,0,0,0-2.66,2.46l0,0-.41.51c-.59.76-1.14,1.53-1.6,2.23a1.09,1.09,0,0,1-.1.11v0a.76.76,0,0,1-.11.16h0c-.29.44-.55.84-.74,1.18a7.83,7.83,0,0,1-2-5C10.7,9.41,30,2,53.82,2S96.92,9.41,96.92,18.56Z"/><path class="cls-11" d="M100.63,165.58A29.47,29.47,0,0,1,73.73,183H31.48A29.48,29.48,0,0,1,3.69,163.36C21.91,176,74.24,179.11,100.63,165.58Z"/><path class="cls-4" d="M29.05,33S18.59,78.36,20.33,170c0,0,5.24,2.61,14.4,3.49S32.23,40.68,39.5,34.9Z"/><path class="cls-11" d="M16.84,35c-4.36,2.18-4.36,2.83-6.11,7.63A97.1,97.1,0,0,0,7,58.29c-.22,2.18,3.05-.43,3.27-2.18s-.22-3.92.65-7.19,3.06-7,3.93-9.16S16.84,35,16.84,35Z"/><path class="cls-11" d="M7.25,64.62c-.44,1.74-2.19,3.92-.22,3.49s1.52-.87,2.18-2.4S7.25,64.62,7.25,64.62Z"/><path class="cls-11" d="M73.76,6c12,3.27,18.11,6.33,19,8.29"/><path class="cls-11" d="M91.07,89.67c-1.22-18.13.19,41,.19,41s1.48-2.63,1.48-4.21S92.55,111.76,91.07,89.67Z"/><path class="cls-12" d="M84.09,86.24c0,.23,0,.45,0,.68C83.71,81.86,78,77.84,71,77.84s-12.67,4-13.06,9c0-.2,0-.41,0-.62,0-5.95,5.86-10.77,13.11-10.77S84.09,80.29,84.09,86.24Z"/><path class="cls-12" d="M43.29,86.24c0,.23,0,.45,0,.68-.36-5.06-6.08-9.08-13.08-9.08s-12.67,4-13.07,9c0-.2,0-.41,0-.62,0-5.95,5.86-10.77,13.1-10.77S43.29,80.29,43.29,86.24Z"/><path class="cls-13" d="M48.58,24.24c-.65-1.73-4.29-4.35-8.77-4S27,19.47,26,20.31s-2.43,1.84-2.61,2.51,1.12,2.51,2.42,2.93,3.73,2.85,8.39,2.09a79.58,79.58,0,0,1,9.51-1C47.27,26.59,48.76,24.75,48.58,24.24Z"/><path class="cls-14" d="M75,11.47a1.58,1.58,0,0,0-.91-.83L69.9,9.27a1.44,1.44,0,0,0-1,0l-6.86,2.46a1.44,1.44,0,0,0-.59.4l-1.83,2a1.54,1.54,0,0,1-1.06.48l-.47,0a1.27,1.27,0,0,0-.52.11l-9.05,3.69a1.54,1.54,0,0,0-.89,1L47,22a1.55,1.55,0,0,0,0,.93l.86,2.29a1.49,1.49,0,0,0,1,.93l1.45.39a1.5,1.5,0,0,0,.89,0l9.62-3.34.25-.12.76-.42a1.25,1.25,0,0,1,.59-.19l2.86-.3a1.53,1.53,0,0,0,.37-.08l7.22-2.7a1.44,1.44,0,0,0,.48-.28L76,16.71a1.49,1.49,0,0,0,.46-1.49l-.21-.9v-.06ZM55.34,22.88c-2,.74-4,.41-4.4-.73s.86-2.68,2.87-3.42,4-.41,4.41.73S57.36,22.14,55.34,22.88ZM68,20c-3.45,1.27-6.83.71-7.55-1.24s1.51-4.56,5-5.83,6.83-.72,7.56,1.22S71.41,18.72,68,20Z"/><circle class="cls-15" cx="29.93" cy="91.66" r="10.96"/><circle class="cls-15" cx="71.15" cy="91.66" r="10.96"/><ellipse class="cls-11" cx="26.89" cy="97.44" rx="1.08" ry="0.5"/><ellipse class="cls-11" cx="74.38" cy="97.44" rx="1.08" ry="0.5"/><path class="cls-16" d="M79.43,124.81c-1.31,2.29-2.59,4.4-3.86,6.35-24.6,38-41.88,15.84-49.09,2.09a69.09,69.09,0,0,1-3.75-8.44Z"/><path class="cls-15" d="M22.73,124.81h23.5c-.49,1.85-2.41,8.42-5.34,8.27-3.42-.12-7.3-8-7.3-8s-1.85,6.29-4.8,8.2a2.15,2.15,0,0,1-2.31,0A69.09,69.09,0,0,1,22.73,124.81Z"/><path class="cls-15" d="M46.4,124.81h9.17c-.49,2.13-2.24,8.82-5.11,8.58S46.61,126.66,46.4,124.81Z"/><path class="cls-15" d="M55.89,124.81H67.44c-.3,2.54-1.35,8.15-4.9,8.15C58.74,133,56.52,126.82,55.89,124.81Z"/><path class="cls-15" d="M79.43,124.81c-1.31,2.29-2.59,4.4-3.86,6.35l-.28.26A3.39,3.39,0,0,1,73,133c-3,.23-4.66-5.57-5.23-8.15Z"/><path class="cls-15" d="M68,129.87h0a.42.42,0,0,0,0-.07Z"/><circle cx="29.93" cy="91.66" r="3.49"/><circle cx="71.36" cy="91.66" r="3.49"/><path class="cls-15" d="M38.12,50.43a4.62,4.62,0,0,1,1.23.28,6.87,6.87,0,0,1,1.08.55l.29.17a.72.72,0,0,0,.24.09.33.33,0,0,0,.35-.25.12.12,0,0,1,.1-.08.33.33,0,0,1,.17,0l.14,0a.06.06,0,0,1,0,.09c0,.16-.09.32-.13.49s0,.34-.07.52a6,6,0,0,0,0,.85c0,.28,0,.58,0,.88a.12.12,0,0,1-.08.09.47.47,0,0,1-.17,0,.58.58,0,0,1-.19,0c-.05,0-.09-.06-.09-.12a3.6,3.6,0,0,0-1-2.1A3.41,3.41,0,0,0,38,51.08a2.91,2.91,0,0,0-1.68.26,3.17,3.17,0,0,0-1.13,1,4.79,4.79,0,0,0-.68,1.42,8.65,8.65,0,0,0-.3,1.55,8,8,0,0,0,0,1.69,5,5,0,0,0,.44,1.58,3.35,3.35,0,0,0,1,1.2,2.82,2.82,0,0,0,1.54.58,5.64,5.64,0,0,0,1.3,0,2.24,2.24,0,0,0,1-.38,3.35,3.35,0,0,0,.86-1,5.14,5.14,0,0,0,.54-1.33.15.15,0,0,1,.11-.13.33.33,0,0,1,.17,0,.39.39,0,0,1,.16.1.12.12,0,0,1,0,.12c0,.2-.09.4-.12.59s-.05.39-.07.59-.06.69-.07,1,0,.73,0,1.12a.16.16,0,0,1-.07.13.24.24,0,0,1-.15,0,.3.3,0,0,1-.15,0,.14.14,0,0,1-.08-.12.92.92,0,0,0-.08-.27.66.66,0,0,0-.17-.23.54.54,0,0,0-.28-.11.87.87,0,0,0-.36.07c-.23.1-.45.18-.66.25a5.27,5.27,0,0,1-.64.14,4.92,4.92,0,0,1-.67,0A6.8,6.8,0,0,1,37,61a5.22,5.22,0,0,1-3.8-1.71,5.26,5.26,0,0,1-.92-3.92,6.53,6.53,0,0,1,.63-2.3,5,5,0,0,1,1.28-1.59,4.88,4.88,0,0,1,1.8-.88A6.22,6.22,0,0,1,38.12,50.43Z"/><path class="cls-15" d="M49.82,57.77a4.73,4.73,0,0,1-.29,1.62,3.43,3.43,0,0,1-.76,1.17,3.11,3.11,0,0,1-1.16.7,3.9,3.9,0,0,1-1.48.21,3.63,3.63,0,0,1-1.3-.26,3,3,0,0,1-1-.72,3.31,3.31,0,0,1-.66-1.17,5,5,0,0,1-.22-1.66,3.92,3.92,0,0,1,.29-1.4A3.18,3.18,0,0,1,44,55.18a3.24,3.24,0,0,1,1.12-.68,3.85,3.85,0,0,1,1.42-.22,4,4,0,0,1,1.36.26,3.16,3.16,0,0,1,1.06.68,3,3,0,0,1,.68,1.08A4,4,0,0,1,49.82,57.77Zm-1.58.12a8.1,8.1,0,0,0-.05-1.11,3.44,3.44,0,0,0-.25-1,1.6,1.6,0,0,0-.53-.69,1.42,1.42,0,0,0-.88-.28,1.72,1.72,0,0,0-1,.23,1.79,1.79,0,0,0-.61.67,3.27,3.27,0,0,0-.33,1,8,8,0,0,0-.11,1.12,7.6,7.6,0,0,0,0,1.06,3.43,3.43,0,0,0,.26,1,2,2,0,0,0,.57.73,1.46,1.46,0,0,0,.93.31,1.53,1.53,0,0,0,1-.25,1.88,1.88,0,0,0,.58-.69,3.21,3.21,0,0,0,.29-1A8.18,8.18,0,0,0,48.24,57.89Z"/><path class="cls-15" d="M52.53,53.68c0-.43,0-.77-.06-1a1.43,1.43,0,0,0-.17-.59.57.57,0,0,0-.38-.27,3.19,3.19,0,0,0-.68-.1.14.14,0,0,1-.12-.08.44.44,0,0,1,0-.15.21.21,0,0,1,0-.15.14.14,0,0,1,.12-.08l1.09-.12a6.1,6.1,0,0,0,1.19-.26c.14,0,.24,0,.28,0a.32.32,0,0,1,.09.17l.24,8.43a5.53,5.53,0,0,0,0,.63.87.87,0,0,0,.12.42.66.66,0,0,0,.33.25,3,3,0,0,0,.61.12.18.18,0,0,1,.14.08.25.25,0,0,1,0,.15.42.42,0,0,1,0,.15.17.17,0,0,1-.14.07,7.87,7.87,0,0,1-.81,0,6.92,6.92,0,0,0-.91,0c-.32,0-.63,0-.94.08s-.63.07-.95.08a.13.13,0,0,1-.12-.07.24.24,0,0,1,0-.14.29.29,0,0,1,0-.16A.2.2,0,0,1,51.6,61a2.45,2.45,0,0,0,.65-.16.63.63,0,0,0,.33-.25.72.72,0,0,0,.11-.4,5.55,5.55,0,0,0,0-.58Z"/><path class="cls-15" d="M62.2,59.16a1.82,1.82,0,0,0,.16.72.35.35,0,0,0,.39.18A.68.68,0,0,0,63,60a1.72,1.72,0,0,0,.29-.19.09.09,0,0,1,.1,0,.2.2,0,0,1,.09.07.47.47,0,0,1,.07.12.14.14,0,0,1,0,.11,1.78,1.78,0,0,1-1.33.82,1.21,1.21,0,0,1-.76-.18,1.43,1.43,0,0,1-.5-.51s-.06,0-.09,0a3.05,3.05,0,0,1-2.15,1,1.81,1.81,0,0,1-1.36-.35,1.74,1.74,0,0,1-.56-1.26,1.82,1.82,0,0,1,.87-1.74,6,6,0,0,1,2.88-.81s0,0,0-.08a2.19,2.19,0,0,0,0-.34l0-.41a3.78,3.78,0,0,0-.12-.7,1.8,1.8,0,0,0-.25-.56,1,1,0,0,0-.43-.36,1.28,1.28,0,0,0-.64-.09,1.7,1.7,0,0,0-.88.28.66.66,0,0,0-.3.6.56.56,0,0,0,.13.31.56.56,0,0,1,.13.31.58.58,0,0,1-.18.43.69.69,0,0,1-.49.23.7.7,0,0,1-.6-.17.79.79,0,0,1-.21-.52,1.36,1.36,0,0,1,.15-.73,1.92,1.92,0,0,1,.52-.62,3.15,3.15,0,0,1,.81-.45,3.38,3.38,0,0,1,1-.22,2.91,2.91,0,0,1,1.93.4A2.26,2.26,0,0,1,62,56.15Zm-1.53-1.38a.91.91,0,0,0,0-.2s0,0-.08,0a3.83,3.83,0,0,0-1.78.66,1.23,1.23,0,0,0-.51,1.11,1.28,1.28,0,0,0,.28.74.92.92,0,0,0,.78.25,2.3,2.3,0,0,0,.72-.2,2.4,2.4,0,0,0,.65-.44.35.35,0,0,0,.1-.25Z"/></g></svg>