<svg id="Layer_1" data-name="Layer 1" xmlns="http://www.w3.org/2000/svg" width="260" height="260" viewBox="0 0 260 260"><defs><style>.cls-1{fill:#4f597c;}.cls-2{fill:#f0bbbc;}</style></defs><rect class="cls-1" x="-12.5" y="-10.5" width="281" height="288"/><path class="cls-2" d="M177.76,71.13V78.5c0,21.25-6.49,34.82-20.95,41.61,17.41,6.79,24.2,22.43,24.2,44.26v16.82c0,31.87-16.82,49-49.28,49h-51V23.62h49C163.3,23.62,177.76,39.26,177.76,71.13Zm-64.62-18v54.6h12.69c12.1,0,19.47-5.32,19.47-21.84V74.37c0-14.75-5-21.25-16.52-21.25Zm0,84.11v63.44h18.59c10.92,0,16.82-5,16.82-20.36v-18c0-19.18-6.2-25.08-21-25.08Z"/></svg>