<svg id="Layer_1" data-name="Layer 1" xmlns="http://www.w3.org/2000/svg" width="195" height="123" viewBox="0 0 195 123"><defs><style>.cls-1{fill:#4c5a7f;}.cls-2{fill:#f6adb3;}</style></defs><rect class="cls-1" x="-1" y="-1" width="196" height="125"/><path class="cls-2" d="M37.08,37.86A7.25,7.25,0,0,1,38,41.53V44A7.14,7.14,0,0,1,36,49.22a7,7,0,0,1-5.22,2H23.17V21h7.24a7,7,0,0,1,5.22,2,7.15,7.15,0,0,1,1.94,5.24v1.6a6.1,6.1,0,0,1-3.06,5.78A5.56,5.56,0,0,1,37.08,37.86ZM27.74,25.31v8.2h2a3.31,3.31,0,0,0,2.43-.8,3.28,3.28,0,0,0,.8-2.44V28.12a2.56,2.56,0,0,0-2.8-2.81Zm5.65,15.74a3.31,3.31,0,0,0-.8-2.43,3.27,3.27,0,0,0-2.43-.8H27.74v9h2.85a2.54,2.54,0,0,0,2.8-2.8Z"/><path class="cls-2" d="M42.1,21h13v4.31H46.67v8.41h6.68V38H46.67v8.84h8.41v4.31h-13Z"/><path class="cls-2" d="M69.17,51.18,65.85,38.72H63.48V51.18H58.91V21h7.16a7.06,7.06,0,0,1,5.22,2,7.15,7.15,0,0,1,1.94,5.24v3.32a8,8,0,0,1-.82,3.67,6.24,6.24,0,0,1-2.33,2.5l3.84,13.49ZM63.48,34.41h2.37a2.56,2.56,0,0,0,2.81-2.8V28.12a2.57,2.57,0,0,0-2.81-2.81H63.48Z"/><path class="cls-2" d="M76.11,21H90.69v4.31h-5V51.18H81.12V25.31h-5Z"/><path class="cls-2" d="M94.22,21h4.57V51.18H94.22Z"/><path class="cls-2" d="M103.79,21h4.57V46.87h8.15v4.31H103.79Z"/><path class="cls-2" d="M25.67,99.17a6.67,6.67,0,0,1-2.61-2.63,7.9,7.9,0,0,1-.92-3.84V91.62l4.39-.47v1.12a4,4,0,0,0,.78,2.59,2.64,2.64,0,0,0,2.16.94A2.9,2.9,0,0,0,31.6,95a2.82,2.82,0,0,0,.8-2.11,5.2,5.2,0,0,0-.84-2.81,22.63,22.63,0,0,0-3.34-3.7,26.44,26.44,0,0,1-4.6-5.31,9.08,9.08,0,0,1-1.22-4.61,7.64,7.64,0,0,1,1.85-5.41,6.57,6.57,0,0,1,5.09-2,6.54,6.54,0,0,1,5.08,2,7.71,7.71,0,0,1,1.86,5.43v.78l-4.4.47v-.86a4.42,4.42,0,0,0-.65-2.63,2.14,2.14,0,0,0-1.85-.9,2.32,2.32,0,0,0-1.85.73,3.12,3.12,0,0,0-.65,2.15A5,5,0,0,0,27.74,79a27.12,27.12,0,0,0,3.32,3.77,32.25,32.25,0,0,1,4.59,5.41,8.61,8.61,0,0,1,1.23,4.51A7.8,7.8,0,0,1,36,96.54a6.58,6.58,0,0,1-2.6,2.63,8.24,8.24,0,0,1-7.68,0Z"/><path class="cls-2" d="M40.76,69.51h13v4.31H45.33v8.4H52v4.32H45.33v8.83h8.41v4.31h-13Z"/><path class="cls-2" d="M67.84,99.68,64.52,87.22H62.15V99.68H57.58V69.51h7.15a7,7,0,0,1,5.22,2,7.12,7.12,0,0,1,1.94,5.24V80a7.87,7.87,0,0,1-.82,3.67,6.11,6.11,0,0,1-2.33,2.5l3.84,13.49ZM62.15,82.91h2.37a2.8,2.8,0,0,0,2.07-.73,2.84,2.84,0,0,0,.73-2.07V76.62a2.84,2.84,0,0,0-.73-2.07,2.8,2.8,0,0,0-2.07-.73H62.15Z"/><path class="cls-2" d="M90.9,69.51l-5,30.17H79.78l-5-30.17h4.65l3.45,23.71,3.45-23.71Z"/><path class="cls-2" d="M94.44,69.51h13v4.31H99v8.4h6.68v4.32H99v8.83h8.4v4.31h-13Z"/><path class="cls-2" d="M120.69,93h-4.91l-1,6.68h-4.57l5-30.17h6.12l5,30.17h-4.66Zm-.6-4.4L118.24,76,116.38,88.6Z"/><path class="cls-2" d="M131.51,98.15a6.86,6.86,0,0,1-2-5.11V69.51h4.57V93a2.8,2.8,0,0,0,.71,2,2.67,2.67,0,0,0,3.67,0,2.8,2.8,0,0,0,.71-2V69.51h4.48V93a6.91,6.91,0,0,1-1.94,5.11,6.83,6.83,0,0,1-5.08,2A7,7,0,0,1,131.51,98.15Z"/><path class="cls-2" d="M148.8,95.16h4.57v4.52H148.8Z"/></svg>