<svg xmlns="http://www.w3.org/2000/svg" width="105" height="185" viewBox="0 0 105 185"><defs><style>.cls-1{fill:#f1cc5a;}.cls-2{fill:#b3b3b2;}.cls-3{fill:#a4a1a3;}.cls-4{fill:#eec221;}.cls-5{fill:#a7a2a2;}.cls-6{fill:#d0ced0;}.cls-7{fill:#2c2e33;}.cls-8{fill:#919191;}.cls-9{fill:#acaca0;}.cls-10{fill:#f0edf0;}.cls-11{fill:#fde08c;}.cls-12{fill:#a8d8ee;}.cls-13{fill:#371e4c;}.cls-14{fill:#5a5656;}.cls-15{fill:#fbfaf9;}.cls-16{fill:#f8b133;}.cls-17{fill:#616160;}.cls-18{fill:#fff;}</style></defs><g id="Layer_3" data-name="Layer 3"><path class="cls-1" d="M103.21,49.82V153.54A29.48,29.48,0,0,1,73.73,183H31.48A29.44,29.44,0,0,1,2,153.54V49.82c0-.59,0-1.18.06-1.76v0A29,29,0,0,1,5.22,36.44a29.52,29.52,0,0,1,9-10.49h0a15.38,15.38,0,0,0,1.23,1c.22.17.45.34.7.5l.73.49.77.47.81.46c.56.32,1.14.62,1.75.91.3.15.62.29.93.43.64.27,1.29.55,2,.82s1.38.52,2.1.76,1.47.49,2.23.72l1.17.34c.44.13.9.24,1.35.36s.91.23,1.39.33c1.86.44,3.83.84,5.87,1.16l1.55.23,1.16.17,1.13.13,1.72.2,1.3.13c2,.17,4.11.3,6.25.36.44,0,.89,0,1.34,0l2.16,0c16.79,0,31.34-3.7,38.45-9.09a29.46,29.46,0,0,1,10.89,21.43C103.2,48.82,103.21,49.32,103.21,49.82Z"/><path class="cls-2" d="M95.91,23A10.86,10.86,0,0,1,95,24.36l-.27-.31A6.94,6.94,0,0,0,95.91,23Z"/><path class="cls-3" d="M39,31.72l-.15-.25c-9.81-2-15.92-4.8-15.48-7.85s1.52-7.85,6.53-8.72c0,0-.37,0-1,0h0a31.69,31.69,0,0,0-3.85.28h0c-2.5.32-5.29,1-6.67,2.52a36.19,36.19,0,0,1-2.66,2.46l0,0a10.5,10.5,0,0,0-1.41,1.43,3.79,3.79,0,0,0-.65,1.22h0c0,.06,0,.12,0,.19h0a.36.36,0,0,0,0,.1s0,0,0,0A4.15,4.15,0,0,0,14.19,26a5.42,5.42,0,0,0,2.31,1.76C23,31,40.18,33.64,40.18,33.64Z"/><path class="cls-4" d="M103.21,48.31V58.79a58.48,58.48,0,0,1-7.37,3c-8.1,2.78-22.65,6.5-42.52,6.5V63S13.9,60.13,2,51.09a1.53,1.53,0,0,1-.22-.16s.1-1.38.28-2.87v0a12.8,12.8,0,0,1,.71-3.31S16,56.17,53.48,56.17c18,0,30.15-1.81,37.94-3.69s11.31-3.88,11.74-4.14Z"/><path class="cls-5" d="M96.92,19.43a6.93,6.93,0,0,1-.69,3C96.08,21.56,78.81,7.31,37.34,13c0,0-17.45,1-21,5.67a31,31,0,0,0-2,2.94c-.28.48-.49.88-.65,1.22h0c-.06.13-.1.26-.16.36h0c-.36.95-.21,1.24-.21,1.24a3.79,3.79,0,0,1,.3-1.3s0,0,0,0,.07-.15.12-.23a7.33,7.33,0,0,1,1.6-2.22c2-2,5.89-4.31,13.67-5.82h0q2.67-.52,6-.89c21.92-2.4,41.55.44,47.33,2.19s13,6.31,12.43,7.84A120.32,120.32,0,0,1,39,31.72C23.61,30.13,14.19,26,14.19,26a14,14,0,0,1-1.48-1.52,7.83,7.83,0,0,1-2-5C10.7,10.29,30,2.87,53.82,2.87S96.92,10.29,96.92,19.43Z"/><path class="cls-4" d="M103.21,48.31V89.48c-.2-2.7-3.82-16.55-7.37-27.7-.45-1.44-.91-2.83-1.36-4.14a15.71,15.71,0,0,0-3.06-5.16C83.88,43.6,66.24,37.33,53.82,36l23.67-6.69,0,0,12.18-3.44h.06L95,24.36a15.1,15.1,0,0,1-2.7,2.55,29.46,29.46,0,0,1,10.89,21.43Z"/><path class="cls-6" d="M28.13,15.15c2.27-.23-14.07,6.29-12.07,8.68a15.73,15.73,0,0,1,2.49,3.69L14.19,26l-.65-2.76s-.57-1.27,2.17-3S25.14,15.45,28.13,15.15Z"/><path class="cls-7" d="M96.23,22.39v0h0c-.09.18-.18.34-.29.53,0,0,0,0,0,0a2.62,2.62,0,0,1-.22.25,8.24,8.24,0,0,1-1,.82c.55-1.53-6.65-6.11-12.43-7.84S56.86,11.62,34.94,14q-3.33.36-6,.89h0c-7.78,1.51-11.69,3.83-13.67,5.82A7.33,7.33,0,0,0,13.66,23c-.05.08-.08.16-.12.23s0,0,0,0a3.79,3.79,0,0,0-.3,1.3s-.15-.29.21-1.24h0c.06-.1.1-.23.16-.36h0c.16-.34.37-.74.65-1.22a31,31,0,0,1,2-2.94c3.59-4.69,21-5.67,21-5.67C78.81,7.31,96.08,21.56,96.23,22.39Z"/><path class="cls-8" d="M96.23,22.39v0h0a1.34,1.34,0,0,1-.29.53s0,0,0,0a2.62,2.62,0,0,1-.22.25,8.24,8.24,0,0,1-1,.82c.55-1.53-6.65-6.11-12.43-7.84S56.86,11.62,34.94,14q-3.33.36-6,.89h0c-7.78,1.51-11.69,3.83-13.67,5.82A7.33,7.33,0,0,0,13.66,23c-.05.08-.08.16-.12.23s0,0,0,0a3.79,3.79,0,0,0-.3,1.3s-.15-.29.21-1.24h0c.06-.1.1-.23.16-.36h0c.16-.34.37-.74.65-1.22a31,31,0,0,1,2-2.94c3.59-4.69,21-5.67,21-5.67C78.81,7.31,96.08,21.56,96.23,22.39Z"/><path class="cls-9" d="M95,24.36a15.1,15.1,0,0,1-2.7,2.55C85.16,32.3,70.61,36,53.82,36l-2.16,0-1.34,0c-2.14-.06-4.22-.19-6.25-.36l-1.3-.13-1.72-.2-1.13-.13L38.76,35l-1.55-.23c-2-.32-4-.72-5.87-1.16-.47-.1-.93-.22-1.39-.33S29,33,28.6,32.87l-1.17-.34c-.76-.23-1.5-.46-2.23-.72s-1.43-.49-2.1-.76-1.33-.55-2-.82c-.31-.14-.63-.28-.93-.43-.61-.29-1.19-.59-1.75-.91l-.81-.46L16.87,28l-.73-.49c-.25-.16-.48-.33-.7-.5a15.38,15.38,0,0,1-1.23-1A66.8,66.8,0,0,0,23,28.85l1.16.29c1.36.34,2.86.68,4.47,1l1.16.23,1.4.25c.75.14,1.53.27,2.33.38l1.32.2,1.35.19c.92.12,1.86.23,2.82.32s1.83.19,2.78.26c2.22.17,4.55.29,7,.33l2.06,0A119.55,119.55,0,0,0,77,29.43l.58-.14.84-.19c3.68-.87,7.47-1.94,11.34-3.25h.06c1.63-.56,3.28-1.15,4.93-1.79Z"/><path class="cls-6" d="M96.92,18.56a7,7,0,0,1-.69,3h0a1.31,1.31,0,0,1-.29.54s0,0,0,0l-.22.25a20.42,20.42,0,0,0-3-2.89c-3.16-2.64-9.81-4.25-19.18-6.55s-10.26-1.85-27.27-1.29a95,95,0,0,0-21.2,2.68,0,0,0,0,0,0,0,28.47,28.47,0,0,0-6.67,2.52,11.09,11.09,0,0,0-2.66,2.46l0,0-.41.51c-.59.76-1.14,1.53-1.6,2.23a1.09,1.09,0,0,1-.1.11v0a.76.76,0,0,1-.11.16h0c-.29.44-.55.84-.74,1.18a7.83,7.83,0,0,1-2-5C10.7,9.41,30,2,53.82,2S96.92,9.41,96.92,18.56Z"/><path class="cls-10" d="M100.63,165.58A29.47,29.47,0,0,1,73.73,183H31.48A29.48,29.48,0,0,1,3.69,163.36C21.91,176,74.24,179.11,100.63,165.58Z"/><path class="cls-11" d="M29.05,33S18.59,78.36,20.33,170c0,0,5.24,2.61,14.4,3.49S32.23,40.68,39.5,34.9Z"/><path class="cls-10" d="M16.84,35c-4.36,2.18-4.36,2.83-6.11,7.63A97.1,97.1,0,0,0,7,58.29c-.22,2.18,3.05-.43,3.27-2.18s-.22-3.92.65-7.19,3.06-7,3.93-9.16S16.84,35,16.84,35Z"/><path class="cls-10" d="M7.25,64.62c-.44,1.74-2.19,3.92-.22,3.49s1.52-.87,2.18-2.4S7.25,64.62,7.25,64.62Z"/><path class="cls-10" d="M73.76,6c12,3.27,18.11,6.33,19,8.29"/><path class="cls-10" d="M89.33,76.91c-1.22-26.72.18,60.46.18,60.46a23.49,23.49,0,0,0,1.48-6.2C91,128.84,90.81,109.47,89.33,76.91Z"/><path class="cls-12" d="M84.25,93c0,.48,0,1,0,1.44-.36-10.75-6.08-19.3-13.08-19.3S58.47,83.59,58.08,94.3c0-.44,0-.88,0-1.33,0-12.65,5.86-22.9,13.1-22.9S84.25,80.32,84.25,93Z"/><path class="cls-10" d="M84.23,94.41s0,0,0,0c-.44,12-6.11,21.41-13,21.43h0c-7,0-12.68-9.55-13.07-21.57.39-10.71,6.09-19.19,13.07-19.19S83.87,83.66,84.23,94.41Z"/><path class="cls-10" d="M84.24,95.49c0,11.23-5.84,20.35-13.06,20.38h0c-7.23,0-13.09-9.13-13.09-20.38,0-.39,0-.8,0-1.19.39-10.71,6.09-19.19,13.07-19.19s12.72,8.55,13.08,19.3c0,0,0,0,0,0C84.24,94.78,84.24,95.14,84.24,95.49Z"/><path class="cls-12" d="M43.45,93c0,.48,0,1,0,1.44-.36-10.75-6.09-19.3-13.08-19.3S17.67,83.59,17.28,94.3c0-.44,0-.88,0-1.33,0-12.65,5.87-22.9,13.11-22.9S43.45,80.32,43.45,93Z"/><path class="cls-10" d="M43.44,95.49c0,11.23-5.84,20.35-13.06,20.38h0c-7.23,0-13.1-9.13-13.1-20.38,0-.39,0-.8,0-1.19.39-10.71,6.09-19.19,13.07-19.19s12.72,8.55,13.08,19.3c0,0,0,0,0,0C43.44,94.78,43.44,95.14,43.44,95.49Z"/><circle class="cls-12" cx="71.47" cy="97.74" r="5.96"/><circle class="cls-13" cx="71.45" cy="97.73" r="4.42"/><circle class="cls-12" cx="29.93" cy="96.81" r="5.96"/><circle class="cls-13" cx="29.96" cy="96.92" r="4.42"/><polygon class="cls-10" points="74.04 103.47 72.35 98.83 76.27 102.76 74.04 103.47"/><polygon class="cls-10" points="75.88 101.01 73.46 99.62 76.27 100.04 75.88 101.01"/><polygon class="cls-10" points="24.53 100.25 27.91 99.27 25.13 101.18 24.53 100.25"/><polygon class="cls-10" points="28.02 100.19 27.04 101.18 27.86 101.18 28.02 100.19"/><path class="cls-14" d="M48.58,24.24c-.65-1.73-4.29-4.35-8.77-4S27,19.47,26,20.31s-2.43,1.84-2.61,2.51,1.12,2.51,2.42,2.93,3.73,2.85,8.39,2.09a79.58,79.58,0,0,1,9.51-1C47.27,26.59,48.76,24.75,48.58,24.24Z"/><path class="cls-15" d="M75,11.47a1.58,1.58,0,0,0-.91-.83L69.9,9.27a1.44,1.44,0,0,0-1,0l-6.86,2.46a1.44,1.44,0,0,0-.59.4l-1.83,2a1.54,1.54,0,0,1-1.06.48l-.47,0a1.27,1.27,0,0,0-.52.11l-9.05,3.69a1.54,1.54,0,0,0-.89,1L47,22a1.55,1.55,0,0,0,0,.93l.86,2.29a1.49,1.49,0,0,0,1,.93l1.45.39a1.5,1.5,0,0,0,.89,0l9.62-3.34.25-.12.76-.42a1.25,1.25,0,0,1,.59-.19l2.86-.3a1.53,1.53,0,0,0,.37-.08l7.22-2.7a1.44,1.44,0,0,0,.48-.28L76,16.71a1.49,1.49,0,0,0,.46-1.49l-.21-.9v-.06ZM55.34,22.88c-2,.74-4,.41-4.4-.73s.86-2.68,2.87-3.42,4-.41,4.41.73S57.36,22.14,55.34,22.88ZM68,20c-3.45,1.27-6.83.71-7.55-1.24s1.51-4.56,5-5.83,6.83-.72,7.56,1.22S71.41,18.72,68,20Z"/><path class="cls-16" d="M20.22,127.26s9.59,18.37,24.83,20.2,22.74-5.75,26.09-9.3,8-10.41,8-11.39Z"/><path class="cls-17" d="M75.72,129.39c-27.36,36.8-52.12,0-52.12,0Z"/><path class="cls-10" d="M49.45,129.39V135h16.9v-5.61Z"/><path class="cls-10" d="M48.47,129.36v8.48h-14v-7.69c.23-.26.48-.53.74-.79Z"/><path class="cls-18" d="M50.17,53.28,49,54.52a5.5,5.5,0,0,1,1.26,1.7,4.55,4.55,0,0,1,.44,2.17,5.92,5.92,0,0,1-.45,2.17,5.41,5.41,0,0,1-1.12,1.7,5.21,5.21,0,0,1-1.65,1.11,4.93,4.93,0,0,1-2,.36,6.16,6.16,0,0,1-2-.39,5,5,0,0,1-1.69-1.06l-1.34,1.45L40,63.38l1.38-1.49a5.33,5.33,0,0,1-.86-1.49,4.54,4.54,0,0,1-.3-1.81,5.76,5.76,0,0,1,.47-2.15,5.91,5.91,0,0,1,1.17-1.74,5.52,5.52,0,0,1,1.68-1.15,4.58,4.58,0,0,1,2-.39,5.58,5.58,0,0,1,1.64.27,4.66,4.66,0,0,1,1.45.75L49.73,53ZM42.1,58.57a6.13,6.13,0,0,0,.07,1.14,7,7,0,0,0,.23,1l5.46-5.82a3.06,3.06,0,0,0-1-.93,2.89,2.89,0,0,0-1.43-.37,2.36,2.36,0,0,0-1.51.42,3.34,3.34,0,0,0-1,1.15,6.08,6.08,0,0,0-.59,1.6A10.56,10.56,0,0,0,42.1,58.57Zm3.42,4.68A2.39,2.39,0,0,0,47,62.86a3.33,3.33,0,0,0,1-1.11,5.46,5.46,0,0,0,.56-1.55,9.27,9.27,0,0,0,.2-1.73,7.12,7.12,0,0,0-.13-1.59,5.76,5.76,0,0,0-.48-1.47L42.6,61.32a3,3,0,0,0,2.92,1.93Z"/><path class="cls-18" d="M53.52,55.71a5.12,5.12,0,0,0-.1-.79,1.24,1.24,0,0,0-.24-.53.83.83,0,0,0-.44-.3A2.23,2.23,0,0,0,52,54a.14.14,0,0,1-.14-.08.27.27,0,0,1-.06-.17.35.35,0,0,1,0-.17.13.13,0,0,1,.13-.08c.32,0,.68,0,1.1,0s.8,0,1.16,0a5.2,5.2,0,0,0,.59-.05l.54-.06.53-.06.59-.05a.14.14,0,0,1,.13.07.33.33,0,0,1,0,.17.47.47,0,0,1,0,.17.14.14,0,0,1-.12.09,3.26,3.26,0,0,0-.74.17.89.89,0,0,0-.42.33,1.19,1.19,0,0,0-.17.54,8.32,8.32,0,0,0,0,.85l.29,5.23a6.65,6.65,0,0,0,.09.8,1.56,1.56,0,0,0,.2.54.81.81,0,0,0,.35.31,2,2,0,0,0,.54.19l.47,0h.55l.68-.07a1.84,1.84,0,0,0,.48-.12,3.32,3.32,0,0,0,.5-.25,1.14,1.14,0,0,0,.35-.34,1.43,1.43,0,0,0,.22-.5,3.46,3.46,0,0,0,.12-.76.14.14,0,0,1,.1-.12.41.41,0,0,1,.19,0,.31.31,0,0,1,.19,0,.12.12,0,0,1,.08.12c0,.42-.05.82-.07,1.19a7,7,0,0,0,0,1.12.28.28,0,0,1-.06.13c0,.06-.13.09-.28.1l-5.46.31c-.39,0-.76,0-1.12.1l-1.07.13a.19.19,0,0,1-.16-.07.25.25,0,0,1-.06-.16.39.39,0,0,1,0-.18.21.21,0,0,1,.15-.1c.31-.06.56-.12.75-.17a.93.93,0,0,0,.42-.24.68.68,0,0,0,.18-.43,3.86,3.86,0,0,0,0-.78l-.33-5.89Z"/><path class="cls-18" d="M78.52,160.34a1,1,0,0,1-.31-.67.67.67,0,0,1,.22-.51A.84.84,0,0,1,79,159a1.35,1.35,0,0,1,.38.05,3.17,3.17,0,0,0,1.79.6,1.92,1.92,0,0,0,.75-.14,2.18,2.18,0,0,0,.63-.4,2,2,0,0,0,.44-.62,2.09,2.09,0,0,0,.15-.81,1.31,1.31,0,0,0-.2-.76,1.62,1.62,0,0,0-.5-.51,2.48,2.48,0,0,0-.65-.27,2.56,2.56,0,0,0-.65-.08,3.69,3.69,0,0,0-1.06.16l-.09.07a.68.68,0,0,0-.12.12l-.2.17a.64.64,0,0,1-.36.08.92.92,0,0,1-.56-.19.89.89,0,0,1-.29-.63c0-.29,0-.58,0-.85s0-.57,0-.86l0-1.69a.72.72,0,0,1-.25-.53.86.86,0,0,1,.23-.55.9.9,0,0,1,.69-.26h.86l.69,0h3a1,1,0,0,1,.57.31.69.69,0,0,1,.18.46.67.67,0,0,1-.2.47,1.22,1.22,0,0,1-.6.31l-.93,0H80.91a8.09,8.09,0,0,0-.83,0l.07,2a2.45,2.45,0,0,1,.53-.09,4.93,4.93,0,0,1,.55,0,3.9,3.9,0,0,1,1.53.28,3.56,3.56,0,0,1,1.14.74,3.3,3.3,0,0,1,.73,1.06,3.06,3.06,0,0,1,.25,1.22,3,3,0,0,1-.27,1.21,3.84,3.84,0,0,1-.75,1.1,3.77,3.77,0,0,1-1.15.8,3.44,3.44,0,0,1-1.48.31,4.53,4.53,0,0,1-1.42-.22A5.64,5.64,0,0,1,78.52,160.34Z"/><path class="cls-18" d="M86.55,152.23a2.73,2.73,0,0,1,.27-1.08,2.46,2.46,0,0,1,.59-.75,2.16,2.16,0,0,1,.8-.44,2.82,2.82,0,0,1,.9-.14A2.91,2.91,0,0,1,90,150a2.48,2.48,0,0,1,.81.45,2.21,2.21,0,0,1,.8,1.75,2.37,2.37,0,0,1-.23,1,2.82,2.82,0,0,1-.59.81,2.62,2.62,0,0,1-1.81.71,2.38,2.38,0,0,1-.86-.16,2.53,2.53,0,0,1-1.34-1.27A3,3,0,0,1,86.55,152.23ZM95,149.78a.93.93,0,0,1,.64-.23.76.76,0,0,1,.54.2.64.64,0,0,1,.23.5.78.78,0,0,1,0,.16.58.58,0,0,1-.05.16l-3.59,5.17-3.85,5.5a.74.74,0,0,1-.35.27,1.4,1.4,0,0,1-.37.07.85.85,0,0,1-.54-.19.59.59,0,0,1-.23-.5,1,1,0,0,1,0-.24,1,1,0,0,1,.12-.26c.67-.94,1.31-1.84,1.91-2.71s1.2-1.74,1.8-2.59l1.81-2.58L95,149.8Zm-5.92,1.47a.62.62,0,0,0-.34.1.76.76,0,0,0-.24.23,1.2,1.2,0,0,0-.16.32,2.46,2.46,0,0,0-.09.34,1.09,1.09,0,0,0,.31.75.89.89,0,0,0,.61.24.84.84,0,0,0,.59-.25,1,1,0,0,0,.28-.75,1,1,0,0,0-1-1ZM92.31,159a2.62,2.62,0,0,1,.26-1.05,2.32,2.32,0,0,1,.57-.73,2.46,2.46,0,0,1,.79-.44,3,3,0,0,1,.89-.14,2.73,2.73,0,0,1,.89.15,2.65,2.65,0,0,1,.81.44,2.36,2.36,0,0,1,.57.72,2.14,2.14,0,0,1,.22,1A2.52,2.52,0,0,1,97.1,160a2.3,2.3,0,0,1-.56.79,2.35,2.35,0,0,1-.81.48,2.58,2.58,0,0,1-1,.17,2.41,2.41,0,0,1-.83-.14,2.37,2.37,0,0,1-.77-.44,2.5,2.5,0,0,1-.59-.76A3,3,0,0,1,92.31,159Zm2.51-.89a.65.65,0,0,0-.61.29,1.53,1.53,0,0,0-.23.6,1.12,1.12,0,0,0,.3.73.8.8,0,0,0,1.14,0,.94.94,0,0,0,.27-.73.8.8,0,0,0-.27-.65A.88.88,0,0,0,94.82,158.11Z"/></g></svg>