<svg xmlns="http://www.w3.org/2000/svg" width="1920" height="1080" viewBox="0 0 1920 1080"><defs><style>.cls-1{fill:#676aae;}.cls-15,.cls-16,.cls-2{fill:#8b9ace;}.cls-3{fill:#7c8dbc;}.cls-4{fill:#7a9fd3;}.cls-5{fill:#91cef1;}.cls-6,.cls-8{fill:none;stroke-miterlimit:10;}.cls-6{stroke:#676aae;}.cls-7{fill:#93d0e9;}.cls-8{stroke:#e56f6a;}.cls-9{fill:#abddf8;opacity:0.41;}.cls-10,.cls-26{fill:#f1cc5a;}.cls-10{opacity:0.37;}.cls-11{fill:#b5b1d9;}.cls-12{fill:#7a73b3;}.cls-13{fill:#a3a2cb;}.cls-14{fill:#abdcf4;}.cls-15{opacity:0.31;}.cls-16{opacity:0.26;}.cls-17{fill:#b3b3b2;}.cls-18{fill:#a4a1a3;}.cls-19{fill:#d0ced0;}.cls-20{fill:#2c2e33;}.cls-21{fill:#919191;}.cls-22{fill:#f0edf0;}.cls-23{fill:#5a5656;}.cls-24{fill:#fbfaf9;}.cls-25{fill:#fff;}.cls-26{opacity:0.1;}.cls-27{fill:#2a3a4a;}</style></defs><g id="Baggrund"><path class="cls-1" d="M993.57,944.67c0,3,0,11.93,0,17.34H947.27a24.57,24.57,0,0,1-.15-4.43c0-.49.07-17.33.07-21.59s.26-6.15.63-12.13,4.67-15.78,4.67-15.78a150.44,150.44,0,0,0,4.73-16.22,58.66,58.66,0,0,0,.23-8.31c0-.55,0-.88,0-.88-.13-2.77-.51-2.82-.95-3.66s0-1.89.07-2.72.5-4.64.68-6.69a2.1,2.1,0,0,1,2.15-2h2l1.39,0,1.53,0h2.28a2.3,2.3,0,0,1,2.39,2c.22,2.05.71,5.87.78,6.71s.56,1.88.07,2.71-.91.88-1,3.65c0,0-.28,6.86.2,9.19.24,1.11,1,3.8,2,6.81.13-2.14.08-5.08,0-6.53,0-.55,0-.89,0-.89-.12-2.77-.51-2.82-1-3.66s0-1.88.07-2.71.5-4.65.69-6.7a2.1,2.1,0,0,1,2.15-2h1.95l1.39,0,1.54,0H980a2.29,2.29,0,0,1,2.39,2c.21,2,.7,5.87.77,6.7s.56,1.88.07,2.71-.91.88-1.05,3.66c0,0-.28,6.86.21,9.19a138.93,138.93,0,0,0,5.28,16.22s4.78,9.8,5.2,15.78S993.57,940.42,993.57,944.67Z"/><path class="cls-1" d="M1094.89,960.67h6.91V962h-8C1094.17,961.57,1094.53,961.13,1094.89,960.67Z"/><polygon class="cls-1" points="283.41 962.01 292.81 961.98 292.81 962.01 283.41 962.01"/><path class="cls-1" d="M1723.05,53.32V962h-55V298.65h-345L1262,324.26v475.9h-21.57c-5.61-7.81-34.28-13.75-68.8-13.75s-63.2,5.94-68.81,13.75H645.37v-431H292.81v431H205.7l-2,1.75V53.32Z"/><path class="cls-1" d="M1101.8,803c-5.12,18.48-6.86,41.42-2.54,54.85a16.34,16.34,0,0,0,2.54,5.19v97.67h-6.91c-.36.46-.72.9-1.09,1.34H993.62c0-5.41,0-14.38,0-17.34,0-4.25-.28-6.14-.7-12.12s-5.2-15.78-5.2-15.78a138.93,138.93,0,0,1-5.28-16.22c-.49-2.33-.21-9.19-.21-9.19.14-2.78.56-2.83,1.05-3.66s0-1.88-.07-2.71-.56-4.66-.77-6.7a2.29,2.29,0,0,0-2.39-2h-2.28l-1.54,0-1.39,0h-1.95a2.1,2.1,0,0,0-2.15,2c-.19,2-.63,5.87-.69,6.7s-.5,1.88-.07,2.71.83.89,1,3.66c0,0,0,.34,0,.89,0,1.45.09,4.39,0,6.53-.94-3-1.71-5.7-2-6.81-.48-2.33-.2-9.19-.2-9.19.14-2.77.56-2.82,1-3.65s0-1.89-.07-2.71-.56-4.66-.78-6.71a2.3,2.3,0,0,0-2.39-2h-2.28l-1.53,0-1.39,0h-2a2.1,2.1,0,0,0-2.15,2c-.18,2-.63,5.87-.68,6.69s-.51,1.89-.07,2.72.82.89.95,3.66c0,0,0,.33,0,.88a58.66,58.66,0,0,1-.23,8.31,150.44,150.44,0,0,1-4.73,16.22s-4.29,9.8-4.67,15.78-.63,7.86-.63,12.13-.07,21.1-.07,21.59a24.57,24.57,0,0,0,.15,4.43H645.37V800.16H1102.8A4.75,4.75,0,0,0,1101.8,803Z"/><path class="cls-1" d="M1241.41,962V803a4.75,4.75,0,0,0-1-2.8H1262V960.43l1.58,1.58Z"/><polygon class="cls-1" points="292.81 800.16 292.81 961.98 283.41 962.01 203.7 962.01 203.7 801.91 205.7 800.16 292.81 800.16"/><path class="cls-2" d="M1923.18,962.55v124.21H3.07V977.55l5.09-4.45,0,0L88.23,903l57.83-50.65,57.64-50.45V962h79.71l9.4,0V800.16H645.37V962h301.9a24.57,24.57,0,0,1-.15-4.43c0-.49.07-17.33.07-21.59s.26-6.15.63-12.13,4.67-15.78,4.67-15.78a150.44,150.44,0,0,0,4.73-16.22,58.66,58.66,0,0,0,.23-8.31c0-.55,0-.88,0-.88-.13-2.77-.51-2.82-.95-3.66s0-1.89.07-2.72.5-4.64.68-6.69a2.1,2.1,0,0,1,2.15-2h2l1.39,0,1.53,0h2.28a2.3,2.3,0,0,1,2.39,2c.22,2.05.71,5.87.78,6.71s.56,1.88.07,2.71-.91.88-1,3.65c0,0-.28,6.86.2,9.19.24,1.11,1,3.8,2,6.81.13-2.14.08-5.08,0-6.53,0-.55,0-.89,0-.89-.12-2.77-.51-2.82-1-3.66s0-1.88.07-2.71.5-4.65.69-6.7a2.1,2.1,0,0,1,2.15-2h1.95l1.39,0,1.54,0H980a2.29,2.29,0,0,1,2.39,2c.21,2,.7,5.87.77,6.7s.56,1.88.07,2.71-.91.88-1.05,3.66c0,0-.28,6.86.21,9.19q0,.23.12.51c0,.1,0,.21.08.32.46,1.83,1.48,5.25,2.61,8.62.2.63.41,1.25.62,1.86.09.24.17.48.25.72.15.4.28.79.42,1.17l.28.75c.31.83.61,1.6.9,2.27,0,0,4.78,9.8,5.2,15.78s.7,7.87.7,12.12c0,3,0,11.93,0,17.34H1093.8c.37-.44.73-.88,1.09-1.34h6.91V863a16.34,16.34,0,0,1-2.54-5.19c-1.69-5.25-2.45-11.95-2.45-19.27,0-.8,0-1.61,0-2.42q0-1,.06-2c0-.41,0-.83.06-1.25s0-1.11.09-1.68l0-.35c0-.67.09-1.34.15-2,0-.21,0-.43,0-.65,0-.49.08-1,.14-1.47s.08-.86.13-1.3c.1-1,.22-1.94.34-2.92.17-1.29.35-2.58.55-3.87l.06-.41c.32-2,.67-3.92,1.06-5.86.13-.64.26-1.28.4-1.92q.13-.68.3-1.35c.14-.62.28-1.24.43-1.86l.36-1.46c.24-1,.49-1.91.75-2.84,0-.12,0-.24,0-.36a.89.89,0,0,1,0-.22.49.49,0,0,1,0-.12v0a3.2,3.2,0,0,1,.1-.42l.06-.18a.19.19,0,0,1,0-.07,2.33,2.33,0,0,1,.11-.28l.08-.16a.34.34,0,0,1,.06-.12.84.84,0,0,1,.06-.14h0s0,0,0-.05a2.38,2.38,0,0,1,.18-.3l.23-.34h137.61l.23.34a2.38,2.38,0,0,1,.18.3s0,0,0,.05h0a.54.54,0,0,1,.05.11c0,.08.08.16.12.24a1.34,1.34,0,0,1,.07.18,1.17,1.17,0,0,1,.09.24,3.45,3.45,0,0,1,.12.43.85.85,0,0,1,0,.17v0a.49.49,0,0,1,0,.12.89.89,0,0,1,0,.22c0,.12,0,.24,0,.36V962h22.14l-1.57-1.58V800.16h463.07l13,10.62,50.72,41.58,132.45,108.56Z"/><path class="cls-3" d="M1736,972.64c-18.16,8-41,17.15-67.92,26.14a847.47,847.47,0,0,1-82.79,23.1q-18.25,4.13-37.83,7.64-12.51,2.22-25.54,4.14c-101.74,14.88-163.63,9.84-246.61,3.32-28.32-2.24-59.1-4.64-94.76-6.48-22.45-1.16-46.84-2.09-73.76-2.63-48.81-1-83.47-2.3-111.18-3.36h0c-72.82-2.77-97.68-3.66-205.33,8.87-15,1.75-31.7,3.76-50.34,6.07-38.27,4.74-90.5,13.81-150.06,25.41l-9.1,1.78-4.15.82c-30,5.92-61.66,12.43-94.21,19.3H61.23l25-21.89h0l57.82-50.64h0l27.83-24.37,24.86-21.76h0L203.7,962H1723.06Z"/><polygon class="cls-4" points="203.7 962.01 196.77 968.08 171.91 989.85 144.08 1014.22 144.07 1014.22 86.25 1064.86 86.24 1064.86 61.23 1086.76 58.76 1086.76 59.7 1085.94 81.45 1067.23 84.2 1064.86 92.51 1057.71 143.05 1014.22 196.73 968.01 203.7 962.01"/><rect class="cls-5" x="1323.13" y="298.65" width="344.97" height="723.23"/><path class="cls-4" d="M1241.41,803c0,9.15-31.25,16.55-69.8,16.55-1.35,0-2.7,0-4,0-2.06,0-4.07-.1-6.06-.14q-3.74-.14-7.35-.37c-1.83-.11-3.61-.25-5.37-.39l-3-.28-2.4-.23c-3.16-.32-6.2-.71-9.09-1.15-1.44-.2-2.86-.43-4.23-.69-.57-.09-1.17-.2-1.74-.32a100.08,100.08,0,0,1-15-3.84c-.5-.18-1-.36-1.44-.55s-1.15-.46-1.7-.69c0,0-.06,0-.11,0a29.39,29.39,0,0,1-2.81-1.41,8.48,8.48,0,0,1-1.12-.66,11.18,11.18,0,0,1-1.24-.85c-.32-.26-.64-.51-.92-.76l0,0a6,6,0,0,1-.66-.69,5.28,5.28,0,0,1-1.19-1.88,2.27,2.27,0,0,1-.21-.62.22.22,0,0,1,0-.12,3.12,3.12,0,0,1-.09-.8c0-9.15,31.25-16.55,69.8-16.55S1241.41,793.81,1241.41,803Z"/><path class="cls-5" d="M1241.41,803V993.82c0,4.42-12.51,8.32-31.5,10.6a328.89,328.89,0,0,1-38.3,2.07,334.3,334.3,0,0,1-36.49-1.87c-4.81-.54-9.26-1.18-13.2-1.91-12.42-2.3-20.1-5.4-20.1-8.89V803a3,3,0,0,0,.09.8s0,.09,0,.11a4,4,0,0,0,.21.64,5.35,5.35,0,0,0,1.18,1.87,8.28,8.28,0,0,0,.66.7l0,0a10.41,10.41,0,0,0,.91.75,10.17,10.17,0,0,0,1.23.85c.34.22.73.45,1.12.66a24.71,24.71,0,0,0,2.82,1.41.28.28,0,0,0,.12,0,15.1,15.1,0,0,0,1.68.69c.46.2.94.36,1.44.55a84.35,84.35,0,0,0,8.57,2.48c2,.5,4.15.94,6.41,1.37.57.11,1.16.23,1.73.32,1.37.25,2.8.48,4.24.68.27.05.55.09.82.12,2.64.38,5.4.7,8.25,1l2.42.23,3,.28c1.75.13,3.55.27,5.38.38,2.39.16,4.85.28,7.34.37,2,.07,4,.11,6.06.13,1.32,0,2.69,0,4,0C1210.16,819.51,1241.41,812.1,1241.41,803Z"/><polygon class="cls-4" points="645.37 369.2 645.37 962.01 626.29 962.01 626.12 961.66 626.11 961.66 626.11 961.65 626.38 961.65 626.38 385.27 306.63 385.27 306.63 961.65 308 961.65 307.99 961.66 307.7 961.93 307.61 962.01 292.81 962.01 292.81 369.2 645.37 369.2"/><polyline class="cls-6" points="1668.1 1014.22 1786.75 1014.22 1793.04 1014.22"/><polyline class="cls-6" points="1315.52 1014.22 1261.96 1014.22 1184.44 1014.22"/><line class="cls-6" x1="1010.86" y1="1014.22" x2="138.04" y2="1014.22"/><polyline class="cls-6" points="1082.36 1064.86 1026.74 1064.86 999.54 1064.86"/><polyline class="cls-6" points="81.82 1064.86 242.69 1064.86 947.56 1064.86"/><polyline class="cls-6" points="1177.24 1064.86 1291.72 1064.86 1847.31 1064.86"/><polyline class="cls-6" points="315.84 1086.76 323.4 1064.86 338.95 1019.82 340.88 1014.22 357.67 965.55"/><polyline class="cls-6" points="574.59 1086.76 575.9 1074.44 576.64 1067.46 576.92 1064.86 582.32 1014.22 587.63 964.24"/><polyline class="cls-6" points="789.19 961.65 789.19 962.01 789.19 962.02 789.99 1014.22 790.29 1033.38 790.77 1064.86 791.1 1086.76"/><polyline class="cls-6" points="1028.95 1086.76 1026.74 1064.86 1026.17 1059.25"/><line class="cls-6" x1="1020.77" y1="1005.64" x2="1016.58" y2="964.24"/><polyline class="cls-6" points="1241.41 979.28 1261.95 1014.22 1275.33 1036.98 1291.72 1064.86 1304.59 1086.76"/><line class="cls-6" x1="1231.25" y1="962.01" x2="1231.05" y2="961.64"/><polyline class="cls-6" points="1593.84 1086.76 1576.1 1064.86 1547.48 1029.52 1541.29 1021.88 1541.28 1021.87"/><path class="cls-1" d="M1571.55,510.71a71,71,0,1,1-58.25-70.25,70,70,0,0,1,9.84,2.55.1.1,0,0,1,.07,0,72.5,72.5,0,0,1,14.94,7.13,71.72,71.72,0,0,1,25.74,28.3,70.94,70.94,0,0,1,7.62,29.84C1571.53,509.1,1571.55,509.91,1571.55,510.71Z"/><polygon class="cls-5" points="626.39 961.65 626.11 961.65 626.3 962.02 308.01 961.65 306.63 961.65 306.63 385.27 626.39 385.27 626.39 961.65"/><polygon class="cls-7" points="626.39 961.65 626.11 961.65 626.3 962.02 308.01 961.65 306.63 961.65 306.63 949.87 626.09 385.27 626.39 385.27 626.39 961.65"/><line class="cls-8" x1="308" y1="961.64" x2="307.61" y2="962.01"/><rect class="cls-9" x="1394.5" y="298.65" width="39.57" height="723.23"/><rect class="cls-4" x="1386.08" y="858.45" width="224.8" height="93.47"/><polygon class="cls-4" points="1323.13 298.65 1323.13 1021.87 1261.98 960.43 1261.98 324.26 1323.13 298.65"/><path class="cls-10" d="M1209.91,1003.54c-2.73,1.12-11.47,4.6-21.08,7.51a11,11,0,0,0-4.39,2.39c-3.51,3.23-4,8.87-3.87,17.06,0,5.78.38,12.83.07,21.21-.2,5.65-1.39,9.79-3.41,12.92-6.42,10.25-21.25,10-37.06,17.71-19.7,9.57-23-1.86-57.81-17.71-1.74-.79-3.57-1.6-5.49-2.41-18.76-8-34.41-6.58-50.7-3.26-8.51,1.72-17.23,4-26.63,5.67a133.53,133.53,0,0,1-36.79,2c-48.25-4.37-12.06-11.81-14.65-32.79-2.34-19.07,27.24-1,47.53-9.29a23.47,23.47,0,0,0,5.87-3.4c3.42-2.72,6.16-5,8.45-6.89l.91-.78c4.39-3.74,7.07-6.23,9.91-8.67v0a166.79,166.79,0,0,1,16-12.08c15.81-10.8,41.28-12.1,57-30.65h0c.37-.44.73-.88,1.09-1.34h6.91v32.16c0,7.06,31.26,12.8,69.81,12.8A326.37,326.37,0,0,0,1209.91,1003.54Z"/><path class="cls-4" d="M601.63,712a5.92,5.92,0,0,1-1.3,3.75,6,6,0,0,1-10.28-1.36H542.42v-5.19h47.86a6,6,0,0,1,5.33-3.24A6,6,0,0,1,601.63,712Z"/><path class="cls-4" d="M1560.83,506a71.38,71.38,0,0,1-43.06,65.61l.09-.07s-8.16-15.87-9.43-15.87-59.22-9.87-59.22-9.87l-11.08-.82a71.48,71.48,0,0,1,62.36-105.67,72.34,72.34,0,0,1,12.82,1.13,71.48,71.48,0,0,1,9.82,2.56.18.18,0,0,1,.09,0c1.44.75,2.83,1.6,4.19,2.44a71.61,71.61,0,0,1,33.38,58.15C1560.81,504.42,1560.83,505.21,1560.83,506Z"/><path class="cls-11" d="M1145.78,818.31c0,1.27-.67,5.89-7.32,7-7.76,1.29-7.76,1.72-9.91,5.19s-8.19,7.8-8.62,2.16-3.87-1.72-7.76,3-3.43,7.77-1.72,18.16c1.42,8.6-4.23,14.83-8.64,9.1a15.93,15.93,0,0,1-2.54-5.19c-4.33-13.43-2.59-36.37,2.54-54.85a3,3,0,0,0,.09.8.22.22,0,0,0,0,.12,3.24,3.24,0,0,0,.21.62,5.28,5.28,0,0,0,1.19,1.88,6,6,0,0,0,.66.69l0,0c.28.25.58.5.92.76a11.18,11.18,0,0,0,1.24.85,11,11,0,0,0,1.12.66,25.36,25.36,0,0,0,2.81,1.41c.05,0,.07,0,.11,0a13.71,13.71,0,0,0,1.7.69c.46.21.94.37,1.44.55a100.08,100.08,0,0,0,15,3.84c.57.12,1.17.23,1.74.32,1.37.26,2.79.49,4.23.69,2.91.44,5.93.81,9.09,1.15Z"/><polygon class="cls-12" points="203.7 53.32 203.7 962.01 196.73 968.01 143.05 1014.22 92.51 1057.71 84.2 1064.86 81.45 1067.23 59.7 1085.94 58.76 1086.76 1.08 1086.76 1.08 -5.38 134.44 -5.38 134.69 -5.17 203.7 53.32"/><polygon class="cls-12" points="1921.19 -5.38 1921.19 1086.76 1875.25 1086.76 1786.75 1014.22 1736.02 972.64 1723.06 962.02 1723.06 53.31 1791.59 -5.17 1791.84 -5.38 1921.19 -5.38"/><path class="cls-10" d="M1517.73,571.64c-1.07.86-8.37,6.4-17.46,7.2-9.87.87-6.86,5.15-11.15,11.15s-3.44-2.15-5.15-6-2.58,2.15-3.88,7.3-4.28,2.57-5.56-6.43-5.58,20.15-4.72,33.46-6,21-6.45-.43S1446.2,568.1,1437.63,545l.5,0c.48.89,1,1.76,1.5,2.62a71.62,71.62,0,0,0,27.2,26,70.92,70.92,0,0,0,50.9-2Z"/><path class="cls-10" d="M549.43,961.15s-.13.28-.4.78a.2.2,0,0,1,0,.09c-1.56,3-7.3,12.81-16.71,17.15-11.15,5.15-33.47,0-58.35,2.57s-14.59,10.3-31.75,12.88-35.19-5.15-54.93-10.3-24.88,1.71-34.32,14.59c-4.14,5.65-6.47,10.8-9.44,15.31a33.18,33.18,0,0,1-4.53,5.6c-3.37,3.27-8,6.06-15.21,8.26-12.57,3.83-12.26-2.79-10.82-13.86.82-6.31,2-14.08,1.38-22.18-1.71-22.31-18.87-13.73-30.88-30h0l9.4,0,14.89-.05,62.29-.2Z"/><path class="cls-10" d="M309.55,1064.86c-1.75,4.52-4,9.12-5.12,11.6s-2.81,6.36-4.66,10.3H273.3c.05-.72.75-.74.67-4.51-.13-6.43.26-11.26,1.73-16.41.1-.35.2-.68.3-1,1.36-4.15,2.89-4.23,10.07-9.32,0,0,7.58-3.21,10.24-6.43s9.45,1,14.1,3.54C313,1054.05,311.65,1059.4,309.55,1064.86Z"/><rect class="cls-11" x="866.09" y="404.21" width="146.74" height="168.63"/><rect class="cls-2" x="874.47" y="412.73" width="130.79" height="151.56"/><rect class="cls-11" x="1035.36" y="404.21" width="146.74" height="168.63"/><rect class="cls-2" x="1043.74" y="412.73" width="130.79" height="151.56"/><path class="cls-11" d="M905.67,434.64h6.07a9.33,9.33,0,0,1,2.73.38,6,6,0,0,1,2.12,1.14A5.16,5.16,0,0,1,918,438a6,6,0,0,1,.49,2.5,6.2,6.2,0,0,1-.52,2.65,5,5,0,0,1-1.47,1.86,6.79,6.79,0,0,1-2.24,1.1,10.21,10.21,0,0,1-2.86.37h-2.88V454h-2.82Zm2.82,9.54h1.75a12.74,12.74,0,0,0,2.11-.16,4.68,4.68,0,0,0,1.68-.55,2.87,2.87,0,0,0,1.09-1.12,3.8,3.8,0,0,0,.39-1.82,3.43,3.43,0,0,0-.38-1.71,3.38,3.38,0,0,0-1-1.12,4.08,4.08,0,0,0-1.41-.61,7.31,7.31,0,0,0-1.62-.18h-2.61Z"/><path class="cls-11" d="M925.58,434.64h2.51l7.7,19.32h-2.94l-2.12-5.36h-8L920.7,454h-2.92Zm-2,11.72h6.35L928.61,443c-.34-.88-.66-1.73-1-2.54s-.57-1.66-.86-2.52h-.06c-.28.86-.58,1.69-.89,2.48s-.63,1.66-1,2.58Z"/><path class="cls-11" d="M938.28,434.64h2.45l8.81,12.24c.32.45.64.91,1,1.38s.58.93.82,1.38h.07c0-.72-.08-1.43-.1-2.15s0-1.43,0-2.15v-10.7H954V454h-2.45l-8.71-12.08c-.31-.43-.63-.92-1-1.46s-.64-1.08-.92-1.61h-.06q.06,1.29.09,2.58c0,.86,0,1.71,0,2.57v10h-2.76Z"/><path class="cls-11" d="M971.53,434.64V437h-6V454h-2.82V437h-5.93v-2.39Z"/><path class="cls-11" d="M905.67,474h6.07a9,9,0,0,1,2.73.38,6,6,0,0,1,2.12,1.13,5.34,5.34,0,0,1,1.38,1.84,6,6,0,0,1,.49,2.5,6.22,6.22,0,0,1-.52,2.66,5,5,0,0,1-1.47,1.85,6.81,6.81,0,0,1-2.24,1.11,10.6,10.6,0,0,1-2.86.37h-2.88v7.48h-2.82Zm2.82,9.54h1.75a12.74,12.74,0,0,0,2.11-.16,4.68,4.68,0,0,0,1.68-.55,2.93,2.93,0,0,0,1.09-1.12,3.8,3.8,0,0,0,.39-1.82,3.43,3.43,0,0,0-.38-1.71,3.38,3.38,0,0,0-1-1.12,4.08,4.08,0,0,0-1.41-.61,7.31,7.31,0,0,0-1.62-.18h-2.61Z"/><path class="cls-11" d="M925.58,474h2.51l7.7,19.32h-2.94L930.73,488h-8l-2.08,5.37h-2.92Zm-2,11.71h6.35l-1.29-3.34c-.34-.88-.66-1.73-1-2.55s-.57-1.65-.86-2.51h-.06c-.28.86-.58,1.69-.89,2.48s-.63,1.66-1,2.58Z"/><path class="cls-11" d="M938.28,474h2.45l8.81,12.24c.32.45.64.91,1,1.38s.58.93.82,1.38h.07c0-.72-.08-1.43-.1-2.15s0-1.43,0-2.15V474H954v19.32h-2.45l-8.71-12.08c-.31-.43-.63-.92-1-1.46s-.64-1.08-.92-1.61h-.06c0,.86.07,1.72.09,2.57s0,1.72,0,2.58v10h-2.76Z"/><path class="cls-11" d="M971.53,474v2.39h-6v16.93h-2.82V476.39h-5.93V474Z"/><path class="cls-11" d="M905.67,517.27h6.07a9.33,9.33,0,0,1,2.73.38,6.18,6.18,0,0,1,2.12,1.14,5.16,5.16,0,0,1,1.38,1.84,6,6,0,0,1,.49,2.5,6.17,6.17,0,0,1-.52,2.65,5,5,0,0,1-1.47,1.86,6.6,6.6,0,0,1-2.24,1.1,10.21,10.21,0,0,1-2.86.37h-2.88v7.49h-2.82Zm2.82,9.54h1.75a14,14,0,0,0,2.11-.15,4.88,4.88,0,0,0,1.68-.55,2.93,2.93,0,0,0,1.09-1.12,3.82,3.82,0,0,0,.39-1.83,3.42,3.42,0,0,0-.38-1.7,3.28,3.28,0,0,0-1-1.12,3.9,3.9,0,0,0-1.41-.61,6.77,6.77,0,0,0-1.62-.19h-2.61Z"/><path class="cls-11" d="M925.58,517.27h2.51l7.7,19.33h-2.94l-2.12-5.37h-8l-2.08,5.37h-2.92Zm-2,11.72h6.35l-1.29-3.34c-.34-.88-.66-1.73-1-2.55s-.57-1.66-.86-2.52h-.06c-.28.86-.58,1.69-.89,2.49s-.63,1.66-1,2.58Z"/><path class="cls-11" d="M938.28,517.27h2.45l8.81,12.24c.32.45.64.91,1,1.38s.58.93.82,1.38h.07c0-.71-.08-1.43-.1-2.15s0-1.43,0-2.14V517.27H954V536.6h-2.45l-8.71-12.09c-.31-.43-.63-.91-1-1.46s-.64-1.07-.92-1.61h-.06q.06,1.29.09,2.58t0,2.58v10h-2.76Z"/><path class="cls-11" d="M971.53,517.27v2.39h-6V536.6h-2.82V519.66h-5.93v-2.39Z"/><path class="cls-11" d="M1079.37,434.64h6.07a9.33,9.33,0,0,1,2.73.38,6,6,0,0,1,2.12,1.14,5.16,5.16,0,0,1,1.38,1.84,6.13,6.13,0,0,1,.49,2.5,6.36,6.36,0,0,1-.52,2.65,4.92,4.92,0,0,1-1.48,1.86,6.65,6.65,0,0,1-2.23,1.1,10.26,10.26,0,0,1-2.86.37h-2.88V454h-2.82Zm2.82,9.54h1.75a12.74,12.74,0,0,0,2.11-.16,4.68,4.68,0,0,0,1.68-.55,2.78,2.78,0,0,0,1.08-1.12,3.69,3.69,0,0,0,.4-1.82,3.43,3.43,0,0,0-.38-1.71,3.38,3.38,0,0,0-1-1.12,4.08,4.08,0,0,0-1.41-.61,7.31,7.31,0,0,0-1.62-.18h-2.61Z"/><path class="cls-11" d="M1099.28,434.64h2.51l7.7,19.32h-2.94l-2.12-5.36h-8L1094.4,454h-2.92Zm-2,11.72h6.35l-1.29-3.35c-.34-.88-.66-1.73-1-2.54s-.57-1.66-.86-2.52h-.06c-.29.86-.58,1.69-.89,2.48s-.63,1.66-1,2.58Z"/><path class="cls-11" d="M1112,434.64h2.45l8.8,12.24q.49.67,1,1.38c.3.47.58.93.82,1.38h.07c0-.72-.08-1.43-.1-2.15s0-1.43,0-2.15v-10.7h2.76V454h-2.45l-8.71-12.08c-.31-.43-.63-.92-1-1.46s-.64-1.08-.92-1.61h-.07c0,.86.08,1.72.1,2.58s0,1.71,0,2.57v10H1112Z"/><path class="cls-11" d="M1145.23,434.64V437h-6V454h-2.83V437h-5.92v-2.39Z"/><path class="cls-11" d="M1079.37,474h6.07a9,9,0,0,1,2.73.38,6,6,0,0,1,2.12,1.13,5.34,5.34,0,0,1,1.38,1.84,6.16,6.16,0,0,1,.49,2.5,6.37,6.37,0,0,1-.52,2.66,4.88,4.88,0,0,1-1.48,1.85,6.66,6.66,0,0,1-2.23,1.11,10.65,10.65,0,0,1-2.86.37h-2.88v7.48h-2.82Zm2.82,9.54h1.75a12.74,12.74,0,0,0,2.11-.16,4.68,4.68,0,0,0,1.68-.55,2.84,2.84,0,0,0,1.08-1.12,3.69,3.69,0,0,0,.4-1.82,3.43,3.43,0,0,0-.38-1.71,3.38,3.38,0,0,0-1-1.12,4.08,4.08,0,0,0-1.41-.61,7.31,7.31,0,0,0-1.62-.18h-2.61Z"/><path class="cls-11" d="M1099.28,474h2.51l7.7,19.32h-2.94l-2.12-5.37h-8l-2.08,5.37h-2.92Zm-2,11.71h6.35l-1.29-3.34c-.34-.88-.66-1.73-1-2.55s-.57-1.65-.86-2.51h-.06c-.29.86-.58,1.69-.89,2.48s-.63,1.66-1,2.58Z"/><path class="cls-11" d="M1112,474h2.45l8.8,12.24q.49.67,1,1.38c.3.47.58.93.82,1.38h.07c0-.72-.08-1.43-.1-2.15s0-1.43,0-2.15V474h2.76v19.32h-2.45l-8.71-12.08c-.31-.43-.63-.92-1-1.46s-.64-1.08-.92-1.61h-.07c0,.86.08,1.72.1,2.57s0,1.72,0,2.58v10H1112Z"/><path class="cls-11" d="M1145.23,474v2.39h-6v16.93h-2.83V476.39h-5.92V474Z"/><path class="cls-11" d="M1079.37,517.27h6.07a9.33,9.33,0,0,1,2.73.38,6.18,6.18,0,0,1,2.12,1.14,5.16,5.16,0,0,1,1.38,1.84,6.16,6.16,0,0,1,.49,2.5,6.32,6.32,0,0,1-.52,2.65,4.92,4.92,0,0,1-1.48,1.86,6.47,6.47,0,0,1-2.23,1.1,10.26,10.26,0,0,1-2.86.37h-2.88v7.49h-2.82Zm2.82,9.54h1.75a14,14,0,0,0,2.11-.15,4.88,4.88,0,0,0,1.68-.55,2.84,2.84,0,0,0,1.08-1.12,3.7,3.7,0,0,0,.4-1.83,3.42,3.42,0,0,0-.38-1.7,3.28,3.28,0,0,0-1-1.12,3.9,3.9,0,0,0-1.41-.61,6.77,6.77,0,0,0-1.62-.19h-2.61Z"/><path class="cls-11" d="M1099.28,517.27h2.51l7.7,19.33h-2.94l-2.12-5.37h-8l-2.08,5.37h-2.92Zm-2,11.72h6.35l-1.29-3.34c-.34-.88-.66-1.73-1-2.55s-.57-1.66-.86-2.52h-.06c-.29.86-.58,1.69-.89,2.49s-.63,1.66-1,2.58Z"/><path class="cls-11" d="M1112,517.27h2.45l8.8,12.24q.49.68,1,1.38c.3.47.58.93.82,1.38h.07c0-.71-.08-1.43-.1-2.15s0-1.43,0-2.14V517.27h2.76V536.6h-2.45l-8.71-12.09c-.31-.43-.63-.91-1-1.46s-.64-1.07-.92-1.61h-.07c0,.86.08,1.72.1,2.58s0,1.72,0,2.58v10H1112Z"/><path class="cls-11" d="M1145.23,517.27v2.39h-6V536.6h-2.83V519.66h-5.92v-2.39Z"/><path class="cls-11" d="M1131.26,780.72c-10.94,3.22-7.08.64-15.44,3.22s-10.3,1.93-11.59,6.43,1.29,2.58-2.57,9.66-1.29,1.29-3.87,7.08-7.47,5.18-1.28,9.65,4.88,4.66,9.5,6.79,6.59,2.87,9.81,7.37,5.79,14.81,23.17,15.45,21.44,2.4,26.38-5.15,1.93-7.72,8.37-13.52,3.22-9,16.09-8.36-3.86,6.43,20.6-1.29,31.53-7.72,32.18-11.59,1.93-8.36-.65-14.15,11-3.22-7.08-15.45-23.81-18-35.39-24.46-28.32-9.65-41.2-3.22-14.8,5.8-18.66,11.59S1131.26,780.72,1131.26,780.72Z"/><path class="cls-13" d="M1155.08,765.92c-3.87,4.5-2.9,7.72-2.9,7.72l3.22,4.18V772Z"/><path class="cls-13" d="M1217.18,796.17c-1.6,0-27-7.4-27-7.4S1218.79,796.17,1217.18,796.17Z"/><path class="cls-13" d="M1191.44,783.94s17.7-8.69,16.41-9.33-7.4-2.26-9-.65S1191.44,783.94,1191.44,783.94Z"/><path class="cls-13" d="M1154.75,800.67c-2.89,2.9-10.29,8.37-7.08,8.69s2.9,1.61,5.15-.64S1154.75,800.67,1154.75,800.67Z"/><path class="cls-13" d="M1133.19,791.66c-1.28,0-10.62,3.54-10.62,3.54a1.45,1.45,0,0,0-.64,2.25c1,1.61,6.44,0,7.4-1.6A27.06,27.06,0,0,1,1133.19,791.66Z"/><path class="cls-14" d="M1135.12,845.26v159.36c-4.81-.46-9.26-1-13.2-1.62V843.15c2,.43,4.15.79,6.41,1.16.57.1,1.16.2,1.73.27,1.37.22,2.8.41,4.24.58C1134.57,845.2,1134.85,845.24,1135.12,845.26Z"/><rect class="cls-2" x="1120.96" y="177.66" width="602.42" height="7.72"/><rect class="cls-2" x="1225.22" y="-5.38" width="9.01" height="183.04"/><rect class="cls-2" x="1633.27" y="-5.38" width="9.03" height="183.04"/><path class="cls-4" d="M980.16,961c0,.33-.07.67-.13,1h0a3.71,3.71,0,0,1-.76,1.88,7.17,7.17,0,0,1-5.77,2.38H962.74v-.06h-9.61a6.12,6.12,0,0,1-5.18-2.38,3.69,3.69,0,0,1-.68-1.82h0a24.57,24.57,0,0,1-.15-4.43c0-.49.07-17.33.07-21.59s.26-6.15.63-12.13,4.67-15.78,4.67-15.78a150.44,150.44,0,0,0,4.73-16.22,58.66,58.66,0,0,0,.23-8.31c0-.55,0-.88,0-.88-.13-2.77-.51-2.82-.95-3.66s0-1.89.07-2.72.5-4.64.68-6.69a2.1,2.1,0,0,1,2.15-2h2l1.39,0,1.53,0h2.28a2.3,2.3,0,0,1,2.39,2c.22,2.05.71,5.87.78,6.71s.56,1.88.07,2.71-.91.88-1,3.65c0,0-.28,6.86.2,9.19.24,1.11,1,3.8,2,6.81,1,3.29,2.3,7,3.33,9.41,0,0,4.79,9.81,5.21,15.79s.7,7.86.7,12.12.07,21.1.07,21.6A28.85,28.85,0,0,1,980.16,961Z"/><path class="cls-4" d="M980.16,961l-13.54-46.18-9.17-31.3c0-.55,0-.88,0-.88-.13-2.77-.51-2.82-.95-3.66s0-1.89.07-2.72.5-4.64.68-6.69a2.1,2.1,0,0,1,2.15-2h2l1.39,0,1.53,0h2.28a2.3,2.3,0,0,1,2.39,2c.22,2.05.71,5.87.78,6.71s.56,1.88.07,2.71-.91.88-1,3.65c0,0-.28,6.86.2,9.19.24,1.11,1,3.8,2,6.81,1,3.29,2.3,7,3.33,9.41,0,0,4.79,9.81,5.21,15.79s.7,7.86.7,12.12.07,21.1.07,21.6A28.85,28.85,0,0,1,980.16,961Z"/><path class="cls-4" d="M1012,965.32a5,5,0,0,1-.89,2.87,7.17,7.17,0,0,1-5.77,2.37H994.6v0H985a6.14,6.14,0,0,1-5.18-2.38c-1.14-1.27-.82-5.76-.82-6.26s.06-17.33.06-21.59.26-6.15.63-12.13,4.67-15.78,4.67-15.78a153.21,153.21,0,0,0,4.74-16.22,60.2,60.2,0,0,0,.22-8.31c0-.55,0-.88,0-.88-.13-2.77-.51-2.83-.95-3.66s0-1.89.07-2.72.5-4.64.69-6.69a2.08,2.08,0,0,1,2.14-2h2l1.39,0,1.53,0h2.28a2.3,2.3,0,0,1,2.39,2c.22,2,.71,5.87.78,6.71s.56,1.87.07,2.71-.91.88-1,3.65c0,0-.28,6.86.2,9.19a139.28,139.28,0,0,0,5.29,16.22s4.78,9.81,5.2,15.79.7,7.86.7,12.12.07,21.1.07,21.6A26.68,26.68,0,0,1,1012,965.32Z"/><path class="cls-15" d="M1012,965.32l-22.71-77.48c0-.55,0-.88,0-.88-.13-2.77-.51-2.83-.95-3.66s0-1.89.07-2.72.5-4.64.69-6.69a2.08,2.08,0,0,1,2.14-2h2l1.39,0,1.53,0h2.28a2.3,2.3,0,0,1,2.39,2c.22,2,.71,5.87.78,6.71s.56,1.87.07,2.71-.91.88-1,3.65c0,0-.28,6.86.2,9.19a139.28,139.28,0,0,0,5.29,16.22s4.78,9.81,5.2,15.79.7,7.86.7,12.12.07,21.1.07,21.6A26.68,26.68,0,0,1,1012,965.32Z"/><path class="cls-5" d="M993.62,969.66a5,5,0,0,1-.89,2.87,7.14,7.14,0,0,1-5.77,2.38H976.2v0h-9.61a6.15,6.15,0,0,1-5.18-2.38c-1.14-1.28-.82-5.77-.82-6.26,0-.15,0-1.83,0-4.2h0c0-5.4,0-14.43,0-17.39,0-4.27.26-6.14.63-12.13S966,916.72,966,916.72c.22-.56.44-1.19.67-1.87,1.69-4.92,3.68-12.32,4.07-14.36a13.73,13.73,0,0,0,.18-1.77c.13-2.14.08-5.08,0-6.53,0-.55,0-.89,0-.89-.12-2.77-.51-2.82-1-3.66s0-1.88.07-2.71.5-4.65.69-6.7a2.1,2.1,0,0,1,2.15-2h1.95l1.39,0,1.54,0H980a2.29,2.29,0,0,1,2.39,2c.21,2,.7,5.87.77,6.7s.56,1.88.07,2.71-.91.88-1.05,3.66c0,0-.28,6.86.21,9.19a138.93,138.93,0,0,0,5.28,16.22s4.78,9.8,5.2,15.78.7,7.87.7,12.12c0,3,0,11.93,0,17.34h0c0,2.4,0,4.1,0,4.25A26.7,26.7,0,0,1,993.62,969.66Z"/><path class="cls-16" d="M993.62,969.66,991.38,962h0l-20.47-69.82c0-.55,0-.89,0-.89-.12-2.77-.51-2.82-1-3.66s0-1.88.07-2.71.5-4.65.69-6.7a2.1,2.1,0,0,1,2.15-2h1.95l1.39,0,1.54,0H980a2.29,2.29,0,0,1,2.39,2c.21,2,.7,5.87.77,6.7s.56,1.88.07,2.71-.91.88-1.05,3.66c0,0-.28,6.86.21,9.19a138.93,138.93,0,0,0,5.28,16.22s4.78,9.8,5.2,15.78.7,7.87.7,12.12c0,3,0,11.93,0,17.34h0c0,2.4,0,4.1,0,4.25A26.7,26.7,0,0,1,993.62,969.66Z"/><path class="cls-4" d="M1046.44,938.89v21.78a6.14,6.14,0,0,1-.54,2.53c-5.54,2.84-16.53,2.19-20.36-.47a6.1,6.1,0,0,1-.35-2.06V938.89c0-.13,0-.25,0-.37h0a6,6,0,0,1,.66-2.43,6.18,6.18,0,0,1,1.89-2.2h0l.26.21.15.1s.1.07.15.11l.16.1.17.09.37.19a1.63,1.63,0,0,0,.19.09l.42.18.44.16.47.15.24.07.29.07.29.07c.39.1.8.18,1.23.25l.33,0,.24,0,.24,0,.36,0,.27,0c.43,0,.87.06,1.31.07h.74c3.53,0,6.58-.78,8.07-1.91a6.24,6.24,0,0,1,1.31,1.45,6.09,6.09,0,0,1,1,3.05C1046.44,938.68,1046.44,938.78,1046.44,938.89Z"/><path class="cls-17" d="M1044.91,933.25a3,3,0,0,1-.2.29l-.06-.06A1.52,1.52,0,0,0,1044.91,933.25Z"/><path class="cls-18" d="M1033,935.09l0-.05c-2.06-.41-3.35-1-3.25-1.65,0,0,0,0,0-.07a.78.78,0,0,0,0-.16v0a1.71,1.71,0,0,1,1.33-1.58h-.21a5.39,5.39,0,0,0-.81.06h0a2.49,2.49,0,0,0-1.4.53,6.64,6.64,0,0,1-.56.52,1.74,1.74,0,0,0-.3.31.89.89,0,0,0-.14.25s0,0,0,0v0a.37.37,0,0,0,0,.11,1.11,1.11,0,0,0,.14.47,1.29,1.29,0,0,0,.49.37,25.45,25.45,0,0,0,5,1.24Z"/><path class="cls-2" d="M1045.12,932.51a1.38,1.38,0,0,1-.15.62c0-.18-3.65-3.17-12.36-2,0,0-3.67.2-4.42,1.19a6.11,6.11,0,0,0-.43.61c-.06.1-.1.19-.14.26h0l0,.08h0c-.07.2,0,.26,0,.26a.62.62,0,0,1,.06-.27h0s0,0,0,0a1.69,1.69,0,0,1,.34-.47,5.39,5.39,0,0,1,2.87-1.22h0c.38-.07.8-.14,1.26-.19a30.32,30.32,0,0,1,9.94.46c1.22.37,2.73,1.33,2.61,1.65a25.31,25.31,0,0,1-11.69,1.61,18.53,18.53,0,0,1-5.21-1.21,3.07,3.07,0,0,1-.31-.32,1.63,1.63,0,0,1-.43-1c0-1.92,4.06-3.48,9.06-3.48S1045.12,930.59,1045.12,932.51Z"/><path class="cls-19" d="M1030.67,931.61c.48-.05-3,1.32-2.53,1.82a3,3,0,0,1,.52.78l-.91-.33-.14-.58s-.12-.27.46-.63A8.64,8.64,0,0,1,1030.67,931.61Z"/><path class="cls-20" d="M1045,933.13h0a.67.67,0,0,1-.06.12h0l-.05.06a1.6,1.6,0,0,1-.21.17c.12-.32-1.39-1.28-2.61-1.65a30.32,30.32,0,0,0-9.94-.46c-.46,0-.88.12-1.26.19h0a5.39,5.39,0,0,0-2.87,1.22,1.69,1.69,0,0,0-.34.47s0,0,0,0h0a.62.62,0,0,0-.06.27s0-.06,0-.26h0l0-.08h0c0-.07.08-.16.14-.26a6.11,6.11,0,0,1,.43-.61c.75-1,4.42-1.19,4.42-1.19C1041.32,930,1044.94,933,1045,933.13Z"/><path class="cls-21" d="M1045,933.13h0a.17.17,0,0,1-.06.12h0l-.05.06a1.6,1.6,0,0,1-.21.17c.12-.32-1.39-1.28-2.61-1.65a30.32,30.32,0,0,0-9.94-.46c-.46,0-.88.12-1.26.19h0a5.39,5.39,0,0,0-2.87,1.22,1.69,1.69,0,0,0-.34.47s0,0,0,0h0a.62.62,0,0,0-.06.27s0-.06,0-.26h0l0-.08h0c0-.07.08-.16.14-.26a6.11,6.11,0,0,1,.43-.61c.75-1,4.42-1.19,4.42-1.19C1041.32,930,1044.94,933,1045,933.13Z"/><path class="cls-5" d="M1044.71,933.54a3,3,0,0,1-.57.54c-1.49,1.13-4.54,1.91-8.07,1.91h-.74c-.45,0-.88,0-1.31-.07l-.27,0-.36,0-.24,0-.24,0-.33,0q-.64-.11-1.23-.24l-.29-.08-.29-.07-.24-.07-.47-.15-.44-.16-.42-.18a.82.82,0,0,1-.19-.09l-.37-.19-.17-.09-.16-.1-.15-.1-.15-.11-.26-.21a13.81,13.81,0,0,0,1.85.61l.24.06.94.21.24,0,.3.05.49.08.27,0,.29,0,.59.07.58,0c.47,0,1,.06,1.47.07h.44a25.49,25.49,0,0,0,5.48-.61l.12,0,.17,0a23.35,23.35,0,0,0,2.38-.69h0c.34-.11.69-.24,1-.37Z"/><path class="cls-4" d="M1045.12,932.32a1.42,1.42,0,0,1-.15.63h0a.15.15,0,0,1-.06.11h0l-.05,0a3.92,3.92,0,0,0-.62-.6c-.66-.56-2.06-.9-4-1.38s-2.15-.39-5.72-.27a20.1,20.1,0,0,0-4.46.56h0a5.61,5.61,0,0,0-1.4.53,2.33,2.33,0,0,0-.55.51h0l-.09.11c-.12.15-.24.32-.34.46s0,0,0,0h0l0,0h0l-.15.24a1.61,1.61,0,0,1-.43-1c0-1.92,4.06-3.47,9.06-3.47S1045.12,930.4,1045.12,932.32Z"/><path class="cls-22" d="M1028.3,935.77c-.91.46-.91.59-1.28,1.6a20.39,20.39,0,0,0-.78,3.3c0,.46.64-.09.69-.46a6.81,6.81,0,0,1,.14-1.51,15.33,15.33,0,0,1,.82-1.92C1028.07,936.32,1028.3,935.77,1028.3,935.77Z"/><path class="cls-22" d="M1026.29,942c-.09.36-.46.82,0,.73s.32-.18.46-.5S1026.29,942,1026.29,942Z"/><path class="cls-22" d="M1040.26,929.68c2.52.68,3.8,1.33,4,1.74Z"/><path class="cls-23" d="M1035,933.52a1.94,1.94,0,0,0-1.84-.85,25.72,25.72,0,0,0-2.9,0c-.2.18-.51.39-.55.53s.24.53.51.61a2.57,2.57,0,0,0,1.76.44c1-.15,1.26-.15,2-.21S1035,933.62,1035,933.52Z"/><path class="cls-24" d="M1038.53,931l-.76-.05a.23.23,0,0,0-.1.07l-.22.24.76,0,.28-.13a1.71,1.71,0,0,1,.51-.12Zm0,0-.76-.05a.23.23,0,0,0-.1.07l-.22.24.76,0,.28-.13a1.71,1.71,0,0,1,.51-.12Zm0,0-.76-.05a.23.23,0,0,0-.1.07l-.22.24.76,0,.28-.13a1.71,1.71,0,0,1,.51-.12Zm2.28.6h0l0-.12h0l-.06-.13v0l-.18-.42a.37.37,0,0,0-.19-.18l-.89-.29a.28.28,0,0,0-.2,0l-1.11.41h0l-.29.1,0,0a.23.23,0,0,0-.1.07l-.22.24-.16.18a.32.32,0,0,1-.22.1h-.1a.2.2,0,0,0-.11,0l-1.9.77a.36.36,0,0,0-.19.21l-.14.54a.13.13,0,0,0,0,.06.2.2,0,0,0,0,.13l.17.48,0,0a.3.3,0,0,0,.2.18l.3.08a.31.31,0,0,0,.19,0l2-.7,0,0,.16-.09a.28.28,0,0,1,.12,0l.6-.06.08,0,1.52-.57a.21.21,0,0,0,.1-.06l.55-.49a.31.31,0,0,0,.1-.31Zm-4.42,1.67c-.43.16-.84.09-.93-.15s.18-.56.6-.72.84-.08.93.16S1036.81,933.08,1036.39,933.23Zm2.64-.6c-.72.26-1.43.14-1.58-.26s.2-.81.76-1.1l.28-.13a1.71,1.71,0,0,1,.51-.12h0a1.25,1.25,0,0,1,.82.11.54.54,0,0,1,.25.27.09.09,0,0,1,0,.05C1040.19,931.85,1039.73,932.37,1039,932.63Zm-.5-1.67-.76-.05a.23.23,0,0,0-.1.07l-.22.24.76,0,.28-.13a1.71,1.71,0,0,1,.51-.12Zm0,0-.76-.05a.23.23,0,0,0-.1.07l-.22.24.76,0,.28-.13a1.71,1.71,0,0,1,.51-.12Z"/><path class="cls-25" d="M1039.05,955.7h0v0Z"/><path class="cls-2" d="M1045.9,963.2l-.16.32a1.62,1.62,0,0,1-.1.18.59.59,0,0,1,0,.08c0,.08-.09.16-.14.23l-.16.23,0,0c0,.08-.11.15-.17.23l-.06.07c-.06.07-.11.14-.17.2l-.07.08a1.7,1.7,0,0,1-.19.19l0,.06-.21.19,0,0a2.75,2.75,0,0,1-.26.22l-.21.15-.16.12a7.59,7.59,0,0,1-.79.44l-.19.08a5.58,5.58,0,0,1-1.07.35l-.22,0-.28,0-.16,0-.47,0H1031l-.2,0h0l-.2,0-.27,0-.14,0-.19,0-.17,0,0,0-.16,0h0l-.17-.06-.19-.07-.37-.15-.15-.07-.2-.11-.17-.09-.5-.32a3.65,3.65,0,0,1-.31-.24l-.13-.11a5.79,5.79,0,0,1-1-1.06.83.83,0,0,1-.08-.12,6.09,6.09,0,0,1-.52-.89,2.29,2.29,0,0,1-.1-.23l-.13-.33C1029.37,965.39,1040.36,966,1045.9,963.2Z"/><path class="cls-4" d="M241.31,1001.5v27a7.65,7.65,0,0,1-.67,3.14c-6.91,3.53-20.6,2.72-25.37-.58a7.48,7.48,0,0,1-.44-2.56v-27c0-.15,0-.3,0-.45h0a7.67,7.67,0,0,1,.83-3,7.58,7.58,0,0,1,2.35-2.74h0l.32.26.19.13.19.13.2.12.21.12.46.24.24.11.52.21.55.2.58.19.31.09.35.09.36.09c.49.11,1,.21,1.54.3l.41.06.3,0,.29,0,.46,0,.34,0c.53.05,1.07.08,1.63.1h.92c4.39,0,8.2-1,10.06-2.37a7.72,7.72,0,0,1,1.62,1.8,7.61,7.61,0,0,1,1.23,3.79C241.31,1001.24,241.31,1001.37,241.31,1001.5Z"/><path class="cls-17" d="M239.4,994.51a2.6,2.6,0,0,1-.25.36l-.07-.08A1.66,1.66,0,0,0,239.4,994.51Z"/><path class="cls-18" d="M224.51,996.79l0-.07c-2.57-.51-4.16-1.25-4.05-2,0,0,0-.06,0-.09s0,0,0,0a.88.88,0,0,0,0-.17h0a2.49,2.49,0,0,1,1-1.76l.13-.07a1.63,1.63,0,0,1,.5-.16h-.26a8.68,8.68,0,0,0-1,.07h0a3.07,3.07,0,0,0-1.74.66,8,8,0,0,1-.7.64h0a3.23,3.23,0,0,0-.37.37c-.07.13-.13.23-.17.32a.43.43,0,0,1,0,0h0v0h0a1.14,1.14,0,0,0,.16.71h0a1.11,1.11,0,0,0,.51.39l0,0,.05,0a31.49,31.49,0,0,0,6.19,1.55Z"/><path class="cls-2" d="M239.66,993.58a1.92,1.92,0,0,1-.17.78c0-.22-4.56-3.94-15.42-2.44,0,0-4.56.25-5.5,1.48a8.36,8.36,0,0,0-.54.76l-.17.32h0a.3.3,0,0,1,0,.1h0c-.09.25,0,.32,0,.32a.75.75,0,0,1,.08-.33h0a.09.09,0,0,1,0-.06,2.09,2.09,0,0,1,.41-.58,6.88,6.88,0,0,1,3.58-1.51h0c.46-.09,1-.17,1.57-.24a38.23,38.23,0,0,1,12.38.57c1.51.46,3.4,1.65,3.25,2a31.66,31.66,0,0,1-14.57,2,23.49,23.49,0,0,1-6.49-1.51,2.87,2.87,0,0,1-.39-.39,2.05,2.05,0,0,1-.53-1.31c0-2.38,5.05-4.31,11.29-4.31S239.66,991.2,239.66,993.58Z"/><path class="cls-19" d="M221.66,992.47c.6-.06-3.68,1.64-3.16,2.26a4.12,4.12,0,0,1,.66,1l-1.14-.41-.17-.71s-.15-.34.56-.79A11.26,11.26,0,0,1,221.66,992.47Z"/><path class="cls-20" d="M239.49,994.36h0l-.08.14h0l-.06.06a1.65,1.65,0,0,1-.26.22c.15-.4-1.74-1.59-3.25-2a38.23,38.23,0,0,0-12.38-.57c-.59.07-1.11.15-1.57.24h0a6.88,6.88,0,0,0-3.58,1.51,2.09,2.09,0,0,0-.41.58.09.09,0,0,0,0,.06h0a.75.75,0,0,0-.08.33s0-.07,0-.32h0a.3.3,0,0,0,0-.1h0l.17-.32a8.36,8.36,0,0,1,.54-.76c.94-1.23,5.5-1.48,5.5-1.48C234.93,990.42,239.45,994.14,239.49,994.36Z"/><path class="cls-21" d="M239.49,994.36h0a.34.34,0,0,1-.08.14h0l-.06.06a1.65,1.65,0,0,1-.26.22c.15-.4-1.74-1.59-3.25-2a38.23,38.23,0,0,0-12.38-.57c-.59.07-1.11.15-1.57.24h0a6.88,6.88,0,0,0-3.58,1.51,2.09,2.09,0,0,0-.41.58.09.09,0,0,0,0,.06h0a.75.75,0,0,0-.08.33s0-.07,0-.32h0a.3.3,0,0,0,0-.1h0l.17-.32a8.36,8.36,0,0,1,.54-.76c.94-1.23,5.5-1.48,5.5-1.48C234.93,990.42,239.45,994.14,239.49,994.36Z"/><path class="cls-5" d="M239.15,994.87a3.72,3.72,0,0,1-.7.66c-1.86,1.41-5.67,2.37-10.06,2.37h-.92c-.56,0-1.1,0-1.63-.1l-.34,0-.46,0-.29,0-.3,0-.41-.06c-.53-.08-1-.19-1.54-.3l-.36-.09-.35-.09-.31-.09-.58-.19-.55-.2-.52-.21-.24-.11-.46-.24-.21-.12-.2-.12-.2-.13-.18-.13-.32-.26a19.43,19.43,0,0,0,2.3.75l.31.07c.35.1.75.18,1.17.27l.3.06.37.06.61.1.34.06.36,0c.24,0,.48.06.73.09s.48.05.73.06q.87.07,1.83.09h.54a31.55,31.55,0,0,0,6.83-.76l.15,0,.22,0c1-.23,2-.51,3-.85h0c.43-.14.86-.3,1.29-.46Z"/><path class="cls-4" d="M239.66,993.36a1.91,1.91,0,0,1-.17.77h0a.31.31,0,0,1-.08.13h0l-.06.07a5.26,5.26,0,0,0-.77-.76c-.83-.68-2.57-1.1-5-1.7s-2.68-.48-7.14-.34a24.63,24.63,0,0,0-5.54.7h0a7.74,7.74,0,0,0-1.74.66,3.13,3.13,0,0,0-.7.64h0a.69.69,0,0,1-.11.13c-.15.2-.29.4-.41.58l0,0h0l0,0h0l-.19.31a2,2,0,0,1-.53-1.3c0-2.39,5.05-4.32,11.29-4.32S239.66,991,239.66,993.36Z"/><path class="cls-22" d="M218.71,997.63c-1.14.57-1.14.74-1.6,2a25,25,0,0,0-1,4.1c-.06.56.8-.12.86-.57a8.06,8.06,0,0,1,.17-1.88,20.28,20.28,0,0,1,1-2.39C218.42,998.31,218.71,997.63,218.71,997.63Z"/><path class="cls-22" d="M216.2,1005.36c-.12.46-.57,1-.06.91s.4-.22.57-.62S216.2,1005.36,216.2,1005.36Z"/><path class="cls-22" d="M233.61,990.07c3.13.85,4.73,1.65,5,2.16Z"/><path class="cls-23" d="M227,994.84a2.41,2.41,0,0,0-2.29-1.05c-1.17.09-3.37-.2-3.61,0s-.63.48-.68.66.29.65.63.76a3.28,3.28,0,0,0,2.2.55,19,19,0,0,1,2.49-.26C226.67,995.45,227.06,995,227,994.84Z"/><path class="cls-24" d="M231.27,991.66l-.79,0a.34.34,0,0,0-.09.08l-.27.3.94,0a3.49,3.49,0,0,1,.34-.15,2.9,2.9,0,0,1,.61-.16Zm0,0-.79,0a.34.34,0,0,0-.09.08l-.27.3.94,0a3.49,3.49,0,0,1,.34-.15,2.9,2.9,0,0,1,.61-.16Zm0,0-.79,0a.34.34,0,0,0-.09.08l-.27.3.94,0a3.49,3.49,0,0,1,.34-.15,2.9,2.9,0,0,1,.61-.16Zm3,.75,0-.16h0l-.07-.16,0,0-.23-.53a.4.4,0,0,0-.24-.22l-1.1-.35a.36.36,0,0,0-.25,0l-1.41.52h0l-.35.12-.06,0a.34.34,0,0,0-.09.08l-.27.3-.21.22a.42.42,0,0,1-.28.12h-.12a.32.32,0,0,0-.14,0l-2.37,1a.4.4,0,0,0-.23.26l-.18.66a.28.28,0,0,0,0,.09.25.25,0,0,0,0,.15l.22.6,0,0a.42.42,0,0,0,.25.22l.38.1a.45.45,0,0,0,.23,0l2.52-.87.06,0,.2-.11a.3.3,0,0,1,.16,0l.75-.08.09,0,1.89-.7a.57.57,0,0,0,.13-.08l.69-.61a.39.39,0,0,0,.12-.39Zm-5.51,2.08c-.52.19-1,.1-1.15-.2s.22-.69.75-.89,1.05-.1,1.16.19S229.31,994.29,228.78,994.49Zm3.3-.76c-.9.33-1.78.19-2-.32s.25-1,.95-1.37a3.49,3.49,0,0,1,.34-.15,2.9,2.9,0,0,1,.61-.16h0a1.76,1.76,0,0,1,1,.14.59.59,0,0,1,.33.41C233.52,992.77,233,993.41,232.08,993.73Zm-.81-2.07-.79,0a.34.34,0,0,0-.09.08l-.27.3.94,0a3.49,3.49,0,0,1,.34-.15,2.9,2.9,0,0,1,.61-.16Zm0,0-.79,0a.34.34,0,0,0-.09.08l-.27.3.94,0a3.49,3.49,0,0,1,.34-.15,2.9,2.9,0,0,1,.61-.16Z"/><path class="cls-25" d="M232.1,1022.37h0v0Z"/><path class="cls-2" d="M240.64,1031.68c-.06.14-.13.27-.2.4l-.12.23-.06.1-.17.28a2.83,2.83,0,0,1-.2.28l0,0a3.15,3.15,0,0,1-.22.29l-.08.09a2.43,2.43,0,0,1-.2.25l-.09.1-.24.24-.07.06a1.88,1.88,0,0,1-.25.24l-.06.06-.33.27-.26.19-.2.14a8.64,8.64,0,0,1-1,.55l-.23.1a7.38,7.38,0,0,1-1.33.43l-.28.06-.34.06-.21,0a5.63,5.63,0,0,1-.59,0H222.23l-.21,0-.25,0h0l-.24,0-.34-.05-.17,0-.24-.06-.21,0h-.06l-.2-.06h0l-.22-.07-.24-.09-.46-.19-.19-.09-.25-.13-.21-.11c-.21-.13-.42-.26-.62-.4l-.39-.3-.16-.13a7.62,7.62,0,0,1-1.22-1.32l-.1-.14a6.89,6.89,0,0,1-.64-1.12,2.39,2.39,0,0,1-.13-.28c-.06-.13-.11-.27-.16-.41C220,1034.4,233.73,1035.21,240.64,1031.68Z"/><path class="cls-4" d="M264.86,986.7v27a7.5,7.5,0,0,1-.68,3.14c-6.9,3.53-20.6,2.72-25.37-.58a7.73,7.73,0,0,1-.44-2.56v-27c0-.15,0-.31,0-.46h0a7.54,7.54,0,0,1,.82-3,7.83,7.83,0,0,1,2.35-2.73h0c.1.09.2.18.32.27l.18.13.19.12.2.13.22.12a4.73,4.73,0,0,0,.45.23l.25.11c.16.08.33.15.51.22l.55.2.59.19.3.08.35.1.37.08c.49.12,1,.22,1.54.31l.4.06.31,0,.29,0,.45.05.34,0c.53,0,1.08.08,1.63.09h.92c4.4,0,8.2-1,10.06-2.37a7.62,7.62,0,0,1,2.85,5.59C264.85,986.44,264.86,986.57,264.86,986.7Z"/><path class="cls-17" d="M263,979.71a3.9,3.9,0,0,1-.25.36l-.07-.08A2.06,2.06,0,0,0,263,979.71Z"/><path class="cls-18" d="M248.06,982l0-.07c-2.57-.51-4.17-1.25-4.05-2,0,0,0,0,0-.08h0c0-.06,0-.13,0-.21h0a2.49,2.49,0,0,1,.95-1.7l.21-.11a1.83,1.83,0,0,1,.5-.16h-.26a9.07,9.07,0,0,0-1,.08h0a3,3,0,0,0-1.75.66c-.23.25-.48.45-.69.64h0a2.15,2.15,0,0,0-.37.37.83.83,0,0,0-.17.32.09.09,0,0,0,0,.05,0,0,0,0,1,0,0,.61.61,0,0,0,0,.14,1.13,1.13,0,0,0,.18.58h0a1.11,1.11,0,0,0,.5.39l.08,0,0,0a32.31,32.31,0,0,0,6.18,1.54Z"/><path class="cls-2" d="M263.21,978.78a1.77,1.77,0,0,1-.18.77c0-.21-4.56-3.93-15.41-2.43,0,0-4.57.25-5.51,1.47a9.29,9.29,0,0,0-.53.77,3.5,3.5,0,0,0-.17.32h0a.63.63,0,0,0,0,.09h0c-.1.25-.06.32-.06.32a1.06,1.06,0,0,1,.08-.34h0l0-.06a2,2,0,0,1,.42-.58,6.82,6.82,0,0,1,3.58-1.52h0c.47-.09,1-.17,1.57-.23a38.3,38.3,0,0,1,12.39.57c1.51.45,3.39,1.65,3.25,2a31.68,31.68,0,0,1-14.57,2,23.64,23.64,0,0,1-6.5-1.51l-.39-.39a2.06,2.06,0,0,1-.52-1.31c0-2.38,5-4.32,11.28-4.32S263.21,976.4,263.21,978.78Z"/><path class="cls-19" d="M245.21,977.67c.59-.06-3.68,1.63-3.16,2.26a4,4,0,0,1,.65,1l-1.14-.41-.17-.72s-.15-.33.57-.78A10.72,10.72,0,0,1,245.21,977.67Z"/><path class="cls-20" d="M263,979.55h0a1,1,0,0,1-.08.14h0l-.06.06a2.37,2.37,0,0,1-.26.22c.14-.4-1.74-1.6-3.25-2a38.3,38.3,0,0,0-12.39-.57c-.58.06-1.1.14-1.57.23h0a6.82,6.82,0,0,0-3.58,1.52,2,2,0,0,0-.42.58l0,.06h0a1.06,1.06,0,0,0-.08.34s0-.07.06-.32h0a.63.63,0,0,1,0-.09h0a3.5,3.5,0,0,1,.17-.32,9.29,9.29,0,0,1,.53-.77c.94-1.22,5.51-1.47,5.51-1.47C258.47,975.62,263,979.34,263,979.55Z"/><path class="cls-21" d="M263,979.55h0a.41.41,0,0,1-.08.14h0l-.06.06a2.37,2.37,0,0,1-.26.22c.14-.4-1.74-1.6-3.25-2a38.3,38.3,0,0,0-12.39-.57c-.58.06-1.1.14-1.57.23h0a6.82,6.82,0,0,0-3.58,1.52,2,2,0,0,0-.42.58l0,.06h0a1.06,1.06,0,0,0-.08.34s0-.07.06-.32h0a.63.63,0,0,1,0-.09h0a3.5,3.5,0,0,1,.17-.32,9.29,9.29,0,0,1,.53-.77c.94-1.22,5.51-1.47,5.51-1.47C258.47,975.62,263,979.34,263,979.55Z"/><path class="cls-5" d="M262.7,980.07a3.79,3.79,0,0,1-.71.66c-1.86,1.41-5.66,2.37-10.06,2.37H251c-.55,0-1.1,0-1.63-.09l-.34,0-.45-.05-.3,0-.3,0-.4-.06c-.54-.09-1.05-.19-1.54-.3l-.37-.09-.35-.1-.3-.08-.59-.19-.55-.2-.51-.21-.25-.12a4.73,4.73,0,0,1-.45-.23l-.22-.12-.2-.13-.19-.12-.18-.13c-.12-.09-.22-.18-.32-.27a16,16,0,0,0,2.3.76l.3.07c.36.09.75.18,1.17.26l.3.07.37.06.61.1.35.05.35,0,.74.09.73.06q.87.08,1.83.09h.54a31.68,31.68,0,0,0,6.83-.76l.15,0,.22-.05a28.45,28.45,0,0,0,3-.85h0c.43-.14.86-.3,1.29-.46Z"/><path class="cls-4" d="M263.21,978.55a1.78,1.78,0,0,1-.18.78h0a.41.41,0,0,1-.08.14h0l-.06.06a5.73,5.73,0,0,0-.78-.75c-.82-.69-2.56-1.11-5-1.7s-2.68-.49-7.13-.34a24.83,24.83,0,0,0-5.55.7h0a7.27,7.27,0,0,0-1.74.66,2.58,2.58,0,0,0-.7.64h0l-.11.13c-.15.2-.3.4-.42.58l0,0h0l0,0h0a3.15,3.15,0,0,0-.2.31,2,2,0,0,1-.52-1.31c0-2.38,5-4.31,11.28-4.31S263.21,976.17,263.21,978.55Z"/><path class="cls-22" d="M242.25,982.83c-1.14.57-1.14.74-1.59,2a23.94,23.94,0,0,0-1,4.09c-.06.57.8-.11.85-.57a9.31,9.31,0,0,1,.17-1.87,19.58,19.58,0,0,1,1-2.39Z"/><path class="cls-22" d="M239.74,990.56c-.11.46-.57,1-.05.91s.4-.23.57-.62S239.74,990.56,239.74,990.56Z"/><path class="cls-22" d="M257.15,975.27c3.14.85,4.74,1.65,5,2.16Z"/><path class="cls-23" d="M250.56,980a2.4,2.4,0,0,0-2.29-1c-1.17.09-3.37-.2-3.61,0s-.64.48-.69.66.3.65.64.76a3.2,3.2,0,0,0,2.19.54,23.24,23.24,0,0,1,2.49-.26C250.22,980.65,250.61,980.17,250.56,980Z"/><path class="cls-24" d="M254.78,976.85l-.73-.05a.36.36,0,0,0-.12.08l-.28.31,1,0a2.07,2.07,0,0,1,.34-.15,2.91,2.91,0,0,1,.68-.16Zm0,0-.73-.05a.36.36,0,0,0-.12.08l-.28.31,1,0a2.07,2.07,0,0,1,.34-.15,2.91,2.91,0,0,1,.68-.16Zm0,0-.73-.05a.36.36,0,0,0-.12.08l-.28.31,1,0a2.07,2.07,0,0,1,.34-.15,2.91,2.91,0,0,1,.68-.16Zm3.06.76,0-.16v0l-.07-.16v0l-.24-.54a.47.47,0,0,0-.24-.22l-1.1-.36a.46.46,0,0,0-.26,0l-1.38.51h0l-.37.13,0,0a.36.36,0,0,0-.12.08l-.28.31-.2.21a.37.37,0,0,1-.27.13h-.13a.5.5,0,0,0-.13,0l-2.37,1a.36.36,0,0,0-.23.26l-.18.66a.19.19,0,0,0,0,.08.45.45,0,0,0,0,.16l.22.6,0,0a.34.34,0,0,0,.25.21l.37.1a.33.33,0,0,0,.24,0l2.51-.87a.15.15,0,0,0,.07,0l.2-.11.15-.05.75-.07.1,0,1.89-.71a.29.29,0,0,0,.12-.07l.69-.62a.39.39,0,0,0,.13-.38Zm-5.51,2.07c-.53.2-1.05.11-1.15-.19s.22-.7.75-.89,1-.11,1.15.19S252.86,979.49,252.33,979.68Zm3.3-.75c-.9.33-1.79.18-2-.32s.26-1,1-1.37a2.07,2.07,0,0,1,.34-.15,2.91,2.91,0,0,1,.68-.16h0a1.6,1.6,0,0,1,1,.13.67.67,0,0,1,.31.34.64.64,0,0,1,0,.07C257.07,978,256.49,978.61,255.63,978.93Zm-.85-2.08-.73-.05a.36.36,0,0,0-.12.08l-.28.31,1,0a2.07,2.07,0,0,1,.34-.15,2.91,2.91,0,0,1,.68-.16Zm0,0-.73-.05a.36.36,0,0,0-.12.08l-.28.31,1,0a2.07,2.07,0,0,1,.34-.15,2.91,2.91,0,0,1,.68-.16Z"/><path class="cls-25" d="M255.65,1007.57h0v0Z"/><path class="cls-2" d="M264.18,1016.88c-.06.13-.12.27-.19.4l-.13.23a.53.53,0,0,1-.06.1,2.61,2.61,0,0,1-.17.28,2.75,2.75,0,0,1-.19.28.1.1,0,0,1,0,.05l-.21.29-.08.09-.21.25-.09.09a2.61,2.61,0,0,1-.23.24.46.46,0,0,1-.07.07,3,3,0,0,1-.26.24l-.06,0a2.78,2.78,0,0,1-.33.27,2.48,2.48,0,0,1-.26.19l-.2.14a7.3,7.3,0,0,1-1,.56l-.23.09a6.79,6.79,0,0,1-1.34.44l-.27.06-.35.05-.2,0c-.2,0-.4,0-.59,0H245.56l-.25,0h0l-.25,0-.34-.05-.16,0-.25-.06-.2-.05H244l-.2-.06h0l-.22-.08-.23-.08-.46-.19-.19-.09-.25-.13a2.39,2.39,0,0,1-.22-.12c-.21-.12-.41-.25-.61-.39a4,4,0,0,1-.39-.3l-.17-.13a8,8,0,0,1-1.21-1.32l-.11-.15a7.62,7.62,0,0,1-.64-1.11,2.39,2.39,0,0,1-.13-.28c-.05-.13-.11-.27-.16-.41C243.58,1019.6,257.28,1020.41,264.18,1016.88Z"/><path class="cls-4" d="M257.43,1017.79v27a7.46,7.46,0,0,1-.68,3.13c-6.9,3.53-20.6,2.73-25.37-.57a7.78,7.78,0,0,1-.44-2.56v-27c0-.16,0-.31,0-.46h0a7.5,7.5,0,0,1,.82-3,7.74,7.74,0,0,1,2.35-2.73h0a2.78,2.78,0,0,0,.32.26l.18.13.19.13.2.12.22.12.45.24.25.11c.16.07.33.15.51.21l.55.2.59.19.3.09.35.09.37.09c.49.11,1,.22,1.54.3l.4.06.31,0,.29,0,.45,0,.34,0c.53,0,1.08.07,1.63.09h.92c4.4,0,8.2-1,10.06-2.36a7.18,7.18,0,0,1,1.63,1.8,7.53,7.53,0,0,1,1.22,3.78C257.42,1017.53,257.43,1017.66,257.43,1017.79Z"/><path class="cls-17" d="M255.52,1010.79a2.9,2.9,0,0,1-.25.36l-.07-.08A2.06,2.06,0,0,0,255.52,1010.79Z"/><path class="cls-18" d="M240.63,1013.07l0-.06a14.34,14.34,0,0,1-2.22-.59c-1.23-.42-1.91-.93-1.83-1.46,0,0,0-.05,0-.08h0c0-.06,0-.13,0-.21a2.39,2.39,0,0,1,1-1.73.56.56,0,0,1,.13-.07,1.74,1.74,0,0,1,.53-.17,1.78,1.78,0,0,0-.26,0,8.68,8.68,0,0,0-1,.07h0a3,3,0,0,0-1.75.65c-.23.25-.48.45-.69.64a0,0,0,0,0,0,0,2.18,2.18,0,0,0-.37.38.86.86,0,0,0-.17.31h0a.07.07,0,0,0,0,.05v0a.57.57,0,0,0,0,.13,1.19,1.19,0,0,0,.18.59,1.4,1.4,0,0,0,.6.46l0,0a19.13,19.13,0,0,0,3.6,1.05c1.38.29,2.56.47,2.56.47Z"/><path class="cls-2" d="M255.78,1009.87a1.77,1.77,0,0,1-.18.77c0-.22-4.56-3.93-15.41-2.44,0,0-4.57.26-5.51,1.48a7.86,7.86,0,0,0-.53.77l-.17.31h0a.36.36,0,0,0,0,.09h0c-.1.25-.06.33-.06.33a1.06,1.06,0,0,1,.08-.34h0l0-.07a2,2,0,0,1,.42-.58,6.84,6.84,0,0,1,3.58-1.51h0c.47-.09,1-.17,1.57-.23A37.71,37.71,0,0,1,252,1009c1.51.45,3.39,1.64,3.25,2a31.54,31.54,0,0,1-14.57,2,23.44,23.44,0,0,1-6.5-1.5,4.89,4.89,0,0,1-.39-.4,2,2,0,0,1-.52-1.3c0-2.39,5.05-4.32,11.28-4.32S255.78,1007.48,255.78,1009.87Z"/><path class="cls-19" d="M237.78,1008.75c.59-.06-3.68,1.64-3.16,2.26a4.09,4.09,0,0,1,.65,1l-1.14-.41-.17-.72s-.15-.33.57-.79A11.26,11.26,0,0,1,237.78,1008.75Z"/><path class="cls-20" d="M255.6,1010.64h0l-.08.13h0l-.06.07a3.18,3.18,0,0,1-.26.21c.14-.4-1.74-1.59-3.25-2a37.71,37.71,0,0,0-12.39-.57c-.58.06-1.1.14-1.57.23h0a6.84,6.84,0,0,0-3.58,1.51,2,2,0,0,0-.42.58l0,.07h0a1.06,1.06,0,0,0-.08.34s0-.08.06-.33h0a.36.36,0,0,1,0-.09h0l.17-.31a7.86,7.86,0,0,1,.53-.77c.94-1.22,5.51-1.48,5.51-1.48C251,1006.71,255.56,1010.42,255.6,1010.64Z"/><path class="cls-21" d="M255.6,1010.64h0a.31.31,0,0,1-.08.13h0l-.06.07a3.18,3.18,0,0,1-.26.21c.14-.4-1.74-1.59-3.25-2a37.71,37.71,0,0,0-12.39-.57c-.58.06-1.1.14-1.57.23h0a6.84,6.84,0,0,0-3.58,1.51,2,2,0,0,0-.42.58l0,.07h0a1.06,1.06,0,0,0-.08.34s0-.08.06-.33h0a.36.36,0,0,1,0-.09h0l.17-.31a7.86,7.86,0,0,1,.53-.77c.94-1.22,5.51-1.48,5.51-1.48C251,1006.71,255.56,1010.42,255.6,1010.64Z"/><path class="cls-5" d="M255.27,1011.15a3.83,3.83,0,0,1-.71.67c-1.86,1.4-5.66,2.37-10.06,2.37h-.92c-.55,0-1.1,0-1.63-.09l-.34,0-.45,0-.3,0-.3-.05-.4-.06c-.54-.08-1-.18-1.54-.3l-.37-.09-.35-.09-.3-.09-.59-.18-.55-.2-.51-.22-.25-.11a4.76,4.76,0,0,1-.45-.24,1.55,1.55,0,0,1-.22-.12l-.2-.12-.19-.13-.18-.13a2.78,2.78,0,0,1-.32-.26,16.84,16.84,0,0,0,2.3.75l.3.08c.36.09.75.18,1.17.26l.3.06.37.07.61.1.35.05.35,0,.74.08.73.07q.87.06,1.83.09h.54a31.06,31.06,0,0,0,6.83-.76l.15,0,.22-.05c1-.23,1.95-.51,3-.85h0c.43-.15.86-.3,1.29-.47Z"/><path class="cls-4" d="M255.78,1009.64a1.77,1.77,0,0,1-.18.77h0a.41.41,0,0,1-.08.14h0l-.06.06a5.15,5.15,0,0,0-.78-.75c-.82-.69-2.56-1.11-5-1.71s-2.68-.48-7.13-.34a24.83,24.83,0,0,0-5.55.7h0a6.86,6.86,0,0,0-1.74.66,2.58,2.58,0,0,0-.7.64h0l-.11.14c-.15.19-.3.4-.42.58l0,0h0l0,0h0l-.2.3a2,2,0,0,1-.52-1.3c0-2.38,5.05-4.32,11.28-4.32S255.78,1007.26,255.78,1009.64Z"/><path class="cls-22" d="M234.82,1013.91c-1.14.57-1.14.74-1.59,2a24.23,24.23,0,0,0-1,4.1c-.06.57.8-.12.85-.57a9.4,9.4,0,0,1,.17-1.88,19.37,19.37,0,0,1,1-2.38Z"/><path class="cls-22" d="M232.31,1021.65c-.11.45-.57,1-.05.91s.4-.23.57-.63S232.31,1021.65,232.31,1021.65Z"/><path class="cls-22" d="M249.72,1006.35c3.14.86,4.74,1.65,5,2.16Z"/><path class="cls-23" d="M243.13,1011.12a2.44,2.44,0,0,0-2.29-1c-1.17.09-3.37-.19-3.61,0s-.64.48-.69.65.3.66.64.76a3.19,3.19,0,0,0,2.19.55,19,19,0,0,1,2.49-.26C242.79,1011.73,243.18,1011.25,243.13,1011.12Z"/><path class="cls-24" d="M247.4,1007.94l-.79-.05a.28.28,0,0,0-.11.08l-.28.3.95.06h0l.34-.16a2.9,2.9,0,0,1,.61-.16Zm0,0-.79-.05a.28.28,0,0,0-.11.08l-.28.3.95.06h0l.34-.16a2.9,2.9,0,0,1,.61-.16Zm0,0-.79-.05a.28.28,0,0,0-.11.08l-.28.3.95.06h0l.34-.16a2.9,2.9,0,0,1,.61-.16Zm3,.76,0-.16v0l-.07-.16,0,0-.23-.53a.41.41,0,0,0-.24-.21l-1.1-.36a.39.39,0,0,0-.26,0l-1.4.52h0l-.35.12,0,0a.28.28,0,0,0-.11.08l-.28.3-.2.22a.36.36,0,0,1-.28.12h-.12a.28.28,0,0,0-.13,0l-2.37,1a.39.39,0,0,0-.23.26l-.18.67a.17.17,0,0,0,0,.07h0a.3.3,0,0,0,0,.16l.22.59,0,0a.37.37,0,0,0,.25.22l.37.1a.39.39,0,0,0,.24,0l2.51-.87.07,0,.2-.11a.3.3,0,0,1,.15-.05l.75-.08.1,0,1.89-.7a.32.32,0,0,0,.12-.08l.69-.61a.41.41,0,0,0,.13-.39Zm-5.51,2.07c-.53.19-1.05.1-1.15-.19s.22-.7.75-.89,1-.11,1.15.19S245.43,1010.58,244.9,1010.77Zm3.3-.76c-.9.34-1.79.19-2-.32s.26-1,.95-1.36h0l.34-.16a2.9,2.9,0,0,1,.61-.16h0a1.79,1.79,0,0,1,1,.14.59.59,0,0,1,.33.41C249.64,1009.06,249.06,1009.69,248.2,1010Zm-.8-2.07-.79-.05a.28.28,0,0,0-.11.08l-.28.3.95.06h0l.34-.16a2.9,2.9,0,0,1,.61-.16Zm0,0-.79-.05a.28.28,0,0,0-.11.08l-.28.3.95.06h0l.34-.16a2.9,2.9,0,0,1,.61-.16Z"/><path class="cls-25" d="M248.22,1038.66h0v0Z"/><path class="cls-2" d="M256.75,1048c-.06.14-.12.27-.19.4l-.13.23a.33.33,0,0,1-.06.1,2.61,2.61,0,0,1-.17.28,2.9,2.9,0,0,1-.19.29l0,0-.21.28-.08.1-.21.24-.09.1-.23.24-.07.07-.26.24-.06.05-.33.27a2.48,2.48,0,0,1-.26.19l-.2.14a7.23,7.23,0,0,1-1,.55l-.23.1a8.41,8.41,0,0,1-1.34.44l-.27,0-.35.06-.2,0c-.2,0-.4,0-.59,0H238.13l-.25,0h0l-.25,0-.34-.06-.16,0-.25,0-.2,0-.06,0-.2-.06h0l-.22-.07-.23-.08-.46-.19-.19-.09-.25-.13-.22-.12a5.81,5.81,0,0,1-.61-.4,4,4,0,0,1-.39-.29l-.17-.14a7.59,7.59,0,0,1-1.21-1.32,1.71,1.71,0,0,1-.11-.14,7.62,7.62,0,0,1-.64-1.11c0-.1-.09-.19-.13-.29s-.11-.26-.16-.4C236.15,1050.69,249.85,1051.49,256.75,1048Z"/><path class="cls-4" d="M1071.29,938.89v21.78a6.14,6.14,0,0,1-.54,2.53c-5.54,2.84-16.53,2.19-20.35-.47a6.1,6.1,0,0,1-.35-2.06V938.89c0-.13,0-.25,0-.37h0a6.17,6.17,0,0,1,2.54-4.63h0a3,3,0,0,0,.26.21.71.71,0,0,0,.14.1l.15.11.17.1.17.09c.11.07.24.13.36.19l.2.09.41.18.44.16.47.15.25.07.28.07.29.07c.39.1.81.18,1.24.25l.32,0,.25,0,.23,0,.36,0,.28,0c.42,0,.86.06,1.31.07h.73c3.53,0,6.58-.78,8.08-1.91a6.19,6.19,0,0,1,2.28,4.5C1071.29,938.68,1071.29,938.78,1071.29,938.89Z"/><path class="cls-17" d="M1069.76,933.25a1.37,1.37,0,0,1-.2.29l0-.06A1.26,1.26,0,0,0,1069.76,933.25Z"/><path class="cls-18" d="M1057.81,935.09l0-.05c-2.06-.41-3.34-1-3.25-1.65a.1.1,0,0,1,0-.07s0,0,0,0h0s0-.09,0-.13h0a1.72,1.72,0,0,1,1.33-1.59h-.21a5.36,5.36,0,0,0-.8.06h0a2.46,2.46,0,0,0-1.4.53c-.19.2-.39.36-.56.52l0,0a1.9,1.9,0,0,0-.28.29c0,.1-.1.18-.13.25a.08.08,0,0,0,0,0v0a.87.87,0,0,0,.14.58,1.17,1.17,0,0,0,.48.37h0a26.1,26.1,0,0,0,5,1.23Z"/><path class="cls-2" d="M1070,932.51a1.51,1.51,0,0,1-.14.62c0-.18-3.66-3.17-12.37-2,0,0-3.66.2-4.42,1.19a5.74,5.74,0,0,0-.42.61,2.36,2.36,0,0,0-.14.26h0l0,.08h0c-.08.2,0,.26,0,.26a.79.79,0,0,1,.07-.27h0a.08.08,0,0,1,0,0,1.51,1.51,0,0,1,.34-.47,5.31,5.31,0,0,1,2.87-1.22h0c.37-.07.79-.14,1.26-.19a30.37,30.37,0,0,1,9.94.46c1.21.37,2.72,1.33,2.61,1.65a25.33,25.33,0,0,1-11.69,1.61,18.68,18.68,0,0,1-5.22-1.21c-.11-.11-.22-.21-.31-.32a1.67,1.67,0,0,1-.42-1c0-1.92,4.05-3.48,9.05-3.48S1070,930.59,1070,932.51Z"/><path class="cls-19" d="M1055.53,931.61c.48-.05-3,1.32-2.54,1.82a3.3,3.3,0,0,1,.53.78l-.92-.33-.13-.58s-.13-.27.45-.63A8.7,8.7,0,0,1,1055.53,931.61Z"/><path class="cls-20" d="M1069.83,933.13h0l-.06.12h0l0,.06-.21.17c.11-.32-1.4-1.28-2.61-1.65a30.37,30.37,0,0,0-9.94-.46c-.47,0-.89.12-1.26.19h0a5.31,5.31,0,0,0-2.87,1.22,1.51,1.51,0,0,0-.34.47.08.08,0,0,0,0,0h0a.79.79,0,0,0-.07.27s0-.06,0-.26h0l0-.08h0a2.36,2.36,0,0,1,.14-.26,5.74,5.74,0,0,1,.42-.61c.76-1,4.42-1.19,4.42-1.19C1066.17,930,1069.8,933,1069.83,933.13Z"/><path class="cls-21" d="M1069.83,933.13h0a.34.34,0,0,1-.06.12h0l0,.06-.21.17c.11-.32-1.4-1.28-2.61-1.65a30.37,30.37,0,0,0-9.94-.46c-.47,0-.89.12-1.26.19h0a5.31,5.31,0,0,0-2.87,1.22,1.51,1.51,0,0,0-.34.47.08.08,0,0,0,0,0h0a.79.79,0,0,0-.07.27s0-.06,0-.26h0l0-.08h0a2.36,2.36,0,0,1,.14-.26,5.74,5.74,0,0,1,.42-.61c.76-1,4.42-1.19,4.42-1.19C1066.17,930,1069.8,933,1069.83,933.13Z"/><path class="cls-5" d="M1069.56,933.54a2.89,2.89,0,0,1-.56.54c-1.5,1.13-4.55,1.91-8.08,1.91h-.73c-.45,0-.89,0-1.31-.07l-.28,0-.36,0-.23,0-.25,0-.32,0c-.43-.07-.85-.15-1.24-.24l-.29-.08-.28-.07-.25-.07-.47-.15-.44-.16-.41-.18a.88.88,0,0,1-.2-.09c-.12-.06-.25-.12-.36-.19l-.17-.09-.17-.1-.15-.1-.15-.11-.25-.21a13.34,13.34,0,0,0,1.84.61l.25.06.94.21.24,0,.29.05.49.08.28,0,.28,0,.6.07.58,0c.47,0,1,.06,1.47.07h.43a25.43,25.43,0,0,0,5.48-.61l.12,0,.18,0a24.11,24.11,0,0,0,2.38-.69h0c.35-.11.69-.24,1-.37Z"/><path class="cls-4" d="M1070,932.32a1.56,1.56,0,0,1-.14.63h0a.3.3,0,0,1-.06.11h0l0,0a4.18,4.18,0,0,0-.63-.6c-.66-.56-2.06-.9-4-1.38s-2.16-.39-5.73-.27a20.08,20.08,0,0,0-4.45.56h0a5.45,5.45,0,0,0-1.4.53,2.35,2.35,0,0,0-.56.51h0a.76.76,0,0,0-.08.11c-.13.15-.24.32-.34.46l0,0h0l0,0h0c-.06.09-.12.17-.16.24a1.65,1.65,0,0,1-.42-1c0-1.92,4.05-3.47,9.05-3.47S1070,930.4,1070,932.32Z"/><path class="cls-22" d="M1053.16,935.77c-.92.46-.92.59-1.28,1.6a19.37,19.37,0,0,0-.78,3.3c0,.46.64-.09.68-.46a7.49,7.49,0,0,1,.14-1.51,15.24,15.24,0,0,1,.83-1.92C1052.93,936.32,1053.16,935.77,1053.16,935.77Z"/><path class="cls-22" d="M1051.14,942c-.09.36-.45.82,0,.73s.32-.18.46-.5S1051.14,942,1051.14,942Z"/><path class="cls-22" d="M1065.11,929.68c2.52.68,3.8,1.33,4,1.74Z"/><path class="cls-23" d="M1059.82,933.52a1.93,1.93,0,0,0-1.84-.85,25.49,25.49,0,0,0-2.89,0c-.2.18-.51.39-.55.53s.23.53.51.61a2.56,2.56,0,0,0,1.76.44c1-.15,1.25-.15,2-.21S1059.86,933.62,1059.82,933.52Z"/><path class="cls-24" d="M1062.62,930.91a.16.16,0,0,0-.09.07l-.23.24.76,0,.28-.13a2.08,2.08,0,0,1,.51-.12C1063.46,931,1063.05,930.93,1062.62,930.91Zm0,0a.16.16,0,0,0-.09.07l-.23.24.76,0,.28-.13a2.08,2.08,0,0,1,.51-.12C1063.46,931,1063.05,930.93,1062.62,930.91Zm0,0a.16.16,0,0,0-.09.07l-.23.24.76,0,.28-.13a2.08,2.08,0,0,1,.51-.12C1063.46,931,1063.05,930.93,1062.62,930.91Zm3,.65,0-.12v0l-.06-.13v0l-.19-.42a.31.31,0,0,0-.19-.18l-.88-.29a.3.3,0,0,0-.21,0l-1.11.41h0l-.29.1,0,0a.16.16,0,0,0-.09.07l-.23.24-.16.18a.29.29,0,0,1-.22.1h-.1a.23.23,0,0,0-.11,0l-1.9.77a.31.31,0,0,0-.18.21l-.15.54a.07.07,0,0,0,0,.05.59.59,0,0,0,0,.14l.18.48s0,0,0,0a.27.27,0,0,0,.19.18l.31.08a.28.28,0,0,0,.18,0l2-.7.06,0,.16-.09a.25.25,0,0,1,.12,0l.6-.06.08,0,1.51-.57a.17.17,0,0,0,.1-.06l.56-.49a.31.31,0,0,0,.1-.31Zm-4.42,1.67c-.42.16-.84.09-.92-.15s.18-.56.6-.72.84-.08.93.16S1061.66,933.08,1061.24,933.23Zm2.65-.6c-.72.26-1.44.14-1.59-.26s.2-.81.76-1.1l.28-.13a2.08,2.08,0,0,1,.51-.12h0a1.19,1.19,0,0,1,.77.1h0a.54.54,0,0,1,.25.27.09.09,0,0,1,0,.05C1065,931.85,1064.58,932.37,1063.89,932.63Zm-1.27-1.72a.16.16,0,0,0-.09.07l-.23.24.76,0,.28-.13a2.08,2.08,0,0,1,.51-.12C1063.46,931,1063.05,930.93,1062.62,930.91Zm0,0a.16.16,0,0,0-.09.07l-.23.24.76,0,.28-.13a2.08,2.08,0,0,1,.51-.12C1063.46,931,1063.05,930.93,1062.62,930.91Z"/><path class="cls-25" d="M1063.91,955.7h0v0Z"/><path class="cls-2" d="M1070.75,963.2c0,.1-.1.21-.15.32a1.62,1.62,0,0,0-.1.18.56.56,0,0,1,0,.08,1.76,1.76,0,0,1-.14.23l-.15.23,0,0-.17.23-.07.07-.16.2-.08.08a1.62,1.62,0,0,1-.18.19l-.06.06a1.8,1.8,0,0,1-.2.19l0,0-.27.22-.21.15-.16.12a6.69,6.69,0,0,1-.79.44l-.18.08a5.58,5.58,0,0,1-1.07.35l-.22,0-.28,0-.16,0-.48,0h-9.53l-.2,0h0l-.2,0-.27,0-.13,0-.2,0-.16,0-.05,0-.16,0h0l-.18-.06-.18-.07-.37-.15-.16-.07-.19-.11-.18-.09c-.17-.1-.33-.21-.49-.32a3.81,3.81,0,0,1-.32-.24l-.13-.11a6.11,6.11,0,0,1-1-1.06l-.09-.12a6,6,0,0,1-.51-.89,2.29,2.29,0,0,1-.1-.23c0-.11-.09-.22-.13-.33C1054.22,965.39,1065.21,966,1070.75,963.2Z"/><circle class="cls-4" cx="1594.02" cy="592.14" r="4.51"/><circle class="cls-4" cx="1616.86" cy="592.14" r="4.51"/><rect class="cls-4" x="1582.86" y="562.96" width="45.27" height="17.59" rx="1.67"/><path class="cls-10" d="M1135,753s-14-24.29-14-42.16,9.55-17.86,10.67-42.87-6.17-33.59-7.86-36.44,8.42,1.43,11.79,20,1.13,40.74-2.8,49.31-3.37,26.44,1.12,35A22.32,22.32,0,0,1,1135,753Z"/><path class="cls-10" d="M1210,750.47s12.67-18.67,12.67-32.4-8.61-13.72-9.63-32.94,5.57-25.81,7.09-28-7.59,1.1-10.63,15.38-1,31.3,2.53,37.89,3,20.31-1,26.9A14.84,14.84,0,0,0,1210,750.47Z"/><path class="cls-10" d="M1160.9,741.68s11.55-33.55,11.55-58.22-7.85-24.66-8.77-59.19,5.08-46.38,6.46-50.32-6.93,2-9.7,27.62-.92,56.24,2.31,68.08,2.77,36.51-.92,48.35S1160.9,741.68,1160.9,741.68Z"/><path class="cls-10" d="M226.19,961.37S218,947.27,218,936.91s5.54-10.37,6.19-24.88-3.58-19.5-4.56-21.15,4.89.83,6.84,11.61.65,23.63-1.63,28.61-1.95,15.34.65,20.32A13,13,0,0,1,226.19,961.37Z"/><path class="cls-10" d="M269.71,959.88s7.34-10.83,7.34-18.8-5-8-5.58-19.12,3.23-15,4.11-16.25-4.41.64-6.17,8.92-.59,18.16,1.47,22,1.76,11.79-.59,15.61A8.61,8.61,0,0,0,269.71,959.88Z"/><path class="cls-10" d="M241.22,954.78s6.7-19.47,6.7-33.79-4.56-14.31-5.09-34.35,2.94-26.91,3.75-29.2-4,1.14-5.63,16-.54,32.64,1.34,39.51,1.61,21.18-.54,28A29.31,29.31,0,0,0,241.22,954.78Z"/><path class="cls-5" d="M224.36,1064.21a6.06,6.06,0,0,1-1.06,3.4,8.56,8.56,0,0,1-6.86,2.81H203.65v-.06H192.22a7.3,7.3,0,0,1-6.16-2.82c-1.35-1.51-1-6.83-1-7.41s.07-20.53.07-25.58.31-7.28.75-14.36,5.55-18.68,5.55-18.68a176.41,176.41,0,0,0,5.64-19.22,68.15,68.15,0,0,0,.26-9.83c0-.66,0-1.05,0-1.05-.15-3.28-.61-3.34-1.13-4.33s0-2.24.08-3.22.59-5.5.82-7.93a2.49,2.49,0,0,1,2.55-2.36H202l1.65,0,1.82,0h2.71s2.6-.07,2.84,2.36.84,6.94.93,7.93.66,2.23.08,3.21-1.08,1.05-1.25,4.33c0,0-.33,8.13.24,10.88a167.57,167.57,0,0,0,6.28,19.22s5.69,11.61,6.2,18.69.82,9.31.82,14.35.09,25,.09,25.58A34.89,34.89,0,0,1,224.36,1064.21Z"/><path class="cls-16" d="M224.36,1064.21l-27-91.75c0-.66,0-1.05,0-1.05-.15-3.28-.61-3.34-1.13-4.33s0-2.24.08-3.22.59-5.5.82-7.93a2.49,2.49,0,0,1,2.55-2.36H202l1.65,0,1.82,0h2.71s2.6-.07,2.84,2.36.84,6.94.93,7.93.66,2.23.08,3.21-1.08,1.05-1.25,4.33c0,0-.33,8.13.24,10.88a167.57,167.57,0,0,0,6.28,19.22s5.69,11.61,6.2,18.69.82,9.31.82,14.35.09,25,.09,25.58A34.89,34.89,0,0,1,224.36,1064.21Z"/><polygon class="cls-26" points="1919.43 672.54 1919.43 1086.76 564.43 1086.76 570.32 1077.36 572.15 1074.44 577.04 1066.64 578.15 1064.86 578.66 1064.05 602.05 1026.71 609.88 1014.22 634.76 974.51 642.59 962.02 642.59 962.01 645.7 957.05 743.98 800.16 878.57 585.31 883.91 576.79 886.39 572.83 891.74 564.3 978.87 425.23 984.2 416.7 986.68 412.74 992.02 404.21 1121.29 197.87 1723.71 197.87 1917.44 667.71 1919.43 672.54"/><polygon class="cls-2" points="1921.19 -5.38 1921.19 -2.73 1723.06 166.34 203.7 166.34 1.33 -5.17 1.08 -5.38 1921.19 -5.38"/><path class="cls-22" d="M198.8,993.41s-7.42,12.2-7.75,19.12-2.47,21.6-1.32,20.94,2.31-19.12,3.13-21.6S198.8,993.41,198.8,993.41Z"/><path class="cls-22" d="M972.83,909.54s-7.42,12.2-7.75,19.12-2.48,21.6-1.32,20.94,2.31-19.12,3.13-21.6S972.83,909.54,972.83,909.54Z"/></g><g id="Layer_6" data-name="Layer 6"><polygon class="cls-27" points="806.44 184.46 806.44 184.5 804.37 184.46 806.44 184.46"/></g></svg>