<svg xmlns="http://www.w3.org/2000/svg" width="125" height="200" viewBox="0 0 125 200"><defs><style>.cls-1{fill:#31b197;}.cls-2{fill:#a7a2a2;}.cls-3{fill:#d0ced0;}.cls-4{fill:#fff;}.cls-5{fill:#eb605a;}.cls-6{fill:#008e6b;}.cls-7{fill:#050606;}.cls-8{fill:#cc4d4a;}.cls-9{fill:#eeeeef;}.cls-10{fill:#78c4b3;opacity:0.37;}.cls-11{fill:#2a9e82;opacity:0.28;}.cls-12{fill:#a7a7a6;}</style></defs><g id="Layer_3" data-name="Layer 3"><path class="cls-1" d="M120.09,182.16c0,8.44-26.36,15.27-58.89,15.27-14.88,0-28.47-1.42-38.84-3.79-2.7-.61-5.18-1.29-7.4-2C9.91,190,6.15,188,4.1,185.9a5.38,5.38,0,0,1-1.79-3.74c0-3.57,4.73-6.86,12.65-9.45,2.2-.73,4.66-1.4,7.33-2l2.48-.53,1.7-.34a191.68,191.68,0,0,1,34.73-2.93c4.57,0,9,.14,13.28.4C100.62,168.84,120.09,174.91,120.09,182.16Z"/><rect class="cls-1" x="2.31" y="38.66" width="117.78" height="143.51"/><ellipse class="cls-2" cx="61.2" cy="38.66" rx="58.89" ry="15.27"/><path class="cls-3" d="M122.67,38.55c-.5,4.21-7.61,6.53-18.66,6.86-1.16.05-2.36.06-3.61,0l-.83-.58-5.23.39L85,46l.65-1.44c-1.91-.22-3.87-.46-5.87-.76L72.1,44l1.34-1.23C71.23,42.38,69,42,66.7,41.49l-7-.11,3-.77,2.06-.54-5.24-.19L47,39.42l5.27-1.36,1.48-.39L48.47,37c-1-.3-2-.6-3-.92-1.22-.37-2.43-.75-3.62-1.14l-5.27-.08,1.56-1.18.18-.13-1.56-.36-6.94-1.6,1-.66c-.71-.29-1.39-.57-2.06-.86l-4.41,1.08-.4-3.22c-1-.48-1.93-.94-2.84-1.42l-.21-.1c-1.31-.67-2.54-1.36-3.68-2-.28-.16-.55-.31-.8-.47a47.61,47.61,0,0,1-4.61-3.16c-.49-.38-.94-.75-1.36-1.13a16.44,16.44,0,0,1-2.77-3.05L6.24,16.3l.6-1.21h0l.26-.52-.64-.71L4.71,11.94l2.33-1A7.07,7.07,0,0,1,9.71,8.6l.23-1.24,9.82-1.52L19.1,4.31l7,1.08.22-2.82L36.12,6l.87.31L36.78,6,34.15,2.78,49.42,7.14l.87-3.27L59.53,9.1l.79.44V7.36l8.94,3.49L72.53,9.1l3.67,3.83,1.35,1.41-.28-1.11-.37-1.51,12.86,4.8,2.84-1.31,3.25,4.08L97,20.67l1.29-.45c2,.8,3.85,1.62,5.62,2.43l1.6.85.15,0q2.5,1.2,4.68,2.42l.84.88.31-.24,1.64-1.29,3,4.29c.6.44,1.16.87,1.68,1.3l1.84-1,.79,3.51C122.06,35.18,122.85,36.94,122.67,38.55Z"/><path class="cls-4" d="M29.67,67l8.51,1-.27,2.23-2.85-.34-.83,6.82-2.8-.34.83-6.82-2.86-.34Z"/><path class="cls-4" d="M38.12,72.63A4.32,4.32,0,0,1,43.2,68.3a4.77,4.77,0,0,1,3.4,1.5,4.6,4.6,0,0,1,.95,3.51,5.58,5.58,0,0,1-.74,2.57,3.9,3.9,0,0,1-1.68,1.46,5.11,5.11,0,0,1-2.58.37,5.78,5.78,0,0,1-2.5-.7,3.81,3.81,0,0,1-1.51-1.68A5.21,5.21,0,0,1,38.12,72.63Zm2.81.24a3.15,3.15,0,0,0,.35,2,1.78,1.78,0,0,0,1.35.71,1.73,1.73,0,0,0,1.45-.48,3.37,3.37,0,0,0,.66-2.07,2.83,2.83,0,0,0-.36-1.92A1.82,1.82,0,0,0,43,70.42a1.7,1.7,0,0,0-1.41.5A3.06,3.06,0,0,0,40.93,72.87Z"/><path class="cls-4" d="M49.16,68.91l3.7.12,1.26,5.59,1.59-5.5,3.7.12-.28,9.11-2.31-.07.22-7-2,6.89L53,78.16l-1.55-7-.22,6.95L48.87,78Z"/><path class="cls-4" d="M66.71,76.71l-3.2.07L63.1,78.3l-2.88.06,3.23-9.2,3.07-.06,3.63,9-3,.07Zm-.63-2L65,71.5l-.92,3.3Z"/><path class="cls-4" d="M69.08,69.05l8.54-.6.16,2.25-2.87.2.48,6.86L72.58,78,72.1,71.1l-2.87.2Z"/><path class="cls-4" d="M78.32,73a4.33,4.33,0,0,1,4.05-5.31,4.77,4.77,0,0,1,3.64.75,4.61,4.61,0,0,1,1.67,3.24,5.58,5.58,0,0,1-.19,2.67,3.79,3.79,0,0,1-1.33,1.78,5,5,0,0,1-2.44.9,5.74,5.74,0,0,1-2.6-.15,3.88,3.88,0,0,1-1.83-1.33A5.25,5.25,0,0,1,78.32,73Zm2.8-.36a3,3,0,0,0,.77,1.9,1.73,1.73,0,0,0,1.46.41,1.76,1.76,0,0,0,1.32-.77A3.33,3.33,0,0,0,84.88,72a2.85,2.85,0,0,0-.76-1.8,1.81,1.81,0,0,0-1.48-.4,1.66,1.66,0,0,0-1.27.78A3,3,0,0,0,81.12,72.64Z"/><path class="cls-5" d="M98.8,134.66c0,17.1-17.38,31-38.83,31h-.81c-21.07-.34-38-14.08-38-31,0-17.11,17.38-31,38.82-31a47,47,0,0,1,7.29.55C85.23,106.94,98.8,119.54,98.8,134.66Z"/><path class="cls-6" d="M59.23,105.21V107h1.65v-1.89a11.55,11.55,0,0,1,9.79-4s3.89.59,6.37,1.07,7.19-3.42,8.13-3.9c0,0-3.18-7.78-11.32-3.42s-12.73,5.43-13.68,7.9Z"/><path class="cls-6" d="M60.41,105V106H59.17v-1.16a9.47,9.47,0,0,0-7.34-2.46s-2.92.37-4.77.65S41.66,101,41,100.69c0,0,2.39-4.77,8.49-2.09s9.55,3.32,10.26,4.84Z"/><path class="cls-7" d="M97.39,120.19l-2.37.59s-5.28-.94-8,1.17a4.83,4.83,0,0,1-.91.55c-2.43,1.27-7.6,2.76-11.28,3.73-2.39.62-4.14,1-4.14,1s1.75-.84,4.31-2c2.78-1.24,6.49-2.85,9.91-4.11,3.24-1.22,6.22-2.13,7.88-2.17C97.76,118.88,97.39,120.19,97.39,120.19Z"/><path class="cls-8" d="M59.16,165.62c-21.07-.34-38-14.08-38-31,0-17.11,17.38-31,38.82-31a47,47,0,0,1,7.29.55C40,108.09,50.36,113.68,39,128.71,29.08,141.87,50.73,159.49,59.16,165.62Z"/><path class="cls-7" d="M54.34,127.32s-1.87-.39-4.45-1a101.7,101.7,0,0,1-12.81-3.59,9,9,0,0,1-1.47-.74c-3.14-2.13-9.21-1.18-9.21-1.18l-2.71-.59s-.43-1.3,5.3-1.18c2,0,5.52,1,9.37,2.27s8.23,2.91,11.36,4.12C52.47,126.54,54.34,127.32,54.34,127.32Z"/><path class="cls-7" d="M49.44,127.38a8,8,0,0,1-16,0,7.3,7.3,0,0,1,1.64-4.62,7.18,7.18,0,0,1,1.44-1.42c4.43,1.3,9.19,2.91,12.69,4.12a5.42,5.42,0,0,1,.19.89A7,7,0,0,1,49.44,127.38Z"/><path class="cls-7" d="M91.78,127.38a8,8,0,0,1-16,0,5.47,5.47,0,0,1,.1-1.15,4.76,4.76,0,0,1,.21-.94c3.47-1.24,8.11-2.85,12.38-4.11a6.53,6.53,0,0,1,1.5,1.32A7.37,7.37,0,0,1,91.78,127.38Z"/><circle class="cls-9" cx="84.18" cy="128.68" r="2.36"/><circle class="cls-9" cx="41.33" cy="129.09" r="2.36"/><path class="cls-7" d="M47.88,150.22s13.71-13.35,25.47,0c0,0-7-4.06-11.76-4.06S47.88,150.22,47.88,150.22Z"/><path class="cls-10" d="M20,192.55c-2.69-.61-5.17-1.29-7.4-2v-143l7,1.74.23,77.27,0,14.29.09,28.81,0,11.47v2.3Z"/><path class="cls-10" d="M26.52,194.39a16.79,16.79,0,0,1-1.74-.59V152.61l1.64.5.08,34.67v6.61Z"/><path class="cls-4" d="M5.25,47.6a3.57,3.57,0,0,1,2.47,2.62c.7,2.29-1.24,14.39-1.59,27.48s-1.06,16.35-1.24,15S5.25,47.6,5.25,47.6Z"/><path class="cls-11" d="M120.09,125.48v56.68c0,8.44-26.36,15.27-58.89,15.27-14.88,0-28.47-1.42-38.84-3.79-2.7-.61-5.18-1.29-7.4-2C9.91,190,6.15,188,4.1,185.9c3.72-.09,7.34-.31,10.86-.62,2.51-.22,5-.5,7.38-.82l2.43-.35c.58-.08,1.16-.18,1.73-.27q4.5-.72,8.78-1.68a141.3,141.3,0,0,0,39.2-14.87A137.52,137.52,0,0,0,120.09,125.48Z"/><path class="cls-12" d="M64.85,14.21c-27.81-4.87-39-7.92-42.4-4.3a32.69,32.69,0,0,1,7.35-.23C33.76,10,64.85,14.21,64.85,14.21Z"/></g></svg>