<svg xmlns="http://www.w3.org/2000/svg" width="105" height="185" viewBox="0 0 105 185"><defs><style>.cls-1{fill:#8bc166;}.cls-2{fill:#b3b3b2;}.cls-3{fill:#a4a1a3;}.cls-4{fill:#a7a2a2;}.cls-5{fill:#d0ced0;}.cls-6{fill:#2c2e33;}.cls-7{fill:#919191;}.cls-8{fill:#acaca0;}.cls-9{fill:#f0edf0;}.cls-10{fill:#5a5656;}.cls-11{fill:#fbfaf9;}.cls-12{fill:#fff;}.cls-13{fill:#af7631;}.cls-14{fill:#844e13;}.cls-15{fill:#af5e17;}.cls-16{fill:#eeeeef;}.cls-17{fill:#c8a648;}.cls-18{fill:#f1cc5a;}</style></defs><g id="Layer_3" data-name="Layer 3"><path class="cls-1" d="M103.1,49.82V153.54a29.22,29.22,0,0,1-2.58,12A75.06,75.06,0,0,1,80.92,172a132.48,132.48,0,0,1-20.41,2.28,157.69,157.69,0,0,1-19.12-.43c-15.74-1.34-29.95-5-37.81-10.48l-.07-.21a29.41,29.41,0,0,1-1.61-9.61V49.82c0-.59,0-1.18.06-1.76v0A29,29,0,0,1,5.11,36.44a29.52,29.52,0,0,1,9-10.49h0a15.38,15.38,0,0,0,1.23,1c.22.17.45.34.7.5l.73.49.77.47.81.46c.55.31,1.1.61,1.71.88,0,0,0,0,0,0,.3.15.62.29.93.43.64.27,1.29.55,2,.82s1.38.52,2.1.76,1.47.49,2.23.72l1.17.34c.44.13.9.24,1.35.36s.91.23,1.39.33c1.86.44,3.83.84,5.87,1.16l1.55.23,1.16.17,1.13.13,1.72.2,1.3.13c2,.17,4.11.3,6.25.36.44,0,.89,0,1.34,0l2.15,0a98.77,98.77,0,0,0,22.54-2.46,58.54,58.54,0,0,0,8.45-2.61,31.52,31.52,0,0,0,7.47-4,29.46,29.46,0,0,1,10.89,21.43C103.09,48.82,103.1,49.32,103.1,49.82Z"/><path class="cls-2" d="M95.8,23a12.5,12.5,0,0,1-.94,1.38l-.27-.32A7.16,7.16,0,0,0,95.8,23Z"/><path class="cls-3" d="M38.91,31.72l-.15-.25c-9.81-2-15.92-4.8-15.48-7.85s1.52-7.85,6.54-8.72c0,0-.38,0-1,0h0a31.83,31.83,0,0,0-3.85.28h0c-2.49.33-5.29,1-6.67,2.53a35.94,35.94,0,0,1-2.66,2.45s0,0,0,0a10.5,10.5,0,0,0-1.41,1.43,3.9,3.9,0,0,0-.65,1.22h0a1.06,1.06,0,0,0,0,.19h0a.19.19,0,0,0,0,.1s0,0,0,0A4.14,4.14,0,0,0,14.08,26a5.27,5.27,0,0,0,2.31,1.76C22.9,31,40.07,33.65,40.07,33.65Z"/><path class="cls-4" d="M96.81,19.43a7,7,0,0,1-.69,3C96,21.56,78.7,7.31,37.23,13.05c0,0-17.45,1-21,5.66a32.37,32.37,0,0,0-2,2.94c-.28.48-.49.89-.65,1.22h0c-.06.13-.1.26-.16.36h0c-.36.95-.21,1.24-.21,1.24a3.76,3.76,0,0,1,.3-1.29s0,0,0,0,.07-.15.12-.23a7.45,7.45,0,0,1,1.6-2.22c2-2,5.89-4.31,13.67-5.82h0q2.67-.52,6-.89c21.92-2.4,41.55.44,47.33,2.19s13,6.31,12.43,7.84a120.18,120.18,0,0,1-55.68,7.67C23.5,30.14,14.08,26,14.08,26a14,14,0,0,1-1.48-1.51,7.87,7.87,0,0,1-2-5c0-9.14,19.31-16.56,43.12-16.56S96.81,10.29,96.81,19.43Z"/><path class="cls-5" d="M28,15.15C30.29,14.92,14,21.44,16,23.83a15.62,15.62,0,0,1,2.49,3.7L14.08,26l-.65-2.75s-.57-1.28,2.17-3S25,15.45,28,15.15Z"/><path class="cls-6" d="M96.12,22.4h0c-.09.18-.18.35-.29.53,0,0,0,0,0,0l-.22.24a8.24,8.24,0,0,1-1,.82c.55-1.53-6.65-6.1-12.43-7.84S56.75,11.62,34.83,14q-3.33.36-6,.89h0C21,16.42,17.13,18.75,15.15,20.73A7.45,7.45,0,0,0,13.55,23c-.05.08-.08.16-.12.23s0,0,0,0a3.76,3.76,0,0,0-.3,1.29s-.15-.29.21-1.24h0c.06-.1.1-.23.16-.36h0c.16-.33.37-.74.65-1.22a32.37,32.37,0,0,1,2-2.94c3.59-4.69,21-5.66,21-5.66C78.7,7.31,96,21.56,96.12,22.4Z"/><path class="cls-7" d="M96.12,22.4h0a1.28,1.28,0,0,1-.29.53s0,0,0,0l-.22.24a8.24,8.24,0,0,1-1,.82c.55-1.53-6.65-6.1-12.43-7.84S56.75,11.62,34.83,14q-3.33.36-6,.89h0C21,16.42,17.13,18.75,15.15,20.73A7.45,7.45,0,0,0,13.55,23c-.05.08-.08.16-.12.23s0,0,0,0a3.76,3.76,0,0,0-.3,1.29s-.15-.29.21-1.24h0c.06-.1.1-.23.16-.36h0c.16-.33.37-.74.65-1.22a32.37,32.37,0,0,1,2-2.94c3.59-4.69,21-5.66,21-5.66C78.7,7.31,96,21.56,96.12,22.4Z"/><path class="cls-8" d="M94.86,24.37a15.07,15.07,0,0,1-2.7,2.54C85.05,32.3,70.51,36,53.71,36l-2.16,0c-.44,0-.89,0-1.34,0-2.13-.06-4.22-.18-6.25-.36l-1.3-.13c-.57-.05-1.15-.12-1.72-.19l-1.13-.14L38.66,35q-.79-.1-1.56-.24c-2-.32-4-.71-5.87-1.15l-1.39-.34c-.45-.12-.91-.23-1.35-.36l-1.17-.34c-.76-.23-1.5-.46-2.23-.71s-1.43-.5-2.1-.77-1.33-.54-2-.82l-.93-.43q-.91-.43-1.74-.9c-.28-.15-.55-.31-.82-.47L16.76,28c-.26-.16-.5-.33-.73-.49a7.32,7.32,0,0,1-.7-.5,15.38,15.38,0,0,1-1.23-1,65.69,65.69,0,0,0,8.8,2.89l1.16.29c1.36.35,2.86.68,4.47,1l1.16.23,1.4.25c.75.14,1.53.27,2.33.39.43.07.87.14,1.32.19l1.36.19c.91.13,1.85.23,2.81.32s1.83.19,2.78.26c2.23.17,4.55.29,7,.33.67,0,1.37,0,2.06,0a119.61,119.61,0,0,0,26.09-2.91l.58-.14.84-.19c3.68-.86,7.47-1.94,11.34-3.25h.06c1.63-.56,3.28-1.15,4.93-1.79Z"/><path class="cls-5" d="M96.81,18.56a6.93,6.93,0,0,1-.69,3v0h0a1.34,1.34,0,0,1-.29.53l0,0a2.62,2.62,0,0,1-.22.25,21,21,0,0,0-3-2.89c-3.16-2.64-9.81-4.25-19.18-6.54s-10.26-1.86-27.26-1.3A94.33,94.33,0,0,0,25,14.32h0a28.47,28.47,0,0,0-6.67,2.52,11.09,11.09,0,0,0-2.66,2.46l0,0-.41.51c-.59.75-1.14,1.52-1.6,2.22l-.09.12h0a1,1,0,0,1-.12.16h0c-.29.44-.54.85-.74,1.18a7.83,7.83,0,0,1-2-5C10.59,9.42,29.9,2,53.71,2S96.81,9.42,96.81,18.56Z"/><path class="cls-9" d="M16.73,35c-4.36,2.18-4.36,2.84-6.1,7.63A96.09,96.09,0,0,0,6.92,58.3c-.22,2.18,3.05-.44,3.27-2.19s-.22-3.92.65-7.19,3.06-7,3.93-9.16S16.73,35,16.73,35Z"/><path class="cls-9" d="M7.14,64.62C6.7,66.37,5,68.55,6.92,68.11s1.53-.87,2.18-2.4S7.14,64.62,7.14,64.62Z"/><path class="cls-9" d="M73.65,6c12,3.28,18.11,6.33,19,8.29Z"/><path class="cls-10" d="M47.82,25.34a7.08,7.08,0,0,1-4.2,1.5,77.82,77.82,0,0,0-9.51,1,9.62,9.62,0,0,1-5.62-.68,14.85,14.85,0,0,1-1.39-.71,10.21,10.21,0,0,0-1.38-.71c-1.3-.41-2.6-2.26-2.42-2.93s1.67-1.68,2.61-2.51,9.32.25,13.8-.08a10.55,10.55,0,0,1,7.1,2.06,4.91,4.91,0,0,1,1.66,2C48.55,24.46,48.34,24.89,47.82,25.34Z"/><path class="cls-11" d="M76.36,15.22l-.07-.29-.15-.61v0l0,0-.27-.64,0-.11-.89-2a1.53,1.53,0,0,0-.92-.82L69.8,9.27a1.46,1.46,0,0,0-1,0l-5.44,2h0l-1.41.5a.44.44,0,0,0-.18.09,1,1,0,0,0-.41.31l-1,1.14-.78.84a1.51,1.51,0,0,1-1.06.49l-.47,0a1.32,1.32,0,0,0-.52.12l-9,3.68a1.57,1.57,0,0,0-.89,1L46.86,22a1,1,0,0,0,0,.29,1.5,1.5,0,0,0,.08.63l.86,2.29a.28.28,0,0,0,.07.13,1.46,1.46,0,0,0,1,.81l1.44.38a1.5,1.5,0,0,0,.89,0l9.61-3.34L61,23l.76-.43a1.44,1.44,0,0,1,.58-.18l2.87-.29a1.75,1.75,0,0,0,.38-.09l7.22-2.69a1.53,1.53,0,0,0,.47-.29l2.64-2.35A1.55,1.55,0,0,0,76.36,15.22ZM55.23,22.88c-2,.74-4,.42-4.4-.73s.86-2.68,2.86-3.42,4-.4,4.43.73S57.25,22.14,55.23,22.88ZM67.84,20c-3.44,1.26-6.82.7-7.54-1.24-.63-1.68,1-3.87,3.62-5.25a11.26,11.26,0,0,1,1.32-.59,9.82,9.82,0,0,1,2.47-.59h0a6.28,6.28,0,0,1,3.92.52h0a2.47,2.47,0,0,1,1.16,1.28,1.72,1.72,0,0,1,.08.28C73.31,16.33,71.13,18.78,67.84,20Z"/><path class="cls-12" d="M67.92,129.87h0a.42.42,0,0,0,0-.07A.22.22,0,0,1,67.92,129.87Z"/><path class="cls-5" d="M100.53,165.57c-.23.52-.49,1.05-.76,1.54-.15.31-.31.59-.47.88-.07.13-.14.26-.22.39-.21.37-.43.73-.66,1.07s-.48.73-.73,1.08c0,.07-.09.14-.14.2-.27.37-.53.74-.82,1.09l-.3.37c-.26.32-.53.64-.8.94-.11.12-.22.25-.34.37-.28.31-.58.62-.89.92a2.2,2.2,0,0,1-.27.26c-.31.32-.64.63-1,.92l-.24.2c-.41.36-.83.71-1.26,1s-.65.5-1,.73-.51.36-.77.54a28.83,28.83,0,0,1-3.76,2.12c-.29.14-.58.26-.87.38a28.82,28.82,0,0,1-5.11,1.67l-1.06.22-1.32.22-.77.09c-.74.09-1.51.15-2.26.18l-1.13,0H31.37l-1.19,0-.81,0-.94-.08h-.06c-.33,0-.64-.07-.95-.12s-.86-.11-1.29-.19l-.63-.13c-.32-.06-.63-.13-.94-.21s-.52-.12-.78-.2l-.23-.06c-.26-.07-.51-.13-.77-.22l-.13,0c-.29-.08-.57-.18-.85-.28s-.6-.21-.89-.31c-.59-.23-1.18-.48-1.75-.73l-.73-.35a8.6,8.6,0,0,1-.95-.5c-.28-.14-.56-.29-.82-.45a25.74,25.74,0,0,1-2.37-1.52c-.51-.36-1-.73-1.48-1.13l-.64-.53a28.87,28.87,0,0,1-4.64-5c-.14-.18-.27-.37-.4-.55A26.92,26.92,0,0,1,4.69,166a10.66,10.66,0,0,1-.49-1.09c-.22-.51-.43-1-.61-1.56C21.8,176,74.13,179.11,100.53,165.57Z"/><path class="cls-13" d="M103.1,98.87v54.67a29.22,29.22,0,0,1-2.58,12A75.06,75.06,0,0,1,80.92,172a132.48,132.48,0,0,1-20.41,2.28V151.45H41.39v22.39c-15.74-1.34-29.95-5-37.81-10.48a29.31,29.31,0,0,1-1.68-9.82V98.87Z"/><path class="cls-13" d="M27.32,32.53l1.17.34v72.05l-8.44-1.67V29.77s0,0,0,0c.3.15.62.29.93.43.64.27,1.29.55,2,.82s1.38.52,2.1.76S26.56,32.3,27.32,32.53Z"/><path class="cls-13" d="M84.69,30.93v74l-8.45-1.61V33.54A58.54,58.54,0,0,0,84.69,30.93Z"/><ellipse class="cls-14" cx="24.15" cy="54.18" rx="2.53" ry="2.72"/><ellipse class="cls-14" cx="24.15" cy="48" rx="2.53" ry="2.72"/><ellipse class="cls-14" cx="80.35" cy="54.18" rx="2.53" ry="2.72"/><ellipse class="cls-14" cx="80.35" cy="47.4" rx="2.53" ry="2.72"/><polygon class="cls-14" points="17.98 98.87 1.9 127.86 1.9 98.87 17.98 98.87"/><polygon class="cls-14" points="103.1 98.87 103.1 126.37 89.82 102.89 87.55 98.87 103.1 98.87"/><polygon class="cls-14" points="47.2 126.29 47.2 99.28 47.18 98.87 52.89 98.87 52.95 98.94 47.2 126.29"/><rect class="cls-15" x="1.9" y="98.42" width="101.19" height="4.47"/><circle class="cls-16" cx="26.89" cy="71.49" r="10.63"/><circle class="cls-16" cx="75.8" cy="71.49" r="10.63"/><rect x="10.81" y="60.13" width="35.74" height="2.73" transform="translate(28.91 -6.36) rotate(25.19)"/><rect x="54.82" y="60.85" width="35.74" height="2.73" transform="translate(-18.91 34.56) rotate(-23.76)"/><circle cx="26.4" cy="71.81" r="2.62"/><circle cx="76.04" cy="71.81" r="2.62"/><path d="M78.79,98.17a3.16,3.16,0,0,1-.2,1.12c-2.16-4.42-13.06-7.79-26.17-7.79-13.61,0-24.83,3.64-26.38,8.31a3.65,3.65,0,0,1-.41-1.64c0-5.21,11.9-9.43,26.58-9.43S78.79,93,78.79,98.17Z"/><path class="cls-17" d="M24.11,121.29a1.22,1.22,0,0,1-.6.89.7.7,0,0,1-.33,0,.59.59,0,0,0-.31,0l-2.3,1c-.08,0-.15.12-.23.27s-.15.23-.22.25a2.93,2.93,0,0,1-1.46-.24,3.1,3.1,0,0,1-1.34-.67,1.17,1.17,0,0,1-.11-.78,2.13,2.13,0,0,0,0-.39V111.14a.57.57,0,0,0-.13-.27.3.3,0,0,1-.09-.19c0-.19.2-.34.54-.43a3.47,3.47,0,0,1,1.42.23c.82.24,1.24.52,1.25.84a.83.83,0,0,1-.17.38.71.71,0,0,0-.17.37v8.62l1.62-.7a2.18,2.18,0,0,1,.53-.28q.21,0,1.17.66C23.85,120.84,24.15,121.14,24.11,121.29Z"/><path class="cls-17" d="M30.91,120.49c.09.16-.11.62-.61,1.39a5,5,0,0,1-1.59,1.67.72.72,0,0,1-.28,0,4.65,4.65,0,0,1-1.59-.37,3,3,0,0,1-1.38-.81,5.2,5.2,0,0,1-.9-3.24,7.31,7.31,0,0,1,.79-3.47A2.59,2.59,0,0,1,27.54,114a3,3,0,0,1,1.17.25,3.72,3.72,0,0,1,1.38.88,1.88,1.88,0,0,1,.27.85,7.41,7.41,0,0,1,.16,1.46,2.32,2.32,0,0,1-.35,1.47,12.2,12.2,0,0,1-3.27.57,5.72,5.72,0,0,0,.18,1.61c.15.56.3.85.46.86s.45-.16.75-.52a2.2,2.2,0,0,0,.48-.76,7.09,7.09,0,0,1,.3-1,2.83,2.83,0,0,1,1,.25A2,2,0,0,1,30.91,120.49Zm-2.78-4.77c-.18,0-.42.26-.74.84a4.31,4.31,0,0,0-.55,1.67,2,2,0,0,0,1.12-.34c.16-.13.25-.65.25-1.56C28.21,115.94,28.18,115.74,28.13,115.72Z"/><path class="cls-17" d="M39.45,111.23a1.53,1.53,0,0,1-.12.61,2.86,2.86,0,0,0-.14.51v10.17a1.67,1.67,0,0,0,.07.64c.16.27.21.45.14.54s-.18.13-.4.13a6.67,6.67,0,0,1-1.09-.14c-.56-.12-.85-.17-.88-.17a.5.5,0,0,1-.4-.38.64.64,0,0,1,0-.2,16.18,16.18,0,0,1,.17-1.9c-.25.5-.49,1-.73,1.49s-.65.9-.92.85a3.48,3.48,0,0,1-3.07-3.78A7.85,7.85,0,0,1,33,116a5.2,5.2,0,0,1,2.09-2.34.66.66,0,0,1,.3-.07q.39,0,1.35,1v-3a2,2,0,0,0-.14-.45,1.51,1.51,0,0,1-.12-.47c0-.22.14-.33.44-.33a4.19,4.19,0,0,1,1.12.22l.92.3A.56.56,0,0,1,39.45,111.23Zm-2.71,4A3.64,3.64,0,0,0,35.15,117a5.28,5.28,0,0,0-.71,2.46c0,.89.35,1.37,1,1.45C35.84,120.92,36.26,119.05,36.74,115.25Z"/><path class="cls-17" d="M46.69,120.49c.09.16-.11.62-.61,1.39a5,5,0,0,1-1.59,1.67.72.72,0,0,1-.28,0,4.65,4.65,0,0,1-1.59-.37,3,3,0,0,1-1.38-.81,5.2,5.2,0,0,1-.9-3.24,7.31,7.31,0,0,1,.79-3.47A2.59,2.59,0,0,1,43.32,114a3,3,0,0,1,1.17.25,3.72,3.72,0,0,1,1.38.88,1.88,1.88,0,0,1,.27.85,7.41,7.41,0,0,1,.16,1.46A2.32,2.32,0,0,1,46,119a12.2,12.2,0,0,1-3.27.57,5.4,5.4,0,0,0,.19,1.61c.14.56.29.85.45.86s.45-.16.75-.52a2.2,2.2,0,0,0,.48-.76,7.09,7.09,0,0,1,.3-1,2.83,2.83,0,0,1,1,.25A2,2,0,0,1,46.69,120.49Zm-2.78-4.77c-.18,0-.42.26-.74.84a4.31,4.31,0,0,0-.55,1.67,2,2,0,0,0,1.12-.34c.16-.13.25-.65.25-1.56C44,115.94,44,115.74,43.91,115.72Z"/><path class="cls-17" d="M53.73,115a.34.34,0,0,1-.17.4l-.36.2q-1,1.5-2.66,4c0,1.66,0,2.51,0,2.56s.05.18.12.4a1.67,1.67,0,0,1,.1.5.41.41,0,0,1-.26.41,1.24,1.24,0,0,1-.47.08,3.74,3.74,0,0,1-1.31-.27c-.61-.21-.91-.47-.91-.79A1.3,1.3,0,0,1,48,122a1.42,1.42,0,0,0,.12-.51v-6.17c-.11-.59-.17-.89-.17-.91a.58.58,0,0,1,.44-.61,1.92,1.92,0,0,1,.45,0,4,4,0,0,1,1.15.18c.4.12.63.24.71.38a.33.33,0,0,1,0,.15,6.33,6.33,0,0,1-.22.75V116l.73-1.34c.32-.56.56-.86.72-.89a1.63,1.63,0,0,1,1,.41Q53.66,114.64,53.73,115Z"/><path class="cls-17" d="M61.86,122.88a.71.71,0,0,1-.35.57,1.1,1.1,0,0,1-.39,0,5.85,5.85,0,0,1-1.26-.16A2.32,2.32,0,0,1,59,123a.31.31,0,0,1-.06-.19,1.73,1.73,0,0,1,.14-.47l.2-.27a.59.59,0,0,0,.11-.38,60.82,60.82,0,0,0-.09-6.19c-.16,0-.52.32-1.08,1.14a4,4,0,0,0-.9,2.07v3.46a.72.72,0,0,1,.17.66.82.82,0,0,1-.5.65.44.44,0,0,1-.19,0,5.67,5.67,0,0,1-1.23-.19,2.92,2.92,0,0,1-.89-.29.59.59,0,0,1,0-.58.6.6,0,0,1,.15-.16.32.32,0,0,0,.13-.23v-11a.7.7,0,0,0-.12-.33.39.39,0,0,1-.08-.34.58.58,0,0,1,.48-.42,3,3,0,0,1,1.17.17c.67.16,1,.34,1.09.51a.81.81,0,0,1,0,.52,2.59,2.59,0,0,0-.11.84v2.91a2.34,2.34,0,0,1,1.68-1.1,3.66,3.66,0,0,1,1.37.36c.57.25.89.47,1,.67q.44,1,.44,7.37A1.27,1.27,0,0,1,61.86,122.88Z"/><path class="cls-17" d="M68.48,114.29a2.73,2.73,0,0,1,1.33,1.63,7.56,7.56,0,0,1,.42,2.65,8.55,8.55,0,0,1-.72,3.65q-.8,1.65-2,1.5c-.29-.07-.73-.16-1.31-.27a7.08,7.08,0,0,1-1.15-.23,2.3,2.3,0,0,1-1.42-1.51,7.39,7.39,0,0,1-.48-2.78,7.94,7.94,0,0,1,.5-2.91,3.76,3.76,0,0,1,1.57-2,1,1,0,0,1,.47-.09,7.58,7.58,0,0,1,1.23.2A8.66,8.66,0,0,1,68.48,114.29Zm-1.74,1.4q-.42,0-.78,1a5.87,5.87,0,0,0-.36,2,9.67,9.67,0,0,0,.26,2.21c.2.79.43,1.22.69,1.28s.63-.3.89-1.12a8.69,8.69,0,0,0,.37-2.62,6.06,6.06,0,0,0-.2-1.58C67.42,116.07,67.13,115.69,66.74,115.69Z"/><path class="cls-17" d="M77.15,121.68a1.75,1.75,0,0,1-.57,1.37,2.36,2.36,0,0,1-1.59.53,2.28,2.28,0,0,1-.55-.08l-.56-.15-.57-.14a1,1,0,0,1-.49-.24,3.72,3.72,0,0,1-.67-.86c-.18-.29-.35-.58-.52-.89a2.33,2.33,0,0,1-.25-.54c0-.15.11-.26.32-.33a.85.85,0,0,1,.28,0,8.11,8.11,0,0,1,1.17.1,2.88,2.88,0,0,1,.78.17,4.37,4.37,0,0,1,.17.9c.06.48.17.72.32.72s.36-.33.36-1c0-.82-.22-1.34-.65-1.54a6.46,6.46,0,0,1-2-1.25,3.07,3.07,0,0,1-.57-2,3.21,3.21,0,0,1,.46-1.67,1.88,1.88,0,0,1,1.11-1,5.55,5.55,0,0,1,1.81.59,7.26,7.26,0,0,0,.83.18,1.17,1.17,0,0,1,.68.32,2,2,0,0,1,.35,1.14c0,.39,0,.77,0,1.16s.11.56.11.62a.45.45,0,0,1-.42.5,2.59,2.59,0,0,1-.86-.17,1.93,1.93,0,0,1-.89-.49,6.86,6.86,0,0,1-.09-1.17c0-.69-.1-1-.22-1s-.3.2-.44.61a4.05,4.05,0,0,0-.2,1.26q0,.82.36,1l1.52.84a2.93,2.93,0,0,1,1.05.89A2.83,2.83,0,0,1,77.15,121.68Z"/><path class="cls-17" d="M84.64,120.49c.09.16-.11.62-.61,1.39a5,5,0,0,1-1.59,1.67.69.69,0,0,1-.28,0,4.65,4.65,0,0,1-1.59-.37,2.93,2.93,0,0,1-1.37-.81,5.14,5.14,0,0,1-.91-3.24,7.31,7.31,0,0,1,.8-3.47A2.58,2.58,0,0,1,81.27,114a3,3,0,0,1,1.17.25,3.85,3.85,0,0,1,1.39.88,2.07,2.07,0,0,1,.26.85,6.73,6.73,0,0,1,.16,1.46A2.32,2.32,0,0,1,83.9,119a12.2,12.2,0,0,1-3.27.57,5.4,5.4,0,0,0,.19,1.61c.14.56.29.85.45.86s.46-.16.75-.52a2.2,2.2,0,0,0,.48-.76,7.09,7.09,0,0,1,.3-1,2.83,2.83,0,0,1,1,.25A2,2,0,0,1,84.64,120.49Zm-2.78-4.77c-.18,0-.42.26-.74.84a4.31,4.31,0,0,0-.55,1.67,2,2,0,0,0,1.12-.34c.17-.13.25-.65.25-1.56C81.94,115.94,81.91,115.74,81.86,115.72Z"/><path class="cls-17" d="M92.89,122.22a1.61,1.61,0,0,1,.12.6.63.63,0,0,1-.36.63,1.1,1.1,0,0,1-.39,0,5.85,5.85,0,0,1-1.26-.16,2.25,2.25,0,0,1-.89-.32.34.34,0,0,1-.08-.2,1.29,1.29,0,0,1,.24-.56,1.34,1.34,0,0,0,.23-.55,60.82,60.82,0,0,0-.09-6.19c-.15,0-.51.41-1.08,1.4a5.43,5.43,0,0,0-.9,2.35v2.92a.7.7,0,0,1,.2.5.8.8,0,0,1-.53.81.47.47,0,0,1-.19,0,5.67,5.67,0,0,1-1.23-.19,2.34,2.34,0,0,1-.9-.32.44.44,0,0,1-.1-.28.65.65,0,0,1,.18-.38.71.71,0,0,0,.18-.28v-7.25a.74.74,0,0,0-.12-.33.39.39,0,0,1-.08-.34.58.58,0,0,1,.48-.42,3.44,3.44,0,0,1,1.17.17c.67.17,1,.34,1.09.52a.86.86,0,0,1,0,.51,4.12,4.12,0,0,0-.18.62,1.1,1.1,0,0,0,.07.38,4.8,4.8,0,0,1,.65-1.39c.34-.49.69-.73,1-.73a3.7,3.7,0,0,1,1.37.36c.56.25.89.47,1,.67Q92.89,115.84,92.89,122.22Z"/><path class="cls-17" d="M46.32,132.55a3.55,3.55,0,0,1,0,.46,4.85,4.85,0,0,1-1.1,2.8A10.4,10.4,0,0,1,43.06,138c-.79.57-1.32.83-1.6.79a6,6,0,0,1-1.66-.69c-.79-.42-1.21-.71-1.27-.87a.21.21,0,0,1,0-.14.69.69,0,0,1,.06-.24.87.87,0,0,0,.05-.23v-10.1c0-.17.23-.25.69-.25a2.26,2.26,0,0,1,.55.06,7.94,7.94,0,0,1,1.84-.83,6.48,6.48,0,0,1,1.91-.37,1.57,1.57,0,0,1,.73.14,1.21,1.21,0,0,1,.47.46,5.27,5.27,0,0,0,.39.56l.52.42a1,1,0,0,1,.36.5,1.29,1.29,0,0,1,.06.4,3.91,3.91,0,0,1-1.64,2.68A4.23,4.23,0,0,1,46.32,132.55Zm-2.73-5.07s-.07-.06-.17-.06a2.93,2.93,0,0,0-1.12.37,3,3,0,0,0-1,.72v1.62A12.86,12.86,0,0,0,43,128.51C43.48,128,43.68,127.61,43.59,127.48Zm.56,4.61a5.09,5.09,0,0,0-1.37.39,5.59,5.59,0,0,0-1.51.83v2.9a4,4,0,0,0,2-1.71A3.87,3.87,0,0,0,44.15,132.09Z"/><path class="cls-17" d="M54.54,136.43a1.34,1.34,0,0,1-.27.57,1,1,0,0,1-.4.36.23.23,0,0,1-.17-.05.43.43,0,0,0-.21-.07.07.07,0,0,0-.06,0,5.41,5.41,0,0,0-1,.37A9.17,9.17,0,0,0,50.34,139l-1.7-.71c-.64-.28-1-.48-1-.62V125.94c0-.08.12-.18.36-.32a1.17,1.17,0,0,1,.54-.18,3.22,3.22,0,0,1,.75.24,2.61,2.61,0,0,0,.92.22,2.71,2.71,0,0,0,1.22-.42c.45-.27.74-.38.85-.34a3.73,3.73,0,0,1,1.12.82,2.7,2.7,0,0,1,.8,1c0,.09-.07.25-.29.48s-.38.34-.52.34a.54.54,0,0,1-.25,0s-.09,0-.11,0a9.18,9.18,0,0,0-1,.29,4.53,4.53,0,0,0-1.7.91v2.54a10.51,10.51,0,0,1,1.42-.58c.16,0,.52.21,1,.7s.8.81.8,1a.67.67,0,0,1-.21.41,1.05,1.05,0,0,1-.43.29l-.54,0a8.4,8.4,0,0,0-2.09,1v1.64a12.75,12.75,0,0,1,1.27-.66,3.61,3.61,0,0,1,1-.38,3.15,3.15,0,0,1,1.1.67C54.28,136,54.56,136.3,54.54,136.43Z"/><path class="cls-17" d="M62.51,136.43a1.37,1.37,0,0,1-.28.57,1,1,0,0,1-.39.36.26.26,0,0,1-.18-.05.4.4,0,0,0-.2-.07.07.07,0,0,0-.06,0,5.5,5.5,0,0,0-1,.37A9.11,9.11,0,0,0,58.31,139l-1.7-.71c-.64-.28-1-.48-1-.62V125.94c0-.08.12-.18.36-.32a1.17,1.17,0,0,1,.54-.18,3.54,3.54,0,0,1,.75.24,2.56,2.56,0,0,0,.92.22,2.71,2.71,0,0,0,1.22-.42c.45-.27.74-.38.85-.34a3.86,3.86,0,0,1,1.12.82,2.7,2.7,0,0,1,.8,1c0,.09-.07.25-.29.48a.85.85,0,0,1-.52.34.54.54,0,0,1-.25,0s-.09,0-.11,0a9.18,9.18,0,0,0-1,.29,4.53,4.53,0,0,0-1.7.91v2.54a10,10,0,0,1,1.42-.58c.16,0,.51.21,1.05.7s.8.81.8,1a.64.64,0,0,1-.22.41,1,1,0,0,1-.42.29l-.54,0a8.24,8.24,0,0,0-2.09,1v1.64a12.75,12.75,0,0,1,1.27-.66,3.38,3.38,0,0,1,1-.38,3.24,3.24,0,0,1,1.1.67C62.24,136,62.53,136.3,62.51,136.43Z"/><path class="cls-17" d="M72.31,136.3c.1.18-.09.61-.55,1.31s-.85,1-1.16,1a1,1,0,0,1-.8-.53,1.9,1.9,0,0,0-.23-.45l-3.29-3.08v2.89a1,1,0,0,0,.13.44,1,1,0,0,1,.14.38c0,.32-.21.49-.61.52a4.79,4.79,0,0,1-1.39-.17c-.67-.15-1-.3-1-.47a.68.68,0,0,1,0-.21,1.09,1.09,0,0,0,0-.34V126.73a.46.46,0,0,0-.05-.2.27.27,0,0,1,0-.13c0-.28.21-.44.62-.5a2.77,2.77,0,0,1,.85.15,3.56,3.56,0,0,0,.94.17,4,4,0,0,0,1.09-.43,3.2,3.2,0,0,1,1.42-.42,2.81,2.81,0,0,1,.49,0,1.72,1.72,0,0,1,.79.41c.24.2.47.41.69.62.57.54.87.83.89.86a1.69,1.69,0,0,1,.43,1q.1,1.82-3.08,4.65c.43.39,1.39,1.36,2.88,2.88a4,4,0,0,1,.41.19A2.29,2.29,0,0,1,72.31,136.3Zm-3.44-8.71a5.67,5.67,0,0,0-2.59,1.53v2.38A5.4,5.4,0,0,0,68,129.9a4,4,0,0,0,1.09-2C69.13,127.69,69.05,127.59,68.87,127.59Z"/><path class="cls-18" d="M23.81,120.55a1.22,1.22,0,0,1-.6.89.7.7,0,0,1-.33,0,.59.59,0,0,0-.31,0l-2.3,1c-.08,0-.15.12-.23.27s-.15.23-.23.25a2.91,2.91,0,0,1-1.45-.24A3.1,3.1,0,0,1,17,122a1.17,1.17,0,0,1-.11-.78,3.67,3.67,0,0,0,0-.39V110.4a.68.68,0,0,0-.13-.27.3.3,0,0,1-.09-.19c0-.19.2-.34.54-.43a3.47,3.47,0,0,1,1.42.23c.82.24,1.24.52,1.25.84a.83.83,0,0,1-.17.38.71.71,0,0,0-.17.37V120l1.62-.7a2.18,2.18,0,0,1,.53-.28q.21,0,1.17.66C23.55,120.1,23.85,120.4,23.81,120.55Z"/><path class="cls-18" d="M30.6,119.75c.1.16-.1.62-.6,1.39a5,5,0,0,1-1.59,1.67.75.75,0,0,1-.29,0,4.75,4.75,0,0,1-1.59-.37,3,3,0,0,1-1.37-.81,5.2,5.2,0,0,1-.9-3.24,7.31,7.31,0,0,1,.79-3.47,2.58,2.58,0,0,1,2.19-1.66,3,3,0,0,1,1.17.25,3.72,3.72,0,0,1,1.38.88,1.88,1.88,0,0,1,.27.85,7.31,7.31,0,0,1,.15,1.46,2.33,2.33,0,0,1-.34,1.47,12.2,12.2,0,0,1-3.27.57,5.72,5.72,0,0,0,.18,1.61c.15.56.3.85.46.86s.45-.16.74-.52a2.25,2.25,0,0,0,.49-.76,8.69,8.69,0,0,1,.29-1,2.82,2.82,0,0,1,1,.25A1.84,1.84,0,0,1,30.6,119.75ZM27.83,115c-.18,0-.42.26-.74.84a4.51,4.51,0,0,0-.56,1.67,2,2,0,0,0,1.13-.34c.16-.13.25-.65.25-1.56C27.91,115.2,27.88,115,27.83,115Z"/><path class="cls-18" d="M39.15,110.49a1.53,1.53,0,0,1-.12.61,3.54,3.54,0,0,0-.15.51v10.17a1.6,1.6,0,0,0,.08.64c.16.27.2.45.14.54s-.19.13-.4.13a6.67,6.67,0,0,1-1.09-.14c-.56-.12-.85-.17-.88-.17a.48.48,0,0,1-.4-.38.64.64,0,0,1,0-.2,16.18,16.18,0,0,1,.17-1.9c-.25.5-.49,1-.73,1.49s-.65.9-.92.85a3.48,3.48,0,0,1-3.07-3.78,7.85,7.85,0,0,1,1-3.65,5.15,5.15,0,0,1,2.09-2.34.66.66,0,0,1,.3-.07q.39,0,1.35,1v-3a1.86,1.86,0,0,0-.14-.45,1.51,1.51,0,0,1-.12-.47c0-.22.14-.33.43-.33a4.18,4.18,0,0,1,1.13.22l.92.3A.56.56,0,0,1,39.15,110.49Zm-2.71,4a3.64,3.64,0,0,0-1.59,1.72,5.28,5.28,0,0,0-.71,2.46c0,.88.35,1.37,1,1.45C35.54,120.18,36,118.31,36.44,114.51Z"/><path class="cls-18" d="M46.38,119.75c.1.16-.1.62-.6,1.39a5,5,0,0,1-1.59,1.67.72.72,0,0,1-.28,0,4.75,4.75,0,0,1-1.6-.37,3,3,0,0,1-1.37-.81,5.2,5.2,0,0,1-.9-3.24,7.31,7.31,0,0,1,.79-3.47A2.59,2.59,0,0,1,43,113.3a3,3,0,0,1,1.17.25,3.72,3.72,0,0,1,1.38.88,1.88,1.88,0,0,1,.27.85,7.31,7.31,0,0,1,.15,1.46,2.33,2.33,0,0,1-.34,1.47,12.2,12.2,0,0,1-3.27.57,5.72,5.72,0,0,0,.18,1.61c.15.56.3.85.46.86s.45-.16.75-.52a2.36,2.36,0,0,0,.48-.76,8.69,8.69,0,0,1,.29-1,2.82,2.82,0,0,1,1,.25A1.84,1.84,0,0,1,46.38,119.75ZM43.61,115c-.18,0-.42.26-.74.84a4.51,4.51,0,0,0-.56,1.67,2,2,0,0,0,1.13-.34c.16-.13.25-.65.25-1.56C43.69,115.2,43.66,115,43.61,115Z"/><path class="cls-18" d="M53.43,114.22a.34.34,0,0,1-.17.4l-.36.2q-1,1.5-2.66,4c0,1.66,0,2.51,0,2.56s0,.18.12.4a1.67,1.67,0,0,1,.1.5.4.4,0,0,1-.27.41,1.15,1.15,0,0,1-.46.08,3.7,3.7,0,0,1-1.31-.27c-.61-.21-.91-.47-.91-.79a1.3,1.3,0,0,1,.13-.46,1.42,1.42,0,0,0,.12-.51v-6.17c-.11-.59-.17-.89-.17-.91a.58.58,0,0,1,.44-.61,1.92,1.92,0,0,1,.45,0,4.09,4.09,0,0,1,1.15.18c.4.12.63.24.7.38a.24.24,0,0,1,0,.15,6.33,6.33,0,0,1-.22.75v.75l.73-1.34c.32-.56.56-.86.72-.89a1.64,1.64,0,0,1,1,.41Q53.36,113.91,53.43,114.22Z"/><path class="cls-18" d="M61.56,122.14a.71.71,0,0,1-.35.57,1.1,1.1,0,0,1-.39.05,5.85,5.85,0,0,1-1.26-.16,2.25,2.25,0,0,1-.89-.32.31.31,0,0,1-.06-.19,1.73,1.73,0,0,1,.14-.47l.2-.27a.66.66,0,0,0,.11-.38,60.82,60.82,0,0,0-.09-6.19c-.16,0-.52.32-1.08,1.14A4,4,0,0,0,57,118v3.46a.72.72,0,0,1,.17.66.82.82,0,0,1-.5.65.44.44,0,0,1-.19,0,5.67,5.67,0,0,1-1.23-.19,2.92,2.92,0,0,1-.89-.29.59.59,0,0,1,0-.58.6.6,0,0,1,.15-.16.32.32,0,0,0,.13-.23v-11a.7.7,0,0,0-.12-.33.39.39,0,0,1-.08-.34.58.58,0,0,1,.48-.42,3,3,0,0,1,1.17.17c.67.16,1,.33,1.09.51a.89.89,0,0,1,0,.52,2.55,2.55,0,0,0-.11.84v2.91a2.34,2.34,0,0,1,1.68-1.1,3.7,3.7,0,0,1,1.37.36c.56.25.89.47,1,.67q.43,1,.44,7.37A1.27,1.27,0,0,1,61.56,122.14Z"/><path class="cls-18" d="M68.18,113.55a2.77,2.77,0,0,1,1.33,1.63,7.56,7.56,0,0,1,.42,2.65,8.55,8.55,0,0,1-.72,3.65q-.79,1.65-2,1.5c-.29-.07-.73-.16-1.31-.27a7.08,7.08,0,0,1-1.15-.23A2.3,2.3,0,0,1,63.35,121a7.39,7.39,0,0,1-.48-2.78,8.15,8.15,0,0,1,.49-2.91,3.82,3.82,0,0,1,1.58-2,1,1,0,0,1,.47-.09,7.58,7.58,0,0,1,1.23.2A8.66,8.66,0,0,1,68.18,113.55ZM66.44,115q-.42,0-.78,1a5.87,5.87,0,0,0-.36,2,9.67,9.67,0,0,0,.26,2.21c.2.79.43,1.22.69,1.28s.63-.3.89-1.12a8.69,8.69,0,0,0,.37-2.62,6.52,6.52,0,0,0-.2-1.58C67.12,115.33,66.83,115,66.44,115Z"/><path class="cls-18" d="M76.85,120.94a1.75,1.75,0,0,1-.57,1.37,2.36,2.36,0,0,1-1.59.53,2.28,2.28,0,0,1-.55-.08l-.56-.15-.57-.14a1,1,0,0,1-.49-.24,3.72,3.72,0,0,1-.67-.86c-.18-.29-.35-.58-.52-.89a2.33,2.33,0,0,1-.25-.54c0-.15.11-.26.31-.33a1,1,0,0,1,.29,0,8.11,8.11,0,0,1,1.17.1,2.63,2.63,0,0,1,.77.17,3.44,3.44,0,0,1,.18.9c.06.48.17.72.32.72s.36-.33.36-1c0-.82-.22-1.34-.65-1.54a6.33,6.33,0,0,1-2-1.25,3.07,3.07,0,0,1-.57-2,3.21,3.21,0,0,1,.46-1.67,1.88,1.88,0,0,1,1.11-1,5.55,5.55,0,0,1,1.81.59,7.26,7.26,0,0,0,.83.18,1.17,1.17,0,0,1,.68.32,2,2,0,0,1,.34,1.14c0,.39,0,.77,0,1.15s.11.57.11.63a.45.45,0,0,1-.42.5,2.59,2.59,0,0,1-.86-.17,1.93,1.93,0,0,1-.89-.49,6.86,6.86,0,0,1-.09-1.17c0-.69-.11-1-.22-1s-.3.2-.44.61a4.05,4.05,0,0,0-.2,1.26c0,.55.12.9.36,1l1.52.85a3,3,0,0,1,1,.89A2.83,2.83,0,0,1,76.85,120.94Z"/><path class="cls-18" d="M84.34,119.75c.09.16-.11.62-.61,1.39a5,5,0,0,1-1.59,1.67.69.69,0,0,1-.28,0,4.65,4.65,0,0,1-1.59-.37,3,3,0,0,1-1.38-.81,5.2,5.2,0,0,1-.9-3.24,7.2,7.2,0,0,1,.8-3.47A2.57,2.57,0,0,1,81,113.3a3,3,0,0,1,1.17.25,3.85,3.85,0,0,1,1.39.88,2.07,2.07,0,0,1,.26.85,7.33,7.33,0,0,1,.16,1.46,2.32,2.32,0,0,1-.35,1.47,12.2,12.2,0,0,1-3.27.57,5.4,5.4,0,0,0,.19,1.61c.14.56.29.85.45.86s.46-.16.75-.52a2.2,2.2,0,0,0,.48-.76,7.09,7.09,0,0,1,.3-1,2.83,2.83,0,0,1,1,.25A2,2,0,0,1,84.34,119.75ZM81.56,115c-.18,0-.42.26-.74.84a4.31,4.31,0,0,0-.55,1.67,2,2,0,0,0,1.12-.34c.17-.13.25-.65.25-1.56C81.64,115.2,81.61,115,81.56,115Z"/><path class="cls-18" d="M92.58,121.48a1.43,1.43,0,0,1,.13.59.63.63,0,0,1-.36.64,1.1,1.1,0,0,1-.39.05,5.85,5.85,0,0,1-1.26-.16,2.25,2.25,0,0,1-.89-.32.34.34,0,0,1-.08-.21,1.32,1.32,0,0,1,.24-.55,1.34,1.34,0,0,0,.23-.55,60.82,60.82,0,0,0-.09-6.19c-.15,0-.51.41-1.08,1.4a5.43,5.43,0,0,0-.9,2.35v2.92a.7.7,0,0,1,.2.5.81.81,0,0,1-.53.81.47.47,0,0,1-.19,0,5.67,5.67,0,0,1-1.23-.19,2.51,2.51,0,0,1-.91-.32.49.49,0,0,1-.09-.28.65.65,0,0,1,.18-.38.71.71,0,0,0,.18-.28v-7.25a.67.67,0,0,0-.13-.33.42.42,0,0,1-.07-.34A.58.58,0,0,1,86,113a3.44,3.44,0,0,1,1.17.17c.66.17,1,.34,1.09.52a.8.8,0,0,1,0,.51,4.88,4.88,0,0,0-.17.62,1.1,1.1,0,0,0,.07.38,4.8,4.8,0,0,1,.65-1.39c.34-.49.69-.73,1-.73a3.7,3.7,0,0,1,1.37.36c.56.25.88.47,1,.67Q92.59,115.1,92.58,121.48Z"/><path class="cls-18" d="M46,131.81a3.55,3.55,0,0,1,0,.46,4.8,4.8,0,0,1-1.1,2.79,10.69,10.69,0,0,1-2.19,2.16c-.79.57-1.32.83-1.6.79a6,6,0,0,1-1.66-.69,3.71,3.71,0,0,1-1.28-.87.32.32,0,0,1,0-.14.69.69,0,0,1,.06-.24.87.87,0,0,0,0-.23v-10.1c0-.17.23-.25.69-.25a2.12,2.12,0,0,1,.54.06,8.23,8.23,0,0,1,1.85-.83,6.17,6.17,0,0,1,1.91-.37,1.77,1.77,0,0,1,.73.13,1.36,1.36,0,0,1,.47.46,4.76,4.76,0,0,0,.39.57l.52.42a1.12,1.12,0,0,1,.36.5,1.29,1.29,0,0,1,.06.4,3.91,3.91,0,0,1-1.64,2.68A4.23,4.23,0,0,1,46,131.81Zm-2.73-5.07s-.08-.06-.17-.06a2.93,2.93,0,0,0-1.12.37,3,3,0,0,0-1,.72v1.62a13.49,13.49,0,0,0,1.72-1.62C43.18,127.22,43.38,126.87,43.29,126.74Zm.56,4.61a5.09,5.09,0,0,0-1.37.39,5.59,5.59,0,0,0-1.51.83v2.9a3.91,3.91,0,0,0,2-1.72A3.79,3.79,0,0,0,43.85,131.35Z"/><path class="cls-18" d="M54.24,135.69a1.45,1.45,0,0,1-.27.57,1.1,1.1,0,0,1-.4.36.23.23,0,0,1-.17-.05.43.43,0,0,0-.21-.07h-.06a6.93,6.93,0,0,0-1,.38A9.07,9.07,0,0,0,50,138.24l-1.7-.7c-.64-.28-1-.48-1-.62V125.19c0-.07.12-.17.36-.31a1.22,1.22,0,0,1,.54-.19,4.12,4.12,0,0,1,.75.25,2.56,2.56,0,0,0,.92.22,2.71,2.71,0,0,0,1.22-.42c.45-.27.74-.38.85-.34a3.67,3.67,0,0,1,1.12.82,2.7,2.7,0,0,1,.8,1c0,.09-.07.25-.29.48s-.38.34-.52.34a.54.54,0,0,1-.25,0c-.05,0-.09,0-.11,0a9.18,9.18,0,0,0-1,.29,4.53,4.53,0,0,0-1.7.91v2.54a10,10,0,0,1,1.42-.58c.16,0,.51.21,1,.7s.8.81.8,1a.64.64,0,0,1-.22.41,1,1,0,0,1-.42.29l-.54,0a8.4,8.4,0,0,0-2.09,1v1.64a12.75,12.75,0,0,1,1.27-.66,3.55,3.55,0,0,1,1-.39,3.36,3.36,0,0,1,1.1.68C54,135.27,54.26,135.56,54.24,135.69Z"/><path class="cls-18" d="M62.21,135.69a1.66,1.66,0,0,1-.28.57,1,1,0,0,1-.39.36.25.25,0,0,1-.18-.05.4.4,0,0,0-.2-.07H61.1a6.48,6.48,0,0,0-1,.38A9.07,9.07,0,0,0,58,138.24l-1.7-.7c-.64-.28-1-.48-1-.62V125.19c0-.07.12-.17.36-.31a1.22,1.22,0,0,1,.54-.19,4.7,4.7,0,0,1,.75.25,2.56,2.56,0,0,0,.92.22,2.64,2.64,0,0,0,1.21-.42c.46-.27.75-.38.86-.34a3.67,3.67,0,0,1,1.12.82,2.7,2.7,0,0,1,.8,1c0,.09-.08.25-.29.48a.85.85,0,0,1-.52.34.51.51,0,0,1-.25,0c-.05,0-.09,0-.11,0a9.18,9.18,0,0,0-1,.29,4.53,4.53,0,0,0-1.7.91v2.54a10.31,10.31,0,0,1,1.41-.58c.17,0,.52.21,1.06.7s.8.81.8,1a.64.64,0,0,1-.22.41,1,1,0,0,1-.42.29l-.54,0a8.24,8.24,0,0,0-2.09,1v1.64a12.75,12.75,0,0,1,1.27-.66,3.55,3.55,0,0,1,1-.39,3.36,3.36,0,0,1,1.1.68C61.94,135.27,62.23,135.56,62.21,135.69Z"/><path class="cls-18" d="M72,135.56c.1.18-.09.61-.55,1.3s-.85,1-1.16,1a1,1,0,0,1-.8-.53,2.13,2.13,0,0,0-.23-.46L66,133.83v2.89a1,1,0,0,0,.13.43,1,1,0,0,1,.13.39c0,.32-.2.49-.6.52a4.79,4.79,0,0,1-1.39-.17c-.67-.15-1-.31-1-.47a.68.68,0,0,1,0-.21,1.09,1.09,0,0,0,0-.34V126a.46.46,0,0,0,0-.2.31.31,0,0,1-.05-.13c0-.28.22-.45.63-.5a2.77,2.77,0,0,1,.85.15,3.38,3.38,0,0,0,.94.16,3.85,3.85,0,0,0,1.09-.42,3.2,3.2,0,0,1,1.42-.42,2.81,2.81,0,0,1,.49.05,1.8,1.8,0,0,1,.79.4l.69.63c.57.54.87.82.89.86a1.69,1.69,0,0,1,.43,1c.06,1.21-1,2.76-3.08,4.65q.64.59,2.88,2.88a4,4,0,0,1,.41.19A2.29,2.29,0,0,1,72,135.56Zm-3.44-8.71A5.71,5.71,0,0,0,66,128.37v2.39a5.35,5.35,0,0,0,1.76-1.61,3.89,3.89,0,0,0,1.09-2C68.83,127,68.74,126.85,68.57,126.85Z"/><path class="cls-12" d="M75.1,165.7a1,1,0,0,1,.59.22.66.66,0,0,1,.23.4.6.6,0,0,1-.11.46,1.2,1.2,0,0,1-.53.39l-2.54.4a.87.87,0,0,1-.67-.15.64.64,0,0,1-.27-.43.72.72,0,0,1,.13-.53.86.86,0,0,1,.64-.35l.31-.05-1-6.48a.86.86,0,0,1-.32.11.78.78,0,0,1-.59-.11.64.64,0,0,1-.28-.45.56.56,0,0,1,0-.31.87.87,0,0,1,.17-.33l1.08-1a1.43,1.43,0,0,1,.42-.15.77.77,0,0,1,.89.49l1.28,8Z"/><path class="cls-12" d="M85.45,161.53a7.51,7.51,0,0,1-.24,1.36,6.94,6.94,0,0,1-.54,1.42,5.21,5.21,0,0,1-.86,1.21,2.63,2.63,0,0,1-1.19.75l-.33.1-.34.06a3,3,0,0,1-.6,0,2.52,2.52,0,0,1-.61-.11l-.2-.08a4.54,4.54,0,0,1-.65-.23,1.55,1.55,0,0,1-.53-.39,5.25,5.25,0,0,1-1.12-1.6,6.87,6.87,0,0,1-.57-1.84c0-.23-.06-.47-.08-.7s0-.48,0-.7a7.82,7.82,0,0,1,.15-1.48,5.85,5.85,0,0,1,.52-1.49,4,4,0,0,1,.93-1.21,2.82,2.82,0,0,1,1.39-.69,7.21,7.21,0,0,1,.77-.12,2.24,2.24,0,0,1,.73.06c.23.08.48.17.74.29a4,4,0,0,1,.66.37,4.68,4.68,0,0,1,1.25,1.64,7.36,7.36,0,0,1,.62,2c0,.23.07.46.09.68s0,.44,0,.65Zm-1.63.06,0-.57c0-.19,0-.38-.07-.57a2.87,2.87,0,0,0-.08-.38c0-.14-.07-.28-.11-.42s-.19-.55-.3-.81a2.37,2.37,0,0,0-.44-.73,2.13,2.13,0,0,0-.82-.63,1.57,1.57,0,0,0-.9-.12,1.5,1.5,0,0,0-.61.24,2.45,2.45,0,0,0-.54.48,2.63,2.63,0,0,0-.41.78,6.18,6.18,0,0,0-.32,2,6.71,6.71,0,0,0,.09,1.1,6.61,6.61,0,0,0,.42,1.47,3,3,0,0,0,.75,1.06,1.49,1.49,0,0,0,.65.33,4.55,4.55,0,0,0,.66.1,2.47,2.47,0,0,0,.9-.5,3.33,3.33,0,0,0,.62-.77,3.78,3.78,0,0,0,.38-.95,5.21,5.21,0,0,0,.16-1.06Z"/><path class="cls-12" d="M86.09,156.41a2.61,2.61,0,0,1,.09-1.1,2.47,2.47,0,0,1,.46-.83,2.22,2.22,0,0,1,.72-.57,3.26,3.26,0,0,1,.87-.28,2.9,2.9,0,0,1,.93,0A2.45,2.45,0,0,1,90,154a2.21,2.21,0,0,1,.69.64,2.27,2.27,0,0,1,.37,1,2.34,2.34,0,0,1-.06,1.06,2.82,2.82,0,0,1-.45.9,2.74,2.74,0,0,1-1.68,1,2.33,2.33,0,0,1-.87,0,2.4,2.4,0,0,1-.84-.36,2.62,2.62,0,0,1-.69-.68A2.92,2.92,0,0,1,86.09,156.41Zm2.32-1.35a.63.63,0,0,0-.32.14.86.86,0,0,0-.2.27,1,1,0,0,0-.11.34c0,.12,0,.24,0,.35a1.14,1.14,0,0,0,.44.7.89.89,0,0,0,.63.13.84.84,0,0,0,.54-.34,1,1,0,0,0-.24-1.42A.91.91,0,0,0,88.41,155.06Zm5.61-2.4a.9.9,0,0,1,.59-.33.8.8,0,0,1,.57.11.68.68,0,0,1,.31.46.85.85,0,0,1,0,.16,1.11,1.11,0,0,1,0,.17l-2.73,5.67-2.92,6a.77.77,0,0,1-.31.33,1.32,1.32,0,0,1-.35.12.85.85,0,0,1-.57-.1.58.58,0,0,1-.3-.46,1,1,0,0,1,0-.24.77.77,0,0,1,.07-.28c.51-1,1-2,1.45-3l1.37-2.85c.45-.93.91-1.88,1.38-2.83l1.45-3Zm-1.17,9.53a2.38,2.38,0,0,1,.09-1.08,2.21,2.21,0,0,1,.45-.81,2.29,2.29,0,0,1,.71-.56,2.83,2.83,0,0,1,.85-.28,2.53,2.53,0,0,1,.91,0,2.67,2.67,0,0,1,.86.3,2.27,2.27,0,0,1,.68.63,2.1,2.1,0,0,1,.38.94,2.59,2.59,0,0,1,0,1.08,2.32,2.32,0,0,1-.43.86,2.4,2.4,0,0,1-.73.61,2.6,2.6,0,0,1-.9.31,2.43,2.43,0,0,1-.85,0,2.35,2.35,0,0,1-.83-.32,2.42,2.42,0,0,1-.7-.66A3,3,0,0,1,92.85,162.19Zm2.33-1.28a.7.7,0,0,0-.56.38,1.76,1.76,0,0,0-.12.63,1.12,1.12,0,0,0,.41.67.78.78,0,0,0,1.12-.18.94.94,0,0,0,.15-.76.77.77,0,0,0-.37-.6A.89.89,0,0,0,95.18,160.91Z"/></g></svg>